  0
SECTION
  2
HEADER
  9
$ACADVER
  1
AC1014
  9
$HANDSEED
  5
FFFF
  9
$MEASUREMENT
 70
     1
  0
ENDSEC
  0
SECTION
  2
TABLES
  0
TABLE
  2
VPORT
  5
8
330
0
100
AcDbSymbolTable
 70
     4
  0
VPORT
  5
2E
330
8
100
AcDbSymbolTableRecord
100
AcDbViewportTableRecord
  2
*ACTIVE
 70
     0
 10
0.0
 20
0.0
 11
1.0
 21
1.0
 12
210.0
 22
148.5
 13
0.0
 23
0.0
 14
10.0
 24
10.0
 15
10.0
 25
10.0
 16
0.0
 26
0.0
 36
1.0
 17
0.0
 27
0.0
 37
0.0
 40
341.0
 41
1.24
 42
50.0
 43
0.0
 44
0.0
 50
0.0
 51
0.0
 71
     0
 72
   100
 73
     1
 74
     3
 75
     0
 76
     0
 77
     0
 78
     0
  0
ENDTAB
  0
TABLE
  2
LTYPE
  5
5
330
0
100
AcDbSymbolTable
 70
     1
  0
LTYPE
  5
14
330
5
100
AcDbSymbolTableRecord
100
AcDbLinetypeTableRecord
  2
BYBLOCK
 70
     0
  3

 72
    65
 73
     0
 40
0.0
  0
LTYPE
  5
15
330
5
100
AcDbSymbolTableRecord
100
AcDbLinetypeTableRecord
  2
BYLAYER
 70
     0
  3

 72
    65
 73
     0
 40
0.0
  0
LTYPE
  5
16
330
5
100
AcDbSymbolTableRecord
100
AcDbLinetypeTableRecord
  2
CONTINUOUS
 70
     0
  3
Solid line
 72
    65
 73
     0
 40
0.0
  0
ENDTAB
  0
TABLE
  2
LAYER
  5
2
100
AcDbSymbolTable
 70
2
  0
LAYER
  5
50
100
AcDbSymbolTableRecord
100
AcDbLayerTableRecord
  2
0
 70
0
  6
CONTINUOUS
  0
LAYER
  5
51
100
AcDbSymbolTableRecord
100
AcDbLayerTableRecord
  2
Layer_1
 70
0
  6
CONTINUOUS
  0
ENDTAB
  0
TABLE
  2
STYLE
  5
3
330
0
100
AcDbSymbolTable
 70
     1
  0
STYLE
  5
11
330
3
100
AcDbSymbolTableRecord
100
AcDbTextStyleTableRecord
  2
STANDARD
 70
     0
 40
0.0
 41
1.0
 50
0.0
 71
     0
 42
2.5
  3
txt
  4

  0
ENDTAB
  0
TABLE
  2
VIEW
  5
6
330
0
100
AcDbSymbolTable
 70
     0
  0
ENDTAB
  0
TABLE
  2
UCS
  5
7
330
0
100
AcDbSymbolTable
 70
     0
  0
ENDTAB
  0
TABLE
  2
APPID
  5
9
330
0
100
AcDbSymbolTable
 70
     2
  0
APPID
  5
12
330
9
100
AcDbSymbolTableRecord
100
AcDbRegAppTableRecord
  2
ACAD
 70
     0
  0
ENDTAB
  0
TABLE
  2
DIMSTYLE
  5
A
330
0
100
AcDbSymbolTable
 70
     1
  0
DIMSTYLE
105
27
330
A
100
AcDbSymbolTableRecord
100
AcDbDimStyleTableRecord
  2
ISO-25
 70
     0
  3

  4

  5

  6

  7

 40
1.0
 41
2.5
 42
0.625
 43
3.75
 44
1.25
 45
0.0
 46
0.0
 47
0.0
 48
0.0
140
2.5
141
2.5
142
0.0
143
0.03937007874016
144
1.0
145
0.0
146
1.0
147
0.625
 71
     0
 72
     0
 73
     0
 74
     0
 75
     0
 76
     0
 77
     1
 78
     8
170
     0
171
     3
172
     1
173
     0
174
     0
175
     0
176
     0
177
     0
178
     0
270
     2
271
     2
272
     2
273
     2
274
     3
340
11
275
     0
280
     0
281
     0
282
     0
283
     0
284
     8
285
     0
286
     0
287
     3
288
     0
  0
ENDTAB
  0
TABLE
  2
BLOCK_RECORD
  5
1
330
0
100
AcDbSymbolTable
 70
     1
  0
BLOCK_RECORD
  5
1F
330
1
100
AcDbSymbolTableRecord
100
AcDbBlockTableRecord
  2
*MODEL_SPACE
  0
BLOCK_RECORD
  5
1B
330
1
100
AcDbSymbolTableRecord
100
AcDbBlockTableRecord
  2
*PAPER_SPACE
  0
ENDTAB
  0
ENDSEC
  0
SECTION
  2
BLOCKS
  0
BLOCK
  5
20
330
1F
100
AcDbEntity
  8
0
100
AcDbBlockBegin
  2
*MODEL_SPACE
 70
     0
 10
0.0
 20
0.0
 30
0.0
  3
*MODEL_SPACE
  1

  0
ENDBLK
  5
21
330
1F
100
AcDbEntity
  8
0
100
AcDbBlockEnd
  0
BLOCK
  5
1C
330
1B
100
AcDbEntity
 67
     1
  8
0
100
AcDbBlockBegin
  2
*PAPER_SPACE
  1

  0
ENDBLK
  5
1D
330
1B
100
AcDbEntity
 67
     1
  8
0
100
AcDbBlockEnd
  0
ENDSEC
  0
SECTION
  2
ENTITIES
  0
SPLINE
  5
100
100
AcDbEntity
  8
Layer_1
 62
7
100
AcDbSpline
 70
8
 71
3
 72
8
 73
4
 74
0
 40
0
 40
0
 40
0
 40
0
 40
1
 40
1
 40
1
 40
1
 10
0.913006
 20
2.805857
 30
0.0
 10
0.913224
 20
2.832778
 30
0.0
 10
0.840351
 20
2.820774
 30
0.0
 10
0.840050
 20
2.877410
 30
0.0
  0
LWPOLYLINE
  5
101
100
AcDbEntity
  8
Layer_1
 62
7
100
AcDbPolyline
 90
3
 70
1
 10
0.681512
 20
2.780604
 30
0.0
 10
0.913006
 20
2.780604
 30
0.0
 10
0.913006
 20
2.805857
 30
0.0
  0
SPLINE
  5
102
100
AcDbEntity
  8
Layer_1
 62
7
100
AcDbSpline
 70
8
 71
3
 72
8
 73
4
 74
0
 40
0
 40
0
 40
0
 40
0
 40
1
 40
1
 40
1
 40
1
 10
0.840050
 20
3.390904
 30
0.0
 10
0.838856
 20
3.404193
 30
0.0
 10
0.851403
 20
3.408210
 30
0.0
 10
0.856886
 20
3.389501
 30
0.0
  0
LWPOLYLINE
  5
103
100
AcDbEntity
  8
Layer_1
 62
7
100
AcDbPolyline
 90
2
 70
1
 10
0.840050
 20
2.877410
 30
0.0
 10
0.840050
 20
3.390904
 30
0.0
  0
SPLINE
  5
104
100
AcDbEntity
  8
Layer_1
 62
7
100
AcDbSpline
 70
8
 71
3
 72
8
 73
4
 74
0
 40
0
 40
0
 40
0
 40
0
 40
1
 40
1
 40
1
 40
1
 10
1.129066
 20
3.553651
 30
0.0
 10
1.127135
 20
3.590603
 30
0.0
 10
1.174129
 20
3.587972
 30
0.0
 10
1.175109
 20
3.609430
 30
0.0
  0
LWPOLYLINE
  5
105
100
AcDbEntity
  8
Layer_1
 62
7
100
AcDbPolyline
 90
4
 70
1
 10
0.856886
 20
3.389501
 30
0.0
 10
1.033663
 20
2.783410
 30
0.0
 10
1.129066
 20
2.783410
 30
0.0
 10
1.129066
 20
3.553651
 30
0.0
  0
SPLINE
  5
106
100
AcDbEntity
  8
Layer_1
 62
7
100
AcDbSpline
 70
8
 71
3
 72
8
 73
4
 74
0
 40
0
 40
0
 40
0
 40
0
 40
1
 40
1
 40
1
 40
1
 10
0.985536
 20
3.613583
 30
0.0
 10
0.984398
 20
3.596297
 30
0.0
 10
1.043353
 20
3.597777
 30
0.0
 10
1.040678
 20
3.556457
 30
0.0
  0
LWPOLYLINE
  5
107
100
AcDbEntity
  8
Layer_1
 62
7
100
AcDbPolyline
 90
4
 70
1
 10
1.175109
 20
3.609430
 30
0.0
 10
1.175054
 20
3.632218
 30
0.0
 10
0.985281
 20
3.632218
 30
0.0
 10
0.985536
 20
3.613583
 30
0.0
  0
SPLINE
  5
108
100
AcDbEntity
  8
Layer_1
 62
7
100
AcDbSpline
 70
8
 71
3
 72
8
 73
4
 74
0
 40
0
 40
0
 40
0
 40
0
 40
1
 40
1
 40
1
 40
1
 10
1.040678
 20
2.922306
 30
0.0
 10
1.040734
 20
2.910161
 30
0.0
 10
1.033944
 20
2.902315
 30
0.0
 10
1.028051
 20
2.916694
 30
0.0
  0
LWPOLYLINE
  5
109
100
AcDbEntity
  8
Layer_1
 62
7
100
AcDbPolyline
 90
2
 70
1
 10
1.040678
 20
3.556457
 30
0.0
 10
1.040678
 20
2.922306
 30
0.0
  0
SPLINE
  5
10a
100
AcDbEntity
  8
Layer_1
 62
7
100
AcDbSpline
 70
8
 71
3
 72
8
 73
4
 74
0
 40
0
 40
0
 40
0
 40
0
 40
1
 40
1
 40
1
 40
1
 10
0.689931
 20
3.553651
 30
0.0
 10
0.689931
 20
3.533451
 30
0.0
 10
0.693544
 20
3.514756
 30
0.0
 10
0.708170
 20
3.514367
 30
0.0
  0
SPLINE
  5
10b
100
AcDbEntity
  8
Layer_1
 62
7
100
AcDbSpline
 70
8
 71
3
 72
8
 73
4
 74
0
 40
0
 40
0
 40
0
 40
0
 40
1
 40
1
 40
1
 40
1
 10
0.708170
 20
3.514367
 30
0.0
 10
0.734499
 20
3.513865
 30
0.0
 10
0.755558
 20
3.506656
 30
0.0
 10
0.753065
 20
3.469472
 30
0.0
  0
LWPOLYLINE
  5
10c
100
AcDbEntity
  8
Layer_1
 62
7
100
AcDbPolyline
 90
3
 70
1
 10
1.028051
 20
2.916694
 30
0.0
 10
0.851275
 20
3.553651
 30
0.0
 10
0.689931
 20
3.553651
 30
0.0
  0
SPLINE
  5
10d
100
AcDbEntity
  8
Layer_1
 62
7
100
AcDbSpline
 70
8
 71
3
 72
8
 73
4
 74
0
 40
0
 40
0
 40
0
 40
0
 40
1
 40
1
 40
1
 40
1
 10
0.753065
 20
2.878813
 30
0.0
 10
0.753828
 20
2.833206
 30
0.0
 10
0.679471
 20
2.817300
 30
0.0
 10
0.681598
 20
2.798842
 30
0.0
  0
LWPOLYLINE
  5
10e
100
AcDbEntity
  8
Layer_1
 62
7
100
AcDbPolyline
 90
2
 70
1
 10
0.753065
 20
3.469472
 30
0.0
 10
0.753065
 20
2.878813
 30
0.0
  0
SPLINE
  5
10f
100
AcDbEntity
  8
Layer_1
 62
7
100
AcDbSpline
 70
8
 71
3
 72
8
 73
4
 74
0
 40
0
 40
0
 40
0
 40
0
 40
1
 40
1
 40
1
 40
1
 10
1.189891
 20
3.003356
 30
0.0
 10
1.187720
 20
3.011630
 30
0.0
 10
1.193612
 20
3.034490
 30
0.0
 10
1.211015
 20
3.019370
 30
0.0
  0
SPLINE
  5
110
100
AcDbEntity
  8
Layer_1
 62
7
100
AcDbSpline
 70
8
 71
3
 72
8
 73
4
 74
0
 40
0
 40
0
 40
0
 40
0
 40
1
 40
1
 40
1
 40
1
 10
1.211015
 20
3.019370
 30
0.0
 10
1.220264
 20
3.006548
 30
0.0
 10
1.224652
 20
2.991206
 30
0.0
 10
1.249209
 20
2.985888
 30
0.0
  0
SPLINE
  5
111
100
AcDbEntity
  8
Layer_1
 62
7
100
AcDbSpline
 70
8
 71
3
 72
8
 73
4
 74
0
 40
0
 40
0
 40
0
 40
0
 40
1
 40
1
 40
1
 40
1
 10
1.249209
 20
2.985888
 30
0.0
 10
1.309730
 20
2.977755
 30
0.0
 10
1.403189
 20
3.039067
 30
0.0
 10
1.480856
 20
3.081870
 30
0.0
  0
SPLINE
  5
112
100
AcDbEntity
  8
Layer_1
 62
7
100
AcDbSpline
 70
8
 71
3
 72
8
 73
4
 74
0
 40
0
 40
0
 40
0
 40
0
 40
1
 40
1
 40
1
 40
1
 10
1.480856
 20
3.081870
 30
0.0
 10
1.502351
 20
3.094681
 30
0.0
 10
1.545589
 20
3.106598
 30
0.0
 10
1.570142
 20
3.070957
 30
0.0
  0
SPLINE
  5
113
100
AcDbEntity
  8
Layer_1
 62
7
100
AcDbSpline
 70
8
 71
3
 72
8
 73
4
 74
0
 40
0
 40
0
 40
0
 40
0
 40
1
 40
1
 40
1
 40
1
 10
1.570142
 20
3.070957
 30
0.0
 10
1.612342
 20
2.997698
 30
0.0
 10
1.536241
 20
2.969306
 30
0.0
 10
1.484824
 20
2.977703
 30
0.0
  0
SPLINE
  5
114
100
AcDbEntity
  8
Layer_1
 62
7
100
AcDbSpline
 70
8
 71
3
 72
8
 73
4
 74
0
 40
0
 40
0
 40
0
 40
0
 40
1
 40
1
 40
1
 40
1
 10
1.484824
 20
2.977703
 30
0.0
 10
1.509922
 20
2.995631
 30
0.0
 10
1.524709
 20
3.026314
 30
0.0
 10
1.493724
 20
3.027256
 30
0.0
  0
SPLINE
  5
115
100
AcDbEntity
  8
Layer_1
 62
7
100
AcDbSpline
 70
8
 71
3
 72
8
 73
4
 74
0
 40
0
 40
0
 40
0
 40
0
 40
1
 40
1
 40
1
 40
1
 10
1.493724
 20
3.027256
 30
0.0
 10
1.448170
 20
3.022928
 30
0.0
 10
1.345273
 20
2.964974
 30
0.0
 10
1.266571
 20
2.958854
 30
0.0
  0
SPLINE
  5
116
100
AcDbEntity
  8
Layer_1
 62
7
100
AcDbSpline
 70
8
 71
3
 72
8
 73
4
 74
0
 40
0
 40
0
 40
0
 40
0
 40
1
 40
1
 40
1
 40
1
 10
1.266571
 20
2.958854
 30
0.0
 10
1.215105
 20
2.954828
 30
0.0
 10
1.198921
 20
2.977678
 30
0.0
 10
1.189891
 20
3.003356
 30
0.0
  0
LWPOLYLINE
  5
117
100
AcDbEntity
  8
Layer_1
 62
7
100
AcDbPolyline
 90
2
 70
1
 10
0.681598
 20
2.798842
 30
0.0
 10
0.681512
 20
2.780604
 30
0.0
  0
SPLINE
  5
118
100
AcDbEntity
  8
Layer_1
 62
7
100
AcDbSpline
 70
8
 71
3
 72
8
 73
4
 74
0
 40
0
 40
0
 40
0
 40
0
 40
1
 40
1
 40
1
 40
1
 10
1.472799
 20
3.345307
 30
0.0
 10
1.472584
 20
3.431400
 30
0.0
 10
1.421903
 20
3.494960
 30
0.0
 10
1.372279
 20
3.496745
 30
0.0
  0
SPLINE
  5
119
100
AcDbEntity
  8
Layer_1
 62
7
100
AcDbSpline
 70
8
 71
3
 72
8
 73
4
 74
0
 40
0
 40
0
 40
0
 40
0
 40
1
 40
1
 40
1
 40
1
 10
1.372279
 20
3.496745
 30
0.0
 10
1.305288
 20
3.487974
 30
0.0
 10
1.276474
 20
3.432463
 30
0.0
 10
1.267997
 20
3.335245
 30
0.0
  0
SPLINE
  5
11a
100
AcDbEntity
  8
Layer_1
 62
7
100
AcDbSpline
 70
8
 71
3
 72
8
 73
4
 74
0
 40
0
 40
0
 40
0
 40
0
 40
1
 40
1
 40
1
 40
1
 10
1.267997
 20
3.335245
 30
0.0
 10
1.264410
 20
3.246362
 30
0.0
 10
1.312366
 20
3.164973
 30
0.0
 10
1.365470
 20
3.162217
 30
0.0
  0
SPLINE
  5
11b
100
AcDbEntity
  8
Layer_1
 62
7
100
AcDbSpline
 70
8
 71
3
 72
8
 73
4
 74
0
 40
0
 40
0
 40
0
 40
0
 40
1
 40
1
 40
1
 40
1
 10
1.365470
 20
3.162217
 30
0.0
 10
1.412021
 20
3.163046
 30
0.0
 10
1.474177
 20
3.196192
 30
0.0
 10
1.470694
 20
3.313740
 30
0.0
  0
LWPOLYLINE
  5
11c
100
AcDbEntity
  8
Layer_1
 62
7
100
AcDbPolyline
 90
2
 70
1
 10
1.189891
 20
3.003356
 30
0.0
 10
1.189891
 20
3.003356
 30
0.0
  0
SPLINE
  5
11d
100
AcDbEntity
  8
Layer_1
 62
7
100
AcDbSpline
 70
8
 71
3
 72
8
 73
4
 74
0
 40
0
 40
0
 40
0
 40
0
 40
1
 40
1
 40
1
 40
1
 10
1.408963
 20
3.313740
 30
0.0
 10
1.401270
 20
3.288572
 30
0.0
 10
1.383188
 20
3.286961
 30
0.0
 10
1.369679
 20
3.286381
 30
0.0
  0
SPLINE
  5
11e
100
AcDbEntity
  8
Layer_1
 62
7
100
AcDbSpline
 70
8
 71
3
 72
8
 73
4
 74
0
 40
0
 40
0
 40
0
 40
0
 40
1
 40
1
 40
1
 40
1
 10
1.369679
 20
3.286381
 30
0.0
 10
1.340846
 20
3.287222
 30
0.0
 10
1.327402
 20
3.306706
 30
0.0
 10
1.328992
 20
3.332680
 30
0.0
  0
SPLINE
  5
11f
100
AcDbEntity
  8
Layer_1
 62
7
100
AcDbSpline
 70
8
 71
3
 72
8
 73
4
 74
0
 40
0
 40
0
 40
0
 40
0
 40
1
 40
1
 40
1
 40
1
 10
1.328992
 20
3.332680
 30
0.0
 10
1.330440
 20
3.351662
 30
0.0
 10
1.345487
 20
3.371495
 30
0.0
 10
1.371628
 20
3.370696
 30
0.0
  0
SPLINE
  5
120
100
AcDbEntity
  8
Layer_1
 62
7
100
AcDbSpline
 70
8
 71
3
 72
8
 73
4
 74
0
 40
0
 40
0
 40
0
 40
0
 40
1
 40
1
 40
1
 40
1
 10
1.371628
 20
3.370696
 30
0.0
 10
1.389852
 20
3.370380
 30
0.0
 10
1.406463
 20
3.355727
 30
0.0
 10
1.409664
 20
3.343904
 30
0.0
  0
LWPOLYLINE
  5
121
100
AcDbEntity
  8
Layer_1
 62
7
100
AcDbPolyline
 90
2
 70
1
 10
1.470694
 20
3.313740
 30
0.0
 10
1.408963
 20
3.313740
 30
0.0
  0
SPLINE
  5
122
100
AcDbEntity
  8
Layer_1
 62
7
100
AcDbSpline
 70
8
 71
3
 72
8
 73
4
 74
0
 40
0
 40
0
 40
0
 40
0
 40
1
 40
1
 40
1
 40
1
 10
1.783436
 20
3.024330
 30
0.0
 10
1.854431
 20
2.981530
 30
0.0
 10
1.841811
 20
2.889047
 30
0.0
 10
1.783436
 20
2.889409
 30
0.0
  0
SPLINE
  5
123
100
AcDbEntity
  8
Layer_1
 62
7
100
AcDbSpline
 70
8
 71
3
 72
8
 73
4
 74
0
 40
0
 40
0
 40
0
 40
0
 40
1
 40
1
 40
1
 40
1
 10
1.783436
 20
2.889409
 30
0.0
 10
1.737607
 20
2.891017
 30
0.0
 10
1.721910
 20
2.940361
 30
0.0
 10
1.721928
 20
2.972743
 30
0.0
  0
LWPOLYLINE
  5
124
100
AcDbEntity
  8
Layer_1
 62
7
100
AcDbPolyline
 90
2
 70
1
 10
1.409664
 20
3.343904
 30
0.0
 10
1.472799
 20
3.345307
 30
0.0
  0
SPLINE
  5
125
100
AcDbEntity
  8
Layer_1
 62
7
100
AcDbSpline
 70
8
 71
3
 72
8
 73
4
 74
0
 40
0
 40
0
 40
0
 40
0
 40
1
 40
1
 40
1
 40
1
 10
1.573118
 20
3.527306
 30
0.0
 10
1.573589
 20
3.502367
 30
0.0
 10
1.625267
 20
3.522540
 30
0.0
 10
1.624705
 20
3.472743
 30
0.0
  0
LWPOLYLINE
  5
126
100
AcDbEntity
  8
Layer_1
 62
7
100
AcDbPolyline
 90
8
 70
1
 10
1.721928
 20
2.972743
 30
0.0
 10
1.721928
 20
3.314013
 30
0.0
 10
1.902483
 20
3.314013
 30
0.0
 10
1.902483
 20
3.349727
 30
0.0
 10
1.721928
 20
3.349727
 30
0.0
 10
1.721928
 20
3.550124
 30
0.0
 10
1.573118
 20
3.550124
 30
0.0
 10
1.573118
 20
3.527306
 30
0.0
  0
SPLINE
  5
127
100
AcDbEntity
  8
Layer_1
 62
7
100
AcDbSpline
 70
8
 71
3
 72
8
 73
4
 74
0
 40
0
 40
0
 40
0
 40
0
 40
1
 40
1
 40
1
 40
1
 10
1.543356
 20
3.349727
 30
0.0
 10
1.540244
 20
3.441948
 30
0.0
 10
1.491438
 20
3.554073
 30
0.0
 10
1.370737
 20
3.556076
 30
0.0
  0
SPLINE
  5
128
100
AcDbEntity
  8
Layer_1
 62
7
100
AcDbSpline
 70
8
 71
3
 72
8
 73
4
 74
0
 40
0
 40
0
 40
0
 40
0
 40
1
 40
1
 40
1
 40
1
 10
1.370737
 20
3.556076
 30
0.0
 10
1.247954
 20
3.545791
 30
0.0
 10
1.202641
 20
3.439311
 30
0.0
 10
1.191670
 20
3.332366
 30
0.0
  0
SPLINE
  5
129
100
AcDbEntity
  8
Layer_1
 62
7
100
AcDbSpline
 70
8
 71
3
 72
8
 73
4
 74
0
 40
0
 40
0
 40
0
 40
0
 40
1
 40
1
 40
1
 40
1
 10
1.191670
 20
3.332366
 30
0.0
 10
1.191865
 20
3.199219
 30
0.0
 10
1.255696
 20
3.113082
 30
0.0
 10
1.356848
 20
3.097247
 30
0.0
  0
SPLINE
  5
12a
100
AcDbEntity
  8
Layer_1
 62
7
100
AcDbSpline
 70
8
 71
3
 72
8
 73
4
 74
0
 40
0
 40
0
 40
0
 40
0
 40
1
 40
1
 40
1
 40
1
 10
1.356848
 20
3.097247
 30
0.0
 10
1.475431
 20
3.100203
 30
0.0
 10
1.548645
 20
3.196842
 30
0.0
 10
1.547324
 20
3.314013
 30
0.0
  0
LWPOLYLINE
  5
12b
100
AcDbEntity
  8
Layer_1
 62
7
100
AcDbPolyline
 90
3
 70
1
 10
1.624705
 20
3.472743
 30
0.0
 10
1.624705
 20
3.349727
 30
0.0
 10
1.543356
 20
3.349727
 30
0.0
  0
SPLINE
  5
12c
100
AcDbEntity
  8
Layer_1
 62
7
100
AcDbSpline
 70
8
 71
3
 72
8
 73
4
 74
0
 40
0
 40
0
 40
0
 40
0
 40
1
 40
1
 40
1
 40
1
 10
1.610817
 20
3.314013
 30
0.0
 10
1.623722
 20
3.312189
 30
0.0
 10
1.632249
 20
3.305191
 30
0.0
 10
1.630658
 20
3.286235
 30
0.0
  0
LWPOLYLINE
  5
12d
100
AcDbEntity
  8
Layer_1
 62
7
100
AcDbPolyline
 90
2
 70
1
 10
1.547324
 20
3.314013
 30
0.0
 10
1.610817
 20
3.314013
 30
0.0
  0
SPLINE
  5
12e
100
AcDbEntity
  8
Layer_1
 62
7
100
AcDbSpline
 70
8
 71
3
 72
8
 73
4
 74
0
 40
0
 40
0
 40
0
 40
0
 40
1
 40
1
 40
1
 40
1
 10
1.630658
 20
2.983300
 30
0.0
 10
1.629952
 20
2.908080
 30
0.0
 10
1.681256
 20
2.821537
 30
0.0
 10
1.764586
 20
2.823933
 30
0.0
  0
SPLINE
  5
12f
100
AcDbEntity
  8
Layer_1
 62
7
100
AcDbSpline
 70
8
 71
3
 72
8
 73
4
 74
0
 40
0
 40
0
 40
0
 40
0
 40
1
 40
1
 40
1
 40
1
 10
1.764586
 20
2.823933
 30
0.0
 10
1.843734
 20
2.819938
 30
0.0
 10
1.921613
 20
2.858458
 30
0.0
 10
1.928277
 20
2.952902
 30
0.0
  0
SPLINE
  5
130
100
AcDbEntity
  8
Layer_1
 62
7
100
AcDbSpline
 70
8
 71
3
 72
8
 73
4
 74
0
 40
0
 40
0
 40
0
 40
0
 40
1
 40
1
 40
1
 40
1
 10
1.928277
 20
2.952902
 30
0.0
 10
1.918224
 20
3.082698
 30
0.0
 10
1.816459
 20
3.076807
 30
0.0
 10
1.783436
 20
3.024330
 30
0.0
  0
LWPOLYLINE
  5
131
100
AcDbEntity
  8
Layer_1
 62
7
100
AcDbPolyline
 90
2
 70
1
 10
1.630658
 20
3.286235
 30
0.0
 10
1.630658
 20
2.983300
 30
0.0
  0
LWPOLYLINE
  5
132
100
AcDbEntity
  8
Layer_1
 62
7
100
AcDbPolyline
 90
2
 70
1
 10
1.783436
 20
3.024330
 30
0.0
 10
1.783436
 20
3.024330
 30
0.0
  0
SPLINE
  5
133
100
AcDbEntity
  8
Layer_1
 62
7
100
AcDbSpline
 70
8
 71
3
 72
8
 73
4
 74
0
 40
0
 40
0
 40
0
 40
0
 40
1
 40
1
 40
1
 40
1
 10
2.527493
 20
3.643387
 30
0.0
 10
2.582212
 20
3.638583
 30
0.0
 10
2.621910
 20
3.618770
 30
0.0
 10
2.618747
 20
3.556083
 30
0.0
  0
LWPOLYLINE
  5
134
100
AcDbEntity
  8
Layer_1
 62
7
100
AcDbPolyline
 90
2
 70
1
 10
2.527493
 20
3.677111
 30
0.0
 10
2.527493
 20
3.643387
 30
0.0
  0
SPLINE
  5
135
100
AcDbEntity
  8
Layer_1
 62
7
100
AcDbSpline
 70
8
 71
3
 72
8
 73
4
 74
0
 40
0
 40
0
 40
0
 40
0
 40
1
 40
1
 40
1
 40
1
 10
2.618747
 20
2.901308
 30
0.0
 10
2.617722
 20
2.800797
 30
0.0
 10
2.505686
 20
2.802720
 30
0.0
 10
2.497718
 20
2.891391
 30
0.0
  0
LWPOLYLINE
  5
136
100
AcDbEntity
  8
Layer_1
 62
7
100
AcDbPolyline
 90
2
 70
1
 10
2.618747
 20
3.556083
 30
0.0
 10
2.618747
 20
2.901308
 30
0.0
  0
SPLINE
  5
137
100
AcDbEntity
  8
Layer_1
 62
7
100
AcDbSpline
 70
8
 71
3
 72
8
 73
4
 74
0
 40
0
 40
0
 40
0
 40
0
 40
1
 40
1
 40
1
 40
1
 10
2.497718
 20
3.384446
 30
0.0
 10
2.498196
 20
3.525870
 30
0.0
 10
2.409119
 20
3.589420
 30
0.0
 10
2.315188
 20
3.589807
 30
0.0
  0
SPLINE
  5
138
100
AcDbEntity
  8
Layer_1
 62
7
100
AcDbSpline
 70
8
 71
3
 72
8
 73
4
 74
0
 40
0
 40
0
 40
0
 40
0
 40
1
 40
1
 40
1
 40
1
 10
2.315188
 20
3.589807
 30
0.0
 10
2.224430
 20
3.590505
 30
0.0
 10
2.142409
 20
3.512540
 30
0.0
 10
2.126690
 20
3.427111
 30
0.0
  0
SPLINE
  5
139
100
AcDbEntity
  8
Layer_1
 62
7
100
AcDbSpline
 70
8
 71
3
 72
8
 73
4
 74
0
 40
0
 40
0
 40
0
 40
0
 40
1
 40
1
 40
1
 40
1
 10
2.126690
 20
3.427111
 30
0.0
 10
2.119892
 20
3.396279
 30
0.0
 10
2.067116
 20
3.401239
 30
0.0
 10
2.096937
 20
3.375527
 30
0.0
  0
LWPOLYLINE
  5
13a
100
AcDbEntity
  8
Layer_1
 62
7
100
AcDbPolyline
 90
2
 70
1
 10
2.497718
 20
2.891391
 30
0.0
 10
2.497718
 20
3.384446
 30
0.0
  0
SPLINE
  5
13b
100
AcDbEntity
  8
Layer_1
 62
7
100
AcDbSpline
 70
8
 71
3
 72
8
 73
4
 74
0
 40
0
 40
0
 40
0
 40
0
 40
1
 40
1
 40
1
 40
1
 10
2.184220
 20
3.375527
 30
0.0
 10
2.184683
 20
3.464405
 30
0.0
 10
2.225513
 20
3.525121
 30
0.0
 10
2.313191
 20
3.525332
 30
0.0
  0
SPLINE
  5
13c
100
AcDbEntity
  8
Layer_1
 62
7
100
AcDbSpline
 70
8
 71
3
 72
8
 73
4
 74
0
 40
0
 40
0
 40
0
 40
0
 40
1
 40
1
 40
1
 40
1
 10
2.313191
 20
3.525332
 30
0.0
 10
2.360440
 20
3.523351
 30
0.0
 10
2.411311
 20
3.484802
 30
0.0
 10
2.412410
 20
3.411226
 30
0.0
  0
LWPOLYLINE
  5
13d
100
AcDbEntity
  8
Layer_1
 62
7
100
AcDbPolyline
 90
2
 70
1
 10
2.096937
 20
3.375527
 30
0.0
 10
2.184220
 20
3.375527
 30
0.0
  0
SPLINE
  5
13e
100
AcDbEntity
  8
Layer_1
 62
7
100
AcDbSpline
 70
8
 71
3
 72
8
 73
4
 74
0
 40
0
 40
0
 40
0
 40
0
 40
1
 40
1
 40
1
 40
1
 10
2.412410
 20
3.204889
 30
0.0
 10
2.359257
 20
3.274502
 30
0.0
 10
2.316396
 20
3.276335
 30
0.0
 10
2.278968
 20
3.277806
 30
0.0
  0
SPLINE
  5
13f
100
AcDbEntity
  8
Layer_1
 62
7
100
AcDbSpline
 70
8
 71
3
 72
8
 73
4
 74
0
 40
0
 40
0
 40
0
 40
0
 40
1
 40
1
 40
1
 40
1
 10
2.278968
 20
3.277806
 30
0.0
 10
2.123512
 20
3.263440
 30
0.0
 10
2.076961
 20
3.132490
 30
0.0
 10
2.057245
 20
3.006473
 30
0.0
  0
SPLINE
  5
140
100
AcDbEntity
  8
Layer_1
 62
7
100
AcDbSpline
 70
8
 71
3
 72
8
 73
4
 74
0
 40
0
 40
0
 40
0
 40
0
 40
1
 40
1
 40
1
 40
1
 10
2.057245
 20
3.006473
 30
0.0
 10
2.043565
 20
2.855512
 30
0.0
 10
2.130797
 20
2.739629
 30
0.0
 10
2.238799
 20
2.733665
 30
0.0
  0
SPLINE
  5
141
100
AcDbEntity
  8
Layer_1
 62
7
100
AcDbSpline
 70
8
 71
3
 72
8
 73
4
 74
0
 40
0
 40
0
 40
0
 40
0
 40
1
 40
1
 40
1
 40
1
 10
2.238799
 20
2.733665
 30
0.0
 10
2.321948
 20
2.730581
 30
0.0
 10
2.383324
 20
2.771979
 30
0.0
 10
2.416381
 20
2.837832
 30
0.0
  0
SPLINE
  5
142
100
AcDbEntity
  8
Layer_1
 62
7
100
AcDbSpline
 70
8
 71
3
 72
8
 73
4
 74
0
 40
0
 40
0
 40
0
 40
0
 40
1
 40
1
 40
1
 40
1
 10
2.416381
 20
2.837832
 30
0.0
 10
2.429411
 20
2.811093
 30
0.0
 10
2.432781
 20
2.767396
 30
0.0
 10
2.500192
 20
2.768387
 30
0.0
  0
LWPOLYLINE
  5
143
100
AcDbEntity
  8
Layer_1
 62
7
100
AcDbPolyline
 90
2
 70
1
 10
2.412410
 20
3.411226
 30
0.0
 10
2.412410
 20
3.204889
 30
0.0
  0
SPLINE
  5
144
100
AcDbEntity
  8
Layer_1
 62
7
100
AcDbSpline
 70
8
 71
3
 72
8
 73
4
 74
0
 40
0
 40
0
 40
0
 40
0
 40
1
 40
1
 40
1
 40
1
 10
3.249715
 20
3.026308
 30
0.0
 10
3.238081
 20
3.053864
 30
0.0
 10
3.236107
 20
2.995780
 30
0.0
 10
3.206052
 20
2.996556
 30
0.0
  0
LWPOLYLINE
  5
145
100
AcDbEntity
  8
Layer_1
 62
7
100
AcDbPolyline
 90
5
 70
1
 10
2.500192
 20
2.768387
 30
0.0
 10
3.124715
 20
2.768387
 30
0.0
 10
3.124715
 20
2.942975
 30
0.0
 10
3.249715
 20
2.942975
 30
0.0
 10
3.249715
 20
3.026308
 30
0.0
  0
SPLINE
  5
146
100
AcDbEntity
  8
Layer_1
 62
7
100
AcDbSpline
 70
8
 71
3
 72
8
 73
4
 74
0
 40
0
 40
0
 40
0
 40
0
 40
1
 40
1
 40
1
 40
1
 10
2.973912
 20
3.524334
 30
0.0
 10
2.972589
 20
3.554757
 30
0.0
 10
2.988456
 20
3.572602
 30
0.0
 10
3.021525
 20
3.577893
 30
0.0
  0
LWPOLYLINE
  5
147
100
AcDbEntity
  8
Layer_1
 62
7
100
AcDbPolyline
 90
3
 70
1
 10
3.206052
 20
2.996556
 30
0.0
 10
2.973912
 20
2.996556
 30
0.0
 10
2.973912
 20
3.524334
 30
0.0
  0
SPLINE
  5
148
100
AcDbEntity
  8
Layer_1
 62
7
100
AcDbSpline
 70
8
 71
3
 72
8
 73
4
 74
0
 40
0
 40
0
 40
0
 40
0
 40
1
 40
1
 40
1
 40
1
 10
2.842966
 20
3.581864
 30
0.0
 10
2.871507
 20
3.579322
 30
0.0
 10
2.895466
 20
3.569375
 30
0.0
 10
2.896525
 20
3.522337
 30
0.0
  0
LWPOLYLINE
  5
149
100
AcDbEntity
  8
Layer_1
 62
7
100
AcDbPolyline
 90
4
 70
1
 10
3.021525
 20
3.577893
 30
0.0
 10
3.021525
 20
3.599724
 30
0.0
 10
2.842966
 20
3.599724
 30
0.0
 10
2.842966
 20
3.581864
 30
0.0
  0
SPLINE
  5
14a
100
AcDbEntity
  8
Layer_1
 62
7
100
AcDbSpline
 70
8
 71
3
 72
8
 73
4
 74
0
 40
0
 40
0
 40
0
 40
0
 40
1
 40
1
 40
1
 40
1
 10
3.082050
 20
2.866586
 30
0.0
 10
3.083919
 20
2.846860
 30
0.0
 10
3.074620
 20
2.838314
 30
0.0
 10
3.055270
 20
2.839807
 30
0.0
  0
LWPOLYLINE
  5
14b
100
AcDbEntity
  8
Layer_1
 62
7
100
AcDbPolyline
 90
4
 70
1
 10
2.896525
 20
3.522337
 30
0.0
 10
2.896525
 20
2.944972
 30
0.0
 10
3.082050
 20
2.944972
 30
0.0
 10
3.082050
 20
2.866586
 30
0.0
  0
SPLINE
  5
14c
100
AcDbEntity
  8
Layer_1
 62
7
100
AcDbSpline
 70
8
 71
3
 72
8
 73
4
 74
0
 40
0
 40
0
 40
0
 40
0
 40
1
 40
1
 40
1
 40
1
 10
2.713994
 20
3.506473
 30
0.0
 10
2.711013
 20
3.566329
 30
0.0
 10
2.720759
 20
3.622188
 30
0.0
 10
2.809220
 20
3.653305
 30
0.0
  0
LWPOLYLINE
  5
14d
100
AcDbEntity
  8
Layer_1
 62
7
100
AcDbPolyline
 90
3
 70
1
 10
3.055270
 20
2.839807
 30
0.0
 10
2.713994
 20
2.839807
 30
0.0
 10
2.713994
 20
3.506473
 30
0.0
  0
SPLINE
  5
14e
100
AcDbEntity
  8
Layer_1
 62
7
100
AcDbSpline
 70
8
 71
3
 72
8
 73
4
 74
0
 40
0
 40
0
 40
0
 40
0
 40
1
 40
1
 40
1
 40
1
 10
2.289385
 20
3.187094
 30
0.0
 10
2.312217
 20
3.187094
 30
0.0
 10
2.333426
 20
3.175496
 30
0.0
 10
2.351017
 20
3.155627
 30
0.0
  0
SPLINE
  5
14f
100
AcDbEntity
  8
Layer_1
 62
7
100
AcDbSpline
 70
8
 71
3
 72
8
 73
4
 74
0
 40
0
 40
0
 40
0
 40
0
 40
1
 40
1
 40
1
 40
1
 10
2.351017
 20
3.155627
 30
0.0
 10
2.380310
 20
3.122540
 30
0.0
 10
2.399563
 20
3.066525
 30
0.0
 10
2.399563
 20
3.003001
 30
0.0
  0
SPLINE
  5
150
100
AcDbEntity
  8
Layer_1
 62
7
100
AcDbSpline
 70
8
 71
3
 72
8
 73
4
 74
0
 40
0
 40
0
 40
0
 40
0
 40
1
 40
1
 40
1
 40
1
 10
2.399563
 20
3.003001
 30
0.0
 10
2.399563
 20
2.901330
 30
0.0
 10
2.350238
 20
2.818908
 30
0.0
 10
2.289385
 20
2.818908
 30
0.0
  0
SPLINE
  5
151
100
AcDbEntity
  8
Layer_1
 62
7
100
AcDbSpline
 70
8
 71
3
 72
8
 73
4
 74
0
 40
0
 40
0
 40
0
 40
0
 40
1
 40
1
 40
1
 40
1
 10
2.289385
 20
2.818908
 30
0.0
 10
2.228532
 20
2.818908
 30
0.0
 10
2.179207
 20
2.901330
 30
0.0
 10
2.179207
 20
3.003001
 30
0.0
  0
SPLINE
  5
152
100
AcDbEntity
  8
Layer_1
 62
7
100
AcDbSpline
 70
8
 71
3
 72
8
 73
4
 74
0
 40
0
 40
0
 40
0
 40
0
 40
1
 40
1
 40
1
 40
1
 10
2.179207
 20
3.003001
 30
0.0
 10
2.179207
 20
3.104673
 30
0.0
 10
2.228532
 20
3.187094
 30
0.0
 10
2.289385
 20
3.187094
 30
0.0
  0
LWPOLYLINE
  5
153
100
AcDbEntity
  8
Layer_1
 62
7
100
AcDbPolyline
 90
4
 70
1
 10
2.809220
 20
3.653305
 30
0.0
 10
2.809220
 20
3.677111
 30
0.0
 10
2.527493
 20
3.677111
 30
0.0
 10
2.527493
 20
3.677111
 30
0.0
  0
SPLINE
  5
154
100
AcDbEntity
  8
Layer_1
 62
7
100
AcDbSpline
 70
8
 71
3
 72
8
 73
4
 74
0
 40
0
 40
0
 40
0
 40
0
 40
1
 40
1
 40
1
 40
1
 10
0.583039
 20
2.292187
 30
0.0
 10
0.501103
 20
2.467585
 30
0.0
 10
0.366353
 20
2.278778
 30
0.0
 10
0.412404
 20
2.097743
 30
0.0
  0
SPLINE
  5
155
100
AcDbEntity
  8
Layer_1
 62
7
100
AcDbSpline
 70
8
 71
3
 72
8
 73
4
 74
0
 40
0
 40
0
 40
0
 40
0
 40
1
 40
1
 40
1
 40
1
 10
0.412404
 20
2.097743
 30
0.0
 10
0.444854
 20
1.938982
 30
0.0
 10
0.518421
 20
1.808255
 30
0.0
 10
0.608832
 20
1.689013
 30
0.0
  0
LWPOLYLINE
  5
156
100
AcDbEntity
  8
Layer_1
 62
7
100
AcDbPolyline
 90
2
 70
1
 10
2.289385
 20
3.187094
 30
0.0
 10
2.289385
 20
3.187094
 30
0.0
  0
SPLINE
  5
157
100
AcDbEntity
  8
Layer_1
 62
7
100
AcDbSpline
 70
8
 71
3
 72
8
 73
4
 74
0
 40
0
 40
0
 40
0
 40
0
 40
1
 40
1
 40
1
 40
1
 10
0.962007
 20
2.046156
 30
0.0
 10
0.967545
 20
2.071043
 30
0.0
 10
0.965872
 20
2.086404
 30
0.0
 10
0.938694
 20
2.094271
 30
0.0
  0
SPLINE
  5
158
100
AcDbEntity
  8
Layer_1
 62
7
100
AcDbSpline
 70
8
 71
3
 72
8
 73
4
 74
0
 40
0
 40
0
 40
0
 40
0
 40
1
 40
1
 40
1
 40
1
 10
0.938694
 20
2.094271
 30
0.0
 10
0.919721
 20
2.099390
 30
0.0
 10
0.923514
 20
2.112596
 30
0.0
 10
0.938197
 20
2.117584
 30
0.0
  0
LWPOLYLINE
  5
159
100
AcDbEntity
  8
Layer_1
 62
7
100
AcDbPolyline
 90
5
 70
1
 10
0.608832
 20
1.689013
 30
0.0
 10
0.670340
 20
2.028298
 30
0.0
 10
0.769547
 20
2.052108
 30
0.0
 10
0.884626
 20
1.696949
 30
0.0
 10
0.962007
 20
2.046156
 30
0.0
  0
SPLINE
  5
15a
100
AcDbEntity
  8
Layer_1
 62
7
100
AcDbSpline
 70
8
 71
3
 72
8
 73
4
 74
0
 40
0
 40
0
 40
0
 40
0
 40
1
 40
1
 40
1
 40
1
 10
1.063197
 20
2.145362
 30
0.0
 10
1.070858
 20
2.104357
 30
0.0
 10
1.015615
 20
2.109482
 30
0.0
 10
1.005657
 20
2.058060
 30
0.0
  0
LWPOLYLINE
  5
15b
100
AcDbEntity
  8
Layer_1
 62
7
100
AcDbPolyline
 90
2
 70
1
 10
0.938197
 20
2.117584
 30
0.0
 10
1.063197
 20
2.145362
 30
0.0
  0
SPLINE
  5
15c
100
AcDbEntity
  8
Layer_1
 62
7
100
AcDbSpline
 70
8
 71
3
 72
8
 73
4
 74
0
 40
0
 40
0
 40
0
 40
0
 40
1
 40
1
 40
1
 40
1
 10
0.721927
 20
1.895362
 30
0.0
 10
0.717815
 20
1.910042
 30
0.0
 10
0.706624
 20
1.926886
 30
0.0
 10
0.702086
 20
1.905282
 30
0.0
  0
LWPOLYLINE
  5
15d
100
AcDbEntity
  8
Layer_1
 62
7
100
AcDbPolyline
 90
4
 70
1
 10
1.005657
 20
2.058060
 30
0.0
 10
0.896530
 20
1.558060
 30
0.0
 10
0.831054
 20
1.542187
 30
0.0
 10
0.721927
 20
1.895362
 30
0.0
  0
SPLINE
  5
15e
100
AcDbEntity
  8
Layer_1
 62
7
100
AcDbSpline
 70
8
 71
3
 72
8
 73
4
 74
0
 40
0
 40
0
 40
0
 40
0
 40
1
 40
1
 40
1
 40
1
 10
0.569149
 20
1.504489
 30
0.0
 10
0.468649
 20
1.656726
 30
0.0
 10
0.386912
 20
1.853704
 30
0.0
 10
0.354864
 20
2.169171
 30
0.0
  0
SPLINE
  5
15f
100
AcDbEntity
  8
Layer_1
 62
7
100
AcDbSpline
 70
8
 71
3
 72
8
 73
4
 74
0
 40
0
 40
0
 40
0
 40
0
 40
1
 40
1
 40
1
 40
1
 10
0.354864
 20
2.169171
 30
0.0
 10
0.360371
 20
2.315521
 30
0.0
 10
0.393757
 20
2.479175
 30
0.0
 10
0.548607
 20
2.482302
 30
0.0
  0
SPLINE
  5
160
100
AcDbEntity
  8
Layer_1
 62
7
100
AcDbSpline
 70
8
 71
3
 72
8
 73
4
 74
0
 40
0
 40
0
 40
0
 40
0
 40
1
 40
1
 40
1
 40
1
 10
0.548607
 20
2.482302
 30
0.0
 10
0.665844
 20
2.475322
 30
0.0
 10
0.690935
 20
2.352940
 30
0.0
 10
0.583038
 20
2.292187
 30
0.0
  0
LWPOLYLINE
  5
161
100
AcDbEntity
  8
Layer_1
 62
7
100
AcDbPolyline
 90
3
 70
1
 10
0.702086
 20
1.905282
 30
0.0
 10
0.630657
 20
1.512425
 30
0.0
 10
0.569149
 20
1.504489
 30
0.0
  0
SPLINE
  5
162
100
AcDbEntity
  8
Layer_1
 62
7
100
AcDbSpline
 70
8
 71
3
 72
8
 73
4
 74
0
 40
0
 40
0
 40
0
 40
0
 40
1
 40
1
 40
1
 40
1
 10
1.214778
 20
2.094221
 30
0.0
 10
1.219169
 20
2.109038
 30
0.0
 10
1.225977
 20
2.107952
 30
0.0
 10
1.230651
 20
2.098189
 30
0.0
  0
LWPOLYLINE
  5
163
100
AcDbEntity
  8
Layer_1
 62
7
100
AcDbPolyline
 90
2
 70
1
 10
0.583038
 20
2.292187
 30
0.0
 10
0.583039
 20
2.292187
 30
0.0
  0
SPLINE
  5
164
100
AcDbEntity
  8
Layer_1
 62
7
100
AcDbSpline
 70
8
 71
3
 72
8
 73
4
 74
0
 40
0
 40
0
 40
0
 40
0
 40
1
 40
1
 40
1
 40
1
 10
1.278971
 20
1.973239
 30
0.0
 10
1.287923
 20
1.950280
 30
0.0
 10
1.284268
 20
1.936777
 30
0.0
 10
1.277483
 20
1.925620
 30
0.0
  0
LWPOLYLINE
  5
165
100
AcDbEntity
  8
Layer_1
 62
7
100
AcDbPolyline
 90
2
 70
1
 10
1.230651
 20
2.098189
 30
0.0
 10
1.278971
 20
1.973239
 30
0.0
  0
SPLINE
  5
166
100
AcDbEntity
  8
Layer_1
 62
7
100
AcDbSpline
 70
8
 71
3
 72
8
 73
4
 74
0
 40
0
 40
0
 40
0
 40
0
 40
1
 40
1
 40
1
 40
1
 10
1.178964
 20
1.854312
 30
0.0
 10
1.163737
 20
1.852687
 30
0.0
 10
1.150283
 20
1.855802
 30
0.0
 10
1.157444
 20
1.879489
 30
0.0
  0
LWPOLYLINE
  5
167
100
AcDbEntity
  8
Layer_1
 62
7
100
AcDbPolyline
 90
2
 70
1
 10
1.277483
 20
1.925620
 30
0.0
 10
1.178964
 20
1.854312
 30
0.0
  0
SPLINE
  5
168
100
AcDbEntity
  8
Layer_1
 62
7
100
AcDbSpline
 70
8
 71
3
 72
8
 73
4
 74
0
 40
0
 40
0
 40
0
 40
0
 40
1
 40
1
 40
1
 40
1
 10
2.011547
 20
1.889705
 30
0.0
 10
2.053312
 20
1.882624
 30
0.0
 10
2.083829
 20
1.870253
 30
0.0
 10
2.087308
 20
1.810436
 30
0.0
  0
SPLINE
  5
169
100
AcDbEntity
  8
Layer_1
 62
7
100
AcDbSpline
 70
8
 71
3
 72
8
 73
4
 74
0
 40
0
 40
0
 40
0
 40
0
 40
1
 40
1
 40
1
 40
1
 10
2.087308
 20
1.810436
 30
0.0
 10
2.089635
 20
1.732478
 30
0.0
 10
2.042632
 20
1.705174
 30
0.0
 10
1.983487
 20
1.707317
 30
0.0
  0
SPLINE
  5
16a
100
AcDbEntity
  8
Layer_1
 62
7
100
AcDbSpline
 70
8
 71
3
 72
8
 73
4
 74
0
 40
0
 40
0
 40
0
 40
0
 40
1
 40
1
 40
1
 40
1
 10
1.983487
 20
1.707317
 30
0.0
 10
1.907147
 20
1.706378
 30
0.0
 10
1.882895
 20
1.758495
 30
0.0
 10
1.888084
 20
1.840601
 30
0.0
  0
LWPOLYLINE
  5
16b
100
AcDbEntity
  8
Layer_1
 62
7
100
AcDbPolyline
 90
2
 70
1
 10
1.157444
 20
1.879489
 30
0.0
 10
1.214778
 20
2.094221
 30
0.0
  0
SPLINE
  5
16c
100
AcDbEntity
  8
Layer_1
 62
7
100
AcDbSpline
 70
8
 71
3
 72
8
 73
4
 74
0
 40
0
 40
0
 40
0
 40
0
 40
1
 40
1
 40
1
 40
1
 10
1.942800
 20
2.213796
 30
0.0
 10
1.955537
 20
2.330241
 30
0.0
 10
1.887905
 20
2.380185
 30
0.0
 10
1.810919
 20
2.384259
 30
0.0
  0
SPLINE
  5
16d
100
AcDbEntity
  8
Layer_1
 62
7
100
AcDbSpline
 70
8
 71
3
 72
8
 73
4
 74
0
 40
0
 40
0
 40
0
 40
0
 40
1
 40
1
 40
1
 40
1
 10
1.810919
 20
2.384259
 30
0.0
 10
1.735216
 20
2.390836
 30
0.0
 10
1.649558
 20
2.317708
 30
0.0
 10
1.599068
 20
2.254482
 30
0.0
  0
SPLINE
  5
16e
100
AcDbEntity
  8
Layer_1
 62
7
100
AcDbSpline
 70
8
 71
3
 72
8
 73
4
 74
0
 40
0
 40
0
 40
0
 40
0
 40
1
 40
1
 40
1
 40
1
 10
1.599068
 20
2.254482
 30
0.0
 10
1.583194
 20
2.262798
 30
0.0
 10
1.576650
 20
2.281775
 30
0.0
 10
1.573814
 20
2.304990
 30
0.0
  0
SPLINE
  5
16f
100
AcDbEntity
  8
Layer_1
 62
7
100
AcDbSpline
 70
8
 71
3
 72
8
 73
4
 74
0
 40
0
 40
0
 40
0
 40
0
 40
1
 40
1
 40
1
 40
1
 10
1.573814
 20
2.304990
 30
0.0
 10
1.533862
 20
2.276863
 30
0.0
 10
1.500831
 20
2.283340
 30
0.0
 10
1.464381
 20
2.272721
 30
0.0
  0
SPLINE
  5
170
100
AcDbEntity
  8
Layer_1
 62
7
100
AcDbSpline
 70
8
 71
3
 72
8
 73
4
 74
0
 40
0
 40
0
 40
0
 40
0
 40
1
 40
1
 40
1
 40
1
 10
1.464381
 20
2.272721
 30
0.0
 10
1.453110
 20
2.225958
 30
0.0
 10
1.530087
 20
2.245597
 30
0.0
 10
1.513485
 20
2.185736
 30
0.0
  0
LWPOLYLINE
  5
171
100
AcDbEntity
  8
Layer_1
 62
7
100
AcDbPolyline
 90
2
 70
1
 10
1.888084
 20
1.840601
 30
0.0
 10
1.942800
 20
2.213796
 30
0.0
  0
SPLINE
  5
172
100
AcDbEntity
  8
Layer_1
 62
7
100
AcDbSpline
 70
8
 71
3
 72
8
 73
4
 74
0
 40
0
 40
0
 40
0
 40
0
 40
1
 40
1
 40
1
 40
1
 10
1.526112
 20
1.760630
 30
0.0
 10
1.524995
 20
1.695354
 30
0.0
 10
1.460993
 20
1.681035
 30
0.0
 10
1.440530
 20
1.733973
 30
0.0
  0
LWPOLYLINE
  5
173
100
AcDbEntity
  8
Layer_1
 62
7
100
AcDbPolyline
 90
2
 70
1
 10
1.513485
 20
2.185736
 30
0.0
 10
1.526112
 20
1.760630
 30
0.0
  0
SPLINE
  5
174
100
AcDbEntity
  8
Layer_1
 62
7
100
AcDbSpline
 70
8
 71
3
 72
8
 73
4
 74
0
 40
0
 40
0
 40
0
 40
0
 40
1
 40
1
 40
1
 40
1
 10
1.353544
 20
1.958452
 30
0.0
 10
1.354163
 20
1.971079
 30
0.0
 10
1.361227
 20
1.992191
 30
0.0
 10
1.375285
 20
2.002446
 30
0.0
  0
SPLINE
  5
175
100
AcDbEntity
  8
Layer_1
 62
7
100
AcDbSpline
 70
8
 71
3
 72
8
 73
4
 74
0
 40
0
 40
0
 40
0
 40
0
 40
1
 40
1
 40
1
 40
1
 10
1.375285
 20
2.002446
 30
0.0
 10
1.398314
 20
2.019244
 30
0.0
 10
1.430929
 20
2.016096
 30
0.0
 10
1.416679
 20
1.966870
 30
0.0
  0
SPLINE
  5
176
100
AcDbEntity
  8
Layer_1
 62
7
100
AcDbSpline
 70
8
 71
3
 72
8
 73
4
 74
0
 40
0
 40
0
 40
0
 40
0
 40
1
 40
1
 40
1
 40
1
 10
1.416679
 20
1.966870
 30
0.0
 10
1.442764
 20
1.975689
 30
0.0
 10
1.483758
 20
1.976606
 30
0.0
 10
1.483527
 20
2.025129
 30
0.0
  0
SPLINE
  5
177
100
AcDbEntity
  8
Layer_1
 62
7
100
AcDbSpline
 70
8
 71
3
 72
8
 73
4
 74
0
 40
0
 40
0
 40
0
 40
0
 40
1
 40
1
 40
1
 40
1
 10
1.483527
 20
2.025129
 30
0.0
 10
1.475543
 20
2.070116
 30
0.0
 10
1.451301
 20
2.076123
 30
0.0
 10
1.424360
 20
2.075792
 30
0.0
  0
SPLINE
  5
178
100
AcDbEntity
  8
Layer_1
 62
7
100
AcDbSpline
 70
8
 71
3
 72
8
 73
4
 74
0
 40
0
 40
0
 40
0
 40
0
 40
1
 40
1
 40
1
 40
1
 10
1.424360
 20
2.075792
 30
0.0
 10
1.384568
 20
2.069265
 30
0.0
 10
1.355395
 20
2.038195
 30
0.0
 10
1.337941
 20
2.005387
 30
0.0
  0
LWPOLYLINE
  5
179
100
AcDbEntity
  8
Layer_1
 62
7
100
AcDbPolyline
 90
2
 70
1
 10
1.440530
 20
1.733973
 30
0.0
 10
1.353544
 20
1.958452
 30
0.0
  0
SPLINE
  5
17a
100
AcDbEntity
  8
Layer_1
 62
7
100
AcDbSpline
 70
8
 71
3
 72
8
 73
4
 74
0
 40
0
 40
0
 40
0
 40
0
 40
1
 40
1
 40
1
 40
1
 10
1.269117
 20
2.204782
 30
0.0
 10
1.248894
 20
2.192210
 30
0.0
 10
1.227621
 20
2.192250
 30
0.0
 10
1.206812
 20
2.186713
 30
0.0
  0
LWPOLYLINE
  5
17b
100
AcDbEntity
  8
Layer_1
 62
7
100
AcDbPolyline
 90
2
 70
1
 10
1.337941
 20
2.005387
 30
0.0
 10
1.269117
 20
2.204782
 30
0.0
  0
SPLINE
  5
17c
100
AcDbEntity
  8
Layer_1
 62
7
100
AcDbSpline
 70
8
 71
3
 72
8
 73
4
 74
0
 40
0
 40
0
 40
0
 40
0
 40
1
 40
1
 40
1
 40
1
 10
1.127663
 20
1.863048
 30
0.0
 10
1.097960
 20
1.831701
 30
0.0
 10
1.067662
 20
1.899694
 30
0.0
 10
1.104534
 20
1.912904
 30
0.0
  0
SPLINE
  5
17d
100
AcDbEntity
  8
Layer_1
 62
7
100
AcDbSpline
 70
8
 71
3
 72
8
 73
4
 74
0
 40
0
 40
0
 40
0
 40
0
 40
1
 40
1
 40
1
 40
1
 10
1.104534
 20
1.912904
 30
0.0
 10
1.054228
 20
1.917355
 30
0.0
 10
1.052110
 20
1.888138
 30
0.0
 10
1.052257
 20
1.872303
 30
0.0
  0
SPLINE
  5
17e
100
AcDbEntity
  8
Layer_1
 62
7
100
AcDbSpline
 70
8
 71
3
 72
8
 73
4
 74
0
 40
0
 40
0
 40
0
 40
0
 40
1
 40
1
 40
1
 40
1
 10
1.052257
 20
1.872303
 30
0.0
 10
1.053883
 20
1.851817
 30
0.0
 10
1.068481
 20
1.840967
 30
0.0
 10
1.097960
 20
1.831701
 30
0.0
  0
SPLINE
  5
17f
100
AcDbEntity
  8
Layer_1
 62
7
100
AcDbSpline
 70
8
 71
3
 72
8
 73
4
 74
0
 40
0
 40
0
 40
0
 40
0
 40
1
 40
1
 40
1
 40
1
 10
1.097960
 20
1.831701
 30
0.0
 10
1.107987
 20
1.831878
 30
0.0
 10
1.112395
 20
1.817506
 30
0.0
 10
1.108021
 20
1.802720
 30
0.0
  0
LWPOLYLINE
  5
180
100
AcDbEntity
  8
Layer_1
 62
7
100
AcDbPolyline
 90
2
 70
1
 10
1.206812
 20
2.186713
 30
0.0
 10
1.127663
 20
1.863048
 30
0.0
  0
SPLINE
  5
181
100
AcDbEntity
  8
Layer_1
 62
7
100
AcDbSpline
 70
8
 71
3
 72
8
 73
4
 74
0
 40
0
 40
0
 40
0
 40
0
 40
1
 40
1
 40
1
 40
1
 10
1.082767
 20
1.679257
 30
0.0
 10
1.071699
 20
1.613240
 30
0.0
 10
1.045969
 20
1.632678
 30
0.0
 10
1.041174
 20
1.610566
 30
0.0
  0
LWPOLYLINE
  5
182
100
AcDbEntity
  8
Layer_1
 62
7
100
AcDbPolyline
 90
2
 70
1
 10
1.108021
 20
1.802720
 30
0.0
 10
1.082767
 20
1.679257
 30
0.0
  0
SPLINE
  5
183
100
AcDbEntity
  8
Layer_1
 62
7
100
AcDbSpline
 70
8
 71
3
 72
8
 73
4
 74
0
 40
0
 40
0
 40
0
 40
0
 40
1
 40
1
 40
1
 40
1
 10
1.157708
 20
1.630619
 30
0.0
 10
1.153740
 20
1.649204
 30
0.0
 10
1.095019
 20
1.624482
 30
0.0
 10
1.110828
 20
1.683466
 30
0.0
  0
LWPOLYLINE
  5
184
100
AcDbEntity
  8
Layer_1
 62
7
100
AcDbPolyline
 90
4
 70
1
 10
1.041174
 20
1.610566
 30
0.0
 10
1.040678
 20
1.590868
 30
0.0
 10
1.159932
 20
1.609107
 30
0.0
 10
1.157708
 20
1.630619
 30
0.0
  0
SPLINE
  5
185
100
AcDbEntity
  8
Layer_1
 62
7
100
AcDbSpline
 70
8
 71
3
 72
8
 73
4
 74
0
 40
0
 40
0
 40
0
 40
0
 40
1
 40
1
 40
1
 40
1
 10
1.140205
 20
1.831064
 30
0.0
 10
1.157338
 20
1.820406
 30
0.0
 10
1.175734
 20
1.823693
 30
0.0
 10
1.196495
 20
1.834422
 30
0.0
  0
LWPOLYLINE
  5
186
100
AcDbEntity
  8
Layer_1
 62
7
100
AcDbPolyline
 90
2
 70
1
 10
1.110828
 20
1.683466
 30
0.0
 10
1.140205
 20
1.831064
 30
0.0
  0
SPLINE
  5
187
100
AcDbEntity
  8
Layer_1
 62
7
100
AcDbSpline
 70
8
 71
3
 72
8
 73
4
 74
0
 40
0
 40
0
 40
0
 40
0
 40
1
 40
1
 40
1
 40
1
 10
1.280589
 20
1.888302
 30
0.0
 10
1.291768
 20
1.894050
 30
0.0
 10
1.298452
 20
1.885414
 30
0.0
 10
1.303037
 20
1.870063
 30
0.0
  0
LWPOLYLINE
  5
188
100
AcDbEntity
  8
Layer_1
 62
7
100
AcDbPolyline
 90
2
 70
1
 10
1.196495
 20
1.834422
 30
0.0
 10
1.280589
 20
1.888302
 30
0.0
  0
SPLINE
  5
189
100
AcDbEntity
  8
Layer_1
 62
7
100
AcDbSpline
 70
8
 71
3
 72
8
 73
4
 74
0
 40
0
 40
0
 40
0
 40
0
 40
1
 40
1
 40
1
 40
1
 10
1.352142
 20
1.740988
 30
0.0
 10
1.384577
 20
1.684678
 30
0.0
 10
1.311769
 20
1.680113
 30
0.0
 10
1.317648
 20
1.659104
 30
0.0
  0
LWPOLYLINE
  5
18a
100
AcDbEntity
  8
Layer_1
 62
7
100
AcDbPolyline
 90
2
 70
1
 10
1.303037
 20
1.870063
 30
0.0
 10
1.352142
 20
1.740988
 30
0.0
  0
SPLINE
  5
18b
100
AcDbEntity
  8
Layer_1
 62
7
100
AcDbSpline
 70
8
 71
3
 72
8
 73
4
 74
0
 40
0
 40
0
 40
0
 40
0
 40
1
 40
1
 40
1
 40
1
 10
1.692247
 20
1.737005
 30
0.0
 10
1.688981
 20
1.763331
 30
0.0
 10
1.630292
 20
1.726876
 30
0.0
 10
1.631337
 20
1.792899
 30
0.0
  0
LWPOLYLINE
  5
18c
100
AcDbEntity
  8
Layer_1
 62
7
100
AcDbPolyline
 90
4
 70
1
 10
1.317648
 20
1.659104
 30
0.0
 10
1.321276
 20
1.637167
 30
0.0
 10
1.695874
 20
1.707317
 30
0.0
 10
1.692247
 20
1.737005
 30
0.0
  0
SPLINE
  5
18d
100
AcDbEntity
  8
Layer_1
 62
7
100
AcDbSpline
 70
8
 71
3
 72
8
 73
4
 74
0
 40
0
 40
0
 40
0
 40
0
 40
1
 40
1
 40
1
 40
1
 10
1.617307
 20
2.202572
 30
0.0
 10
1.650457
 20
2.240509
 30
0.0
 10
1.665068
 20
2.304325
 30
0.0
 10
1.770233
 20
2.282542
 30
0.0
  0
SPLINE
  5
18e
100
AcDbEntity
  8
Layer_1
 62
7
100
AcDbSpline
 70
8
 71
3
 72
8
 73
4
 74
0
 40
0
 40
0
 40
0
 40
0
 40
1
 40
1
 40
1
 40
1
 10
1.770233
 20
2.282542
 30
0.0
 10
1.840982
 20
2.267351
 30
0.0
 10
1.868771
 20
2.211678
 30
0.0
 10
1.857218
 20
2.125407
 30
0.0
  0
LWPOLYLINE
  5
18f
100
AcDbEntity
  8
Layer_1
 62
7
100
AcDbPolyline
 90
2
 70
1
 10
1.631337
 20
1.792899
 30
0.0
 10
1.617307
 20
2.202572
 30
0.0
  0
SPLINE
  5
190
100
AcDbEntity
  8
Layer_1
 62
7
100
AcDbSpline
 70
8
 71
3
 72
8
 73
4
 74
0
 40
0
 40
0
 40
0
 40
0
 40
1
 40
1
 40
1
 40
1
 10
1.822143
 20
1.851824
 30
0.0
 10
1.811583
 20
1.738932
 30
0.0
 10
1.854123
 20
1.667888
 30
0.0
 10
1.979278
 20
1.651197
 30
0.0
  0
SPLINE
  5
191
100
AcDbEntity
  8
Layer_1
 62
7
100
AcDbSpline
 70
8
 71
3
 72
8
 73
4
 74
0
 40
0
 40
0
 40
0
 40
0
 40
1
 40
1
 40
1
 40
1
 10
1.979278
 20
1.651197
 30
0.0
 10
2.071500
 20
1.645582
 30
0.0
 10
2.166626
 20
1.707675
 30
0.0
 10
2.184115
 20
1.832183
 30
0.0
  0
SPLINE
  5
192
100
AcDbEntity
  8
Layer_1
 62
7
100
AcDbSpline
 70
8
 71
3
 72
8
 73
4
 74
0
 40
0
 40
0
 40
0
 40
0
 40
1
 40
1
 40
1
 40
1
 10
2.184115
 20
1.832183
 30
0.0
 10
2.195746
 20
1.924923
 30
0.0
 10
2.141450
 20
1.972863
 30
0.0
 10
2.085906
 20
1.973183
 30
0.0
  0
SPLINE
  5
193
100
AcDbEntity
  8
Layer_1
 62
7
100
AcDbSpline
 70
8
 71
3
 72
8
 73
4
 74
0
 40
0
 40
0
 40
0
 40
0
 40
1
 40
1
 40
1
 40
1
 10
2.085906
 20
1.973183
 30
0.0
 10
2.031429
 20
1.973334
 30
0.0
 10
2.008092
 20
1.931436
 30
0.0
 10
2.011547
 20
1.889705
 30
0.0
  0
LWPOLYLINE
  5
194
100
AcDbEntity
  8
Layer_1
 62
7
100
AcDbPolyline
 90
2
 70
1
 10
1.857218
 20
2.125407
 30
0.0
 10
1.822143
 20
1.851824
 30
0.0
  0
LWPOLYLINE
  5
195
100
AcDbEntity
  8
Layer_1
 62
7
100
AcDbPolyline
 90
2
 70
1
 10
2.011547
 20
1.889705
 30
0.0
 10
2.011547
 20
1.889705
 30
0.0
  0
SPLINE
  5
196
100
AcDbEntity
  8
Layer_1
 62
7
100
AcDbSpline
 70
8
 71
3
 72
8
 73
4
 74
0
 40
0
 40
0
 40
0
 40
0
 40
1
 40
1
 40
1
 40
1
 10
2.071875
 20
2.448095
 30
0.0
 10
2.075193
 20
2.521542
 30
0.0
 10
1.997335
 20
2.474779
 30
0.0
 10
1.997517
 20
2.535080
 30
0.0
  0
SPLINE
  5
197
100
AcDbEntity
  8
Layer_1
 62
7
100
AcDbSpline
 70
8
 71
3
 72
8
 73
4
 74
0
 40
0
 40
0
 40
0
 40
0
 40
1
 40
1
 40
1
 40
1
 10
1.997517
 20
2.535080
 30
0.0
 10
2.085393
 20
2.562424
 30
0.0
 10
2.175330
 20
2.583241
 30
0.0
 10
2.271100
 20
2.585588
 30
0.0
  0
SPLINE
  5
198
100
AcDbEntity
  8
Layer_1
 62
7
100
AcDbSpline
 70
8
 71
3
 72
8
 73
4
 74
0
 40
0
 40
0
 40
0
 40
0
 40
1
 40
1
 40
1
 40
1
 10
2.271100
 20
2.585588
 30
0.0
 10
2.437659
 20
2.580086
 30
0.0
 10
2.558437
 20
2.499531
 30
0.0
 10
2.564325
 20
2.230632
 30
0.0
  0
SPLINE
  5
199
100
AcDbEntity
  8
Layer_1
 62
7
100
AcDbSpline
 70
8
 71
3
 72
8
 73
4
 74
0
 40
0
 40
0
 40
0
 40
0
 40
1
 40
1
 40
1
 40
1
 10
2.564325
 20
2.230632
 30
0.0
 10
2.573414
 20
2.014220
 30
0.0
 10
2.517691
 20
1.907225
 30
0.0
 10
2.438056
 20
1.840601
 30
0.0
  0
SPLINE
  5
19a
100
AcDbEntity
  8
Layer_1
 62
7
100
AcDbSpline
 70
8
 71
3
 72
8
 73
4
 74
0
 40
0
 40
0
 40
0
 40
0
 40
1
 40
1
 40
1
 40
1
 10
2.438056
 20
1.840601
 30
0.0
 10
2.359630
 20
1.794182
 30
0.0
 10
2.279198
 20
1.775868
 30
0.0
 10
2.198144
 20
1.766242
 30
0.0
  0
LWPOLYLINE
  5
19b
100
AcDbEntity
  8
Layer_1
 62
7
100
AcDbPolyline
 90
2
 70
1
 10
2.081696
 20
2.008959
 30
0.0
 10
2.071875
 20
2.448095
 30
0.0
  0
SPLINE
  5
19c
100
AcDbEntity
  8
Layer_1
 62
7
100
AcDbSpline
 70
8
 71
3
 72
8
 73
4
 74
0
 40
0
 40
0
 40
0
 40
0
 40
1
 40
1
 40
1
 40
1
 10
2.221995
 20
1.851824
 30
0.0
 10
2.313100
 20
1.865565
 30
0.0
 10
2.393257
 20
1.901202
 30
0.0
 10
2.442264
 20
1.999138
 30
0.0
  0
SPLINE
  5
19d
100
AcDbEntity
  8
Layer_1
 62
7
100
AcDbSpline
 70
8
 71
3
 72
8
 73
4
 74
0
 40
0
 40
0
 40
0
 40
0
 40
1
 40
1
 40
1
 40
1
 10
2.442264
 20
1.999138
 30
0.0
 10
2.467718
 20
2.078219
 30
0.0
 10
2.479656
 20
2.175320
 30
0.0
 10
2.457697
 20
2.317617
 30
0.0
  0
SPLINE
  5
19e
100
AcDbEntity
  8
Layer_1
 62
7
100
AcDbSpline
 70
8
 71
3
 72
8
 73
4
 74
0
 40
0
 40
0
 40
0
 40
0
 40
1
 40
1
 40
1
 40
1
 10
2.457697
 20
2.317617
 30
0.0
 10
2.423578
 20
2.449264
 30
0.0
 10
2.357074
 20
2.487804
 30
0.0
 10
2.280921
 20
2.498603
 30
0.0
  0
SPLINE
  5
19f
100
AcDbEntity
  8
Layer_1
 62
7
100
AcDbSpline
 70
8
 71
3
 72
8
 73
4
 74
0
 40
0
 40
0
 40
0
 40
0
 40
1
 40
1
 40
1
 40
1
 10
2.280921
 20
2.498603
 30
0.0
 10
2.199501
 20
2.505793
 30
0.0
 10
2.167452
 20
2.492412
 30
0.0
 10
2.149040
 20
2.473349
 30
0.0
  0
LWPOLYLINE
  5
1a0
100
AcDbEntity
  8
Layer_1
 62
7
100
AcDbPolyline
 90
2
 70
1
 10
2.198144
 20
1.766242
 30
0.0
 10
2.221995
 20
1.851824
 30
0.0
  0
SPLINE
  5
1a1
100
AcDbEntity
  8
Layer_1
 62
7
100
AcDbSpline
 70
8
 71
3
 72
8
 73
4
 74
0
 40
0
 40
0
 40
0
 40
0
 40
1
 40
1
 40
1
 40
1
 10
3.089487
 20
2.535739
 30
0.0
 10
3.090562
 20
2.547895
 30
0.0
 10
3.092217
 20
2.558193
 30
0.0
 10
3.156452
 20
2.566493
 30
0.0
  0
SPLINE
  5
1a2
100
AcDbEntity
  8
Layer_1
 62
7
100
AcDbSpline
 70
8
 71
3
 72
8
 73
4
 74
0
 40
0
 40
0
 40
0
 40
0
 40
1
 40
1
 40
1
 40
1
 10
3.156452
 20
2.566493
 30
0.0
 10
3.204135
 20
2.572132
 30
0.0
 10
3.254256
 20
2.584093
 30
0.0
 10
3.317166
 20
2.577406
 30
0.0
  0
SPLINE
  5
1a3
100
AcDbEntity
  8
Layer_1
 62
7
100
AcDbSpline
 70
8
 71
3
 72
8
 73
4
 74
0
 40
0
 40
0
 40
0
 40
0
 40
1
 40
1
 40
1
 40
1
 10
3.317166
 20
2.577406
 30
0.0
 10
3.410979
 20
2.560348
 30
0.0
 10
3.409913
 20
2.398424
 30
0.0
 10
3.297013
 20
2.352342
 30
0.0
  0
SPLINE
  5
1a4
100
AcDbEntity
  8
Layer_1
 62
7
100
AcDbSpline
 70
8
 71
3
 72
8
 73
4
 74
0
 40
0
 40
0
 40
0
 40
0
 40
1
 40
1
 40
1
 40
1
 10
3.297013
 20
2.352342
 30
0.0
 10
3.231669
 20
2.327106
 30
0.0
 10
3.166091
 20
2.319170
 30
0.0
 10
3.091967
 20
2.315997
 30
0.0
  0
LWPOLYLINE
  5
1a5
100
AcDbEntity
  8
Layer_1
 62
7
100
AcDbPolyline
 90
3
 70
1
 10
2.149040
 20
2.473349
 30
0.0
 10
2.149040
 20
1.993526
 30
0.0
 10
2.081696
 20
2.008959
 30
0.0
  0
SPLINE
  5
1a6
100
AcDbEntity
  8
Layer_1
 62
7
100
AcDbSpline
 70
8
 71
3
 72
8
 73
4
 74
0
 40
0
 40
0
 40
0
 40
0
 40
1
 40
1
 40
1
 40
1
 10
3.494507
 20
2.163288
 30
0.0
 10
3.516560
 20
2.107774
 30
0.0
 10
3.502604
 20
2.087711
 30
0.0
 10
3.473958
 20
2.085372
 30
0.0
  0
SPLINE
  5
1a7
100
AcDbEntity
  8
Layer_1
 62
7
100
AcDbSpline
 70
8
 71
3
 72
8
 73
4
 74
0
 40
0
 40
0
 40
0
 40
0
 40
1
 40
1
 40
1
 40
1
 10
3.473958
 20
2.085372
 30
0.0
 10
3.433244
 20
2.083639
 30
0.0
 10
3.404495
 20
2.136187
 30
0.0
 10
3.382182
 20
2.198859
 30
0.0
  0
SPLINE
  5
1a8
100
AcDbEntity
  8
Layer_1
 62
7
100
AcDbSpline
 70
8
 71
3
 72
8
 73
4
 74
0
 40
0
 40
0
 40
0
 40
0
 40
1
 40
1
 40
1
 40
1
 10
3.382182
 20
2.198859
 30
0.0
 10
3.364704
 20
2.239092
 30
0.0
 10
3.344446
 20
2.273749
 30
0.0
 10
3.313521
 20
2.297975
 30
0.0
  0
SPLINE
  5
1a9
100
AcDbEntity
  8
Layer_1
 62
7
100
AcDbSpline
 70
8
 71
3
 72
8
 73
4
 74
0
 40
0
 40
0
 40
0
 40
0
 40
1
 40
1
 40
1
 40
1
 10
3.313521
 20
2.297975
 30
0.0
 10
3.383401
 20
2.331495
 30
0.0
 10
3.454018
 20
2.364011
 30
0.0
 10
3.459417
 20
2.485224
 30
0.0
  0
SPLINE
  5
1aa
100
AcDbEntity
  8
Layer_1
 62
7
100
AcDbSpline
 70
8
 71
3
 72
8
 73
4
 74
0
 40
0
 40
0
 40
0
 40
0
 40
1
 40
1
 40
1
 40
1
 10
3.459417
 20
2.485224
 30
0.0
 10
3.466836
 20
2.598110
 30
0.0
 10
3.373846
 20
2.642916
 30
0.0
 10
3.335969
 20
2.634693
 30
0.0
  0
LWPOLYLINE
  5
1ab
100
AcDbEntity
  8
Layer_1
 62
7
100
AcDbPolyline
 90
2
 70
1
 10
3.091967
 20
2.315997
 30
0.0
 10
3.089487
 20
2.535739
 30
0.0
  0
SPLINE
  5
1ac
100
AcDbEntity
  8
Layer_1
 62
7
100
AcDbSpline
 70
8
 71
3
 72
8
 73
4
 74
0
 40
0
 40
0
 40
0
 40
0
 40
1
 40
1
 40
1
 40
1
 10
2.957162
 20
2.560334
 30
0.0
 10
2.958182
 20
2.538727
 30
0.0
 10
3.006608
 20
2.559326
 30
0.0
 10
3.007669
 20
2.505618
 30
0.0
  0
LWPOLYLINE
  5
1ad
100
AcDbEntity
  8
Layer_1
 62
7
100
AcDbPolyline
 90
3
 70
1
 10
3.335969
 20
2.634693
 30
0.0
 10
2.957162
 20
2.578573
 30
0.0
 10
2.957162
 20
2.560334
 30
0.0
  0
SPLINE
  5
1ae
100
AcDbEntity
  8
Layer_1
 62
7
100
AcDbSpline
 70
8
 71
3
 72
8
 73
4
 74
0
 40
0
 40
0
 40
0
 40
0
 40
1
 40
1
 40
1
 40
1
 10
3.009072
 20
2.041228
 30
0.0
 10
3.013467
 20
1.974207
 30
0.0
 10
2.960973
 20
1.987658
 30
0.0
 10
2.958565
 20
2.025795
 30
0.0
  0
SPLINE
  5
1af
100
AcDbEntity
  8
Layer_1
 62
7
100
AcDbSpline
 70
8
 71
3
 72
8
 73
4
 74
0
 40
0
 40
0
 40
0
 40
0
 40
1
 40
1
 40
1
 40
1
 10
2.958565
 20
2.025795
 30
0.0
 10
2.952237
 20
2.057067
 30
0.0
 10
2.937353
 20
2.048704
 30
0.0
 10
2.937520
 20
2.041228
 30
0.0
  0
SPLINE
  5
1b0
100
AcDbEntity
  8
Layer_1
 62
7
100
AcDbSpline
 70
8
 71
3
 72
8
 73
4
 74
0
 40
0
 40
0
 40
0
 40
0
 40
1
 40
1
 40
1
 40
1
 10
2.937520
 20
2.041228
 30
0.0
 10
2.938521
 20
2.003963
 30
0.0
 10
2.921482
 20
1.987849
 30
0.0
 10
2.895430
 20
1.982302
 30
0.0
  0
LWPOLYLINE
  5
1b1
100
AcDbEntity
  8
Layer_1
 62
7
100
AcDbPolyline
 90
2
 70
1
 10
3.007669
 20
2.505618
 30
0.0
 10
3.009072
 20
2.041228
 30
0.0
  0
SPLINE
  5
1b2
100
AcDbEntity
  8
Layer_1
 62
7
100
AcDbSpline
 70
8
 71
3
 72
8
 73
4
 74
0
 40
0
 40
0
 40
0
 40
0
 40
1
 40
1
 40
1
 40
1
 10
2.715847
 20
2.203975
 30
0.0
 10
2.714917
 20
2.219092
 30
0.0
 10
2.719626
 20
2.229509
 30
0.0
 10
2.735489
 20
2.230632
 30
0.0
  0
LWPOLYLINE
  5
1b3
100
AcDbEntity
  8
Layer_1
 62
7
100
AcDbPolyline
 90
3
 70
1
 10
2.895430
 20
1.982302
 30
0.0
 10
2.724265
 20
1.951437
 30
0.0
 10
2.715847
 20
2.203975
 30
0.0
  0
SPLINE
  5
1b4
100
AcDbEntity
  8
Layer_1
 62
7
100
AcDbSpline
 70
8
 71
3
 72
8
 73
4
 74
0
 40
0
 40
0
 40
0
 40
0
 40
1
 40
1
 40
1
 40
1
 10
2.808445
 20
2.240453
 30
0.0
 10
2.859037
 20
2.247562
 30
0.0
 10
2.834148
 20
2.209207
 30
0.0
 10
2.870176
 20
2.209587
 30
0.0
  0
LWPOLYLINE
  5
1b5
100
AcDbEntity
  8
Layer_1
 62
7
100
AcDbPolyline
 90
2
 70
1
 10
2.735489
 20
2.230632
 30
0.0
 10
2.808445
 20
2.240453
 30
0.0
  0
SPLINE
  5
1b6
100
AcDbEntity
  8
Layer_1
 62
7
100
AcDbSpline
 70
8
 71
3
 72
8
 73
4
 74
0
 40
0
 40
0
 40
0
 40
0
 40
1
 40
1
 40
1
 40
1
 10
2.871579
 20
2.320423
 30
0.0
 10
2.831045
 20
2.318667
 30
0.0
 10
2.849603
 20
2.275198
 30
0.0
 10
2.814057
 20
2.269915
 30
0.0
  0
LWPOLYLINE
  5
1b7
100
AcDbEntity
  8
Layer_1
 62
7
100
AcDbPolyline
 90
2
 70
1
 10
2.870176
 20
2.209587
 30
0.0
 10
2.871579
 20
2.320423
 30
0.0
  0
SPLINE
  5
1b8
100
AcDbEntity
  8
Layer_1
 62
7
100
AcDbSpline
 70
8
 71
3
 72
8
 73
4
 74
0
 40
0
 40
0
 40
0
 40
0
 40
1
 40
1
 40
1
 40
1
 10
2.732683
 20
2.253079
 30
0.0
 10
2.712636
 20
2.249218
 30
0.0
 10
2.706978
 20
2.261708
 30
0.0
 10
2.707430
 20
2.281139
 30
0.0
  0
LWPOLYLINE
  5
1b9
100
AcDbEntity
  8
Layer_1
 62
7
100
AcDbPolyline
 90
2
 70
1
 10
2.814057
 20
2.269915
 30
0.0
 10
2.732683
 20
2.253079
 30
0.0
  0
SPLINE
  5
1ba
100
AcDbEntity
  8
Layer_1
 62
7
100
AcDbSpline
 70
8
 71
3
 72
8
 73
4
 74
0
 40
0
 40
0
 40
0
 40
0
 40
1
 40
1
 40
1
 40
1
 10
2.707430
 20
2.471946
 30
0.0
 10
2.708144
 20
2.482193
 30
0.0
 10
2.711708
 20
2.491528
 30
0.0
 10
2.735489
 20
2.494394
 30
0.0
  0
LWPOLYLINE
  5
1bb
100
AcDbEntity
  8
Layer_1
 62
7
100
AcDbPolyline
 90
2
 70
1
 10
2.707430
 20
2.281139
 30
0.0
 10
2.707430
 20
2.471946
 30
0.0
  0
SPLINE
  5
1bc
100
AcDbEntity
  8
Layer_1
 62
7
100
AcDbSpline
 70
8
 71
3
 72
8
 73
4
 74
0
 40
0
 40
0
 40
0
 40
0
 40
1
 40
1
 40
1
 40
1
 10
2.833699
 20
2.511230
 30
0.0
 10
2.869707
 20
2.524967
 30
0.0
 10
2.895270
 20
2.494745
 30
0.0
 10
2.914371
 20
2.470192
 30
0.0
  0
LWPOLYLINE
  5
1bd
100
AcDbEntity
  8
Layer_1
 62
7
100
AcDbPolyline
 90
2
 70
1
 10
2.735489
 20
2.494394
 30
0.0
 10
2.833699
 20
2.511230
 30
0.0
  0
SPLINE
  5
1be
100
AcDbEntity
  8
Layer_1
 62
7
100
AcDbSpline
 70
8
 71
3
 72
8
 73
4
 74
0
 40
0
 40
0
 40
0
 40
0
 40
1
 40
1
 40
1
 40
1
 10
2.913669
 20
2.572961
 30
0.0
 10
2.910808
 20
2.586914
 30
0.0
 10
2.903214
 20
2.587224
 30
0.0
 10
2.895431
 20
2.586991
 30
0.0
  0
LWPOLYLINE
  5
1bf
100
AcDbEntity
  8
Layer_1
 62
7
100
AcDbPolyline
 90
2
 70
1
 10
2.914371
 20
2.470192
 30
0.0
 10
2.913669
 20
2.572961
 30
0.0
  0
SPLINE
  5
1c0
100
AcDbEntity
  8
Layer_1
 62
7
100
AcDbSpline
 70
8
 71
3
 72
8
 73
4
 74
0
 40
0
 40
0
 40
0
 40
0
 40
1
 40
1
 40
1
 40
1
 10
2.586773
 20
2.511230
 30
0.0
 10
2.617725
 20
2.503965
 30
0.0
 10
2.634852
 20
2.487626
 30
0.0
 10
2.635877
 20
2.460722
 30
0.0
  0
LWPOLYLINE
  5
1c1
100
AcDbEntity
  8
Layer_1
 62
7
100
AcDbPolyline
 90
3
 70
1
 10
2.895431
 20
2.586991
 30
0.0
 10
2.585370
 20
2.528065
 30
0.0
 10
2.586773
 20
2.511230
 30
0.0
  0
SPLINE
  5
1c2
100
AcDbEntity
  8
Layer_1
 62
7
100
AcDbSpline
 70
8
 71
3
 72
8
 73
4
 74
0
 40
0
 40
0
 40
0
 40
0
 40
1
 40
1
 40
1
 40
1
 10
2.648504
 20
1.972482
 30
0.0
 10
2.648716
 20
1.940950
 30
0.0
 10
2.635365
 20
1.930256
 30
0.0
 10
2.620445
 20
1.921974
 30
0.0
  0
LWPOLYLINE
  5
1c3
100
AcDbEntity
  8
Layer_1
 62
7
100
AcDbPolyline
 90
2
 70
1
 10
2.635877
 20
2.460722
 30
0.0
 10
2.648504
 20
1.972482
 30
0.0
  0
SPLINE
  5
1c4
100
AcDbEntity
  8
Layer_1
 62
7
100
AcDbSpline
 70
8
 71
3
 72
8
 73
4
 74
0
 40
0
 40
0
 40
0
 40
0
 40
1
 40
1
 40
1
 40
1
 10
2.622198
 20
1.882340
 30
0.0
 10
2.627030
 20
1.893616
 30
0.0
 10
2.665512
 20
1.887839
 30
0.0
 10
2.687788
 20
1.893914
 30
0.0
  0
LWPOLYLINE
  5
1c5
100
AcDbEntity
  8
Layer_1
 62
7
100
AcDbPolyline
 90
2
 70
1
 10
2.620445
 20
1.921974
 30
0.0
 10
2.622198
 20
1.882340
 30
0.0
  0
SPLINE
  5
1c6
100
AcDbEntity
  8
Layer_1
 62
7
100
AcDbSpline
 70
8
 71
3
 72
8
 73
4
 74
0
 40
0
 40
0
 40
0
 40
0
 40
1
 40
1
 40
1
 40
1
 10
3.153581
 20
2.031407
 30
0.0
 10
3.124257
 20
2.028723
 30
0.0
 10
3.093981
 20
2.024649
 30
0.0
 10
3.093252
 20
2.063676
 30
0.0
  0
LWPOLYLINE
  5
1c7
100
AcDbEntity
  8
Layer_1
 62
7
100
AcDbPolyline
 90
3
 70
1
 10
2.687788
 20
1.893914
 30
0.0
 10
3.153581
 20
1.980899
 30
0.0
 10
3.153581
 20
2.031407
 30
0.0
  0
SPLINE
  5
1c8
100
AcDbEntity
  8
Layer_1
 62
7
100
AcDbSpline
 70
8
 71
3
 72
8
 73
4
 74
0
 40
0
 40
0
 40
0
 40
0
 40
1
 40
1
 40
1
 40
1
 10
3.092841
 20
2.242493
 30
0.0
 10
3.093675
 20
2.278697
 30
0.0
 10
3.154571
 20
2.281241
 30
0.0
 10
3.200616
 20
2.288820
 30
0.0
  0
SPLINE
  5
1c9
100
AcDbEntity
  8
Layer_1
 62
7
100
AcDbSpline
 70
8
 71
3
 72
8
 73
4
 74
0
 40
0
 40
0
 40
0
 40
0
 40
1
 40
1
 40
1
 40
1
 10
3.200616
 20
2.288820
 30
0.0
 10
3.250906
 20
2.295481
 30
0.0
 10
3.281602
 20
2.285251
 30
0.0
 10
3.293879
 20
2.255885
 30
0.0
  0
SPLINE
  5
1ca
100
AcDbEntity
  8
Layer_1
 62
7
100
AcDbSpline
 70
8
 71
3
 72
8
 73
4
 74
0
 40
0
 40
0
 40
0
 40
0
 40
1
 40
1
 40
1
 40
1
 10
3.293879
 20
2.255885
 30
0.0
 10
3.315382
 20
2.164755
 30
0.0
 10
3.350979
 20
2.093592
 30
0.0
 10
3.394895
 20
2.034213
 30
0.0
  0
SPLINE
  5
1cb
100
AcDbEntity
  8
Layer_1
 62
7
100
AcDbSpline
 70
8
 71
3
 72
8
 73
4
 74
0
 40
0
 40
0
 40
0
 40
0
 40
1
 40
1
 40
1
 40
1
 10
3.394895
 20
2.034213
 30
0.0
 10
3.435900
 20
1.974195
 30
0.0
 10
3.512171
 20
1.960567
 30
0.0
 10
3.557967
 20
1.989658
 30
0.0
  0
SPLINE
  5
1cc
100
AcDbEntity
  8
Layer_1
 62
7
100
AcDbSpline
 70
8
 71
3
 72
8
 73
4
 74
0
 40
0
 40
0
 40
0
 40
0
 40
1
 40
1
 40
1
 40
1
 10
3.557967
 20
1.989658
 30
0.0
 10
3.593166
 20
2.011702
 30
0.0
 10
3.628924
 20
2.060715
 30
0.0
 10
3.584298
 20
2.131019
 30
0.0
  0
SPLINE
  5
1cd
100
AcDbEntity
  8
Layer_1
 62
7
100
AcDbSpline
 70
8
 71
3
 72
8
 73
4
 74
0
 40
0
 40
0
 40
0
 40
0
 40
1
 40
1
 40
1
 40
1
 10
3.584298
 20
2.131019
 30
0.0
 10
3.543697
 20
2.178491
 30
0.0
 10
3.519563
 20
2.169303
 30
0.0
 10
3.494507
 20
2.163288
 30
0.0
  0
LWPOLYLINE
  5
1ce
100
AcDbEntity
  8
Layer_1
 62
7
100
AcDbPolyline
 90
2
 70
1
 10
3.093252
 20
2.063676
 30
0.0
 10
3.092841
 20
2.242493
 30
0.0
  0
SPLINE
  5
1cf
100
AcDbEntity
  8
Layer_1
 62
7
100
AcDbSpline
 70
8
 71
3
 72
8
 73
4
 74
0
 40
0
 40
0
 40
0
 40
0
 40
1
 40
1
 40
1
 40
1
 10
1.574519
 20
1.541000
 30
0.0
 10
1.549250
 20
1.541000
 30
0.0
 10
1.524516
 20
1.538553
 30
0.0
 10
1.500496
 20
1.533861
 30
0.0
  0
SPLINE
  5
1d0
100
AcDbEntity
  8
Layer_1
 62
7
100
AcDbSpline
 70
8
 71
3
 72
8
 73
4
 74
0
 40
0
 40
0
 40
0
 40
0
 40
1
 40
1
 40
1
 40
1
 10
1.500496
 20
1.533861
 30
0.0
 10
1.307131
 20
1.496087
 30
0.0
 10
1.160435
 20
1.312977
 30
0.0
 10
1.160435
 20
1.092802
 30
0.0
  0
SPLINE
  5
1d1
100
AcDbEntity
  8
Layer_1
 62
7
100
AcDbSpline
 70
8
 71
3
 72
8
 73
4
 74
0
 40
0
 40
0
 40
0
 40
0
 40
1
 40
1
 40
1
 40
1
 10
1.160435
 20
1.092802
 30
0.0
 10
1.160435
 20
0.845275
 30
0.0
 10
1.345831
 20
0.644624
 30
0.0
 10
1.574519
 20
0.644624
 30
0.0
  0
SPLINE
  5
1d2
100
AcDbEntity
  8
Layer_1
 62
7
100
AcDbSpline
 70
8
 71
3
 72
8
 73
4
 74
0
 40
0
 40
0
 40
0
 40
0
 40
1
 40
1
 40
1
 40
1
 10
1.574519
 20
0.644624
 30
0.0
 10
1.803208
 20
0.644624
 30
0.0
 10
1.988604
 20
0.845275
 30
0.0
 10
1.988604
 20
1.092802
 30
0.0
  0
SPLINE
  5
1d3
100
AcDbEntity
  8
Layer_1
 62
7
100
AcDbSpline
 70
8
 71
3
 72
8
 73
4
 74
0
 40
0
 40
0
 40
0
 40
0
 40
1
 40
1
 40
1
 40
1
 10
1.988604
 20
1.092802
 30
0.0
 10
1.988604
 20
1.340328
 30
0.0
 10
1.803208
 20
1.541000
 30
0.0
 10
1.574519
 20
1.541000
 30
0.0
  0
LWPOLYLINE
  5
1d4
100
AcDbEntity
  8
Layer_1
 62
7
100
AcDbPolyline
 90
2
 70
1
 10
3.494507
 20
2.163288
 30
0.0
 10
3.494507
 20
2.163288
 30
0.0
  0
SPLINE
  5
1d5
100
AcDbEntity
  8
Layer_1
 62
7
100
AcDbSpline
 70
8
 71
3
 72
8
 73
4
 74
0
 40
0
 40
0
 40
0
 40
0
 40
1
 40
1
 40
1
 40
1
 10
1.585479
 20
1.475723
 30
0.0
 10
1.755629
 20
1.475723
 30
0.0
 10
1.893573
 20
1.301475
 30
0.0
 10
1.893573
 20
1.086530
 30
0.0
  0
SPLINE
  5
1d6
100
AcDbEntity
  8
Layer_1
 62
7
100
AcDbSpline
 70
8
 71
3
 72
8
 73
4
 74
0
 40
0
 40
0
 40
0
 40
0
 40
1
 40
1
 40
1
 40
1
 10
1.893573
 20
1.086530
 30
0.0
 10
1.893573
 20
0.871584
 30
0.0
 10
1.755629
 20
0.697337
 30
0.0
 10
1.585479
 20
0.697337
 30
0.0
  0
SPLINE
  5
1d7
100
AcDbEntity
  8
Layer_1
 62
7
100
AcDbSpline
 70
8
 71
3
 72
8
 73
4
 74
0
 40
0
 40
0
 40
0
 40
0
 40
1
 40
1
 40
1
 40
1
 10
1.585479
 20
0.697337
 30
0.0
 10
1.415328
 20
0.697337
 30
0.0
 10
1.277406
 20
0.871584
 30
0.0
 10
1.277406
 20
1.086530
 30
0.0
  0
SPLINE
  5
1d8
100
AcDbEntity
  8
Layer_1
 62
7
100
AcDbSpline
 70
8
 71
3
 72
8
 73
4
 74
0
 40
0
 40
0
 40
0
 40
0
 40
1
 40
1
 40
1
 40
1
 10
1.277406
 20
1.086530
 30
0.0
 10
1.277406
 20
1.276605
 30
0.0
 10
1.385264
 20
1.434876
 30
0.0
 10
1.527883
 20
1.468952
 30
0.0
  0
SPLINE
  5
1d9
100
AcDbEntity
  8
Layer_1
 62
7
100
AcDbSpline
 70
8
 71
3
 72
8
 73
4
 74
0
 40
0
 40
0
 40
0
 40
0
 40
1
 40
1
 40
1
 40
1
 10
1.527883
 20
1.468952
 30
0.0
 10
1.546544
 20
1.473410
 30
0.0
 10
1.565792
 20
1.475723
 30
0.0
 10
1.585479
 20
1.475723
 30
0.0
  0
LWPOLYLINE
  5
1da
100
AcDbEntity
  8
Layer_1
 62
7
100
AcDbPolyline
 90
2
 70
1
 10
1.574519
 20
1.541000
 30
0.0
 10
1.574519
 20
1.541000
 30
0.0
  0
LWPOLYLINE
  5
1db
100
AcDbEntity
  8
Layer_1
 62
7
100
AcDbPolyline
 90
2
 70
1
 10
1.585479
 20
1.475723
 30
0.0
 10
1.585479
 20
1.475723
 30
0.0
  0
SPLINE
  5
1dc
100
AcDbEntity
  8
Layer_1
 62
7
100
AcDbSpline
 70
8
 71
3
 72
8
 73
4
 74
0
 40
0
 40
0
 40
0
 40
0
 40
1
 40
1
 40
1
 40
1
 10
1.553277
 20
0.649330
 30
0.0
 10
1.576400
 20
0.571247
 30
0.0
 10
1.521590
 20
0.544492
 30
0.0
 10
1.489785
 20
0.544172
 30
0.0
  0
LWPOLYLINE
  5
1dd
100
AcDbEntity
  8
Layer_1
 62
7
100
AcDbPolyline
 90
4
 70
1
 10
0.697622
 20
0.470758
 30
0.0
 10
1.602880
 20
0.470758
 30
0.0
 10
1.602880
 20
0.649330
 30
0.0
 10
1.553277
 20
0.649330
 30
0.0
  0
SPLINE
  5
1de
100
AcDbEntity
  8
Layer_1
 62
7
100
AcDbSpline
 70
8
 71
3
 72
8
 73
4
 74
0
 40
0
 40
0
 40
0
 40
0
 40
1
 40
1
 40
1
 40
1
 10
0.882642
 20
1.289141
 30
0.0
 10
0.880681
 20
1.321452
 30
0.0
 10
0.905202
 20
1.352174
 30
0.0
 10
0.968455
 20
1.368010
 30
0.0
  0
LWPOLYLINE
  5
1df
100
AcDbEntity
  8
Layer_1
 62
7
100
AcDbPolyline
 90
3
 70
1
 10
1.489785
 20
0.544172
 30
0.0
 10
0.882642
 20
0.544172
 30
0.0
 10
0.882642
 20
1.289141
 30
0.0
  0
SPLINE
  5
1e0
100
AcDbEntity
  8
Layer_1
 62
7
100
AcDbSpline
 70
8
 71
3
 72
8
 73
4
 74
0
 40
0
 40
0
 40
0
 40
0
 40
1
 40
1
 40
1
 40
1
 10
0.695639
 20
1.365700
 30
0.0
 10
0.741150
 20
1.359497
 30
0.0
 10
0.780340
 20
1.342762
 30
0.0
 10
0.779468
 20
1.278398
 30
0.0
  0
LWPOLYLINE
  5
1e1
100
AcDbEntity
  8
Layer_1
 62
7
100
AcDbPolyline
 90
4
 70
1
 10
0.968455
 20
1.368010
 30
0.0
 10
0.968225
 20
1.394759
 30
0.0
 10
0.696134
 20
1.394759
 30
0.0
 10
0.695639
 20
1.365700
 30
0.0
  0
SPLINE
  5
1e2
100
AcDbEntity
  8
Layer_1
 62
7
100
AcDbSpline
 70
8
 71
3
 72
8
 73
4
 74
0
 40
0
 40
0
 40
0
 40
0
 40
1
 40
1
 40
1
 40
1
 10
0.779468
 20
0.579885
 30
0.0
 10
0.779468
 20
0.513135
 30
0.0
 10
0.709086
 20
0.505704
 30
0.0
 10
0.697127
 20
0.504985
 30
0.0
  0
LWPOLYLINE
  5
1e3
100
AcDbEntity
  8
Layer_1
 62
7
100
AcDbPolyline
 90
2
 70
1
 10
0.779468
 20
1.278398
 30
0.0
 10
0.779468
 20
0.579885
 30
0.0
  0
SPLINE
  5
1e4
100
AcDbEntity
  8
Layer_1
 62
7
100
AcDbSpline
 70
8
 71
3
 72
8
 73
4
 74
0
 40
0
 40
0
 40
0
 40
0
 40
1
 40
1
 40
1
 40
1
 10
2.472920
 20
0.649330
 30
0.0
 10
2.383058
 20
0.726496
 30
0.0
 10
2.285555
 20
0.781501
 30
0.0
 10
2.169348
 20
0.782267
 30
0.0
  0
SPLINE
  5
1e5
100
AcDbEntity
  8
Layer_1
 62
7
100
AcDbSpline
 70
8
 71
3
 72
8
 73
4
 74
0
 40
0
 40
0
 40
0
 40
0
 40
1
 40
1
 40
1
 40
1
 10
2.169348
 20
0.782267
 30
0.0
 10
2.038018
 20
0.765973
 30
0.0
 10
1.973647
 20
0.706619
 30
0.0
 10
1.976888
 20
0.623536
 30
0.0
  0
SPLINE
  5
1e6
100
AcDbEntity
  8
Layer_1
 62
7
100
AcDbSpline
 70
8
 71
3
 72
8
 73
4
 74
0
 40
0
 40
0
 40
0
 40
0
 40
1
 40
1
 40
1
 40
1
 10
1.976888
 20
0.623536
 30
0.0
 10
1.993182
 20
0.523668
 30
0.0
 10
2.108955
 20
0.488290
 30
0.0
 10
2.224904
 20
0.495561
 30
0.0
  0
SPLINE
  5
1e7
100
AcDbEntity
  8
Layer_1
 62
7
100
AcDbSpline
 70
8
 71
3
 72
8
 73
4
 74
0
 40
0
 40
0
 40
0
 40
0
 40
1
 40
1
 40
1
 40
1
 10
2.224904
 20
0.495561
 30
0.0
 10
2.267066
 20
0.496472
 30
0.0
 10
2.397989
 20
0.516791
 30
0.0
 10
2.472920
 20
0.649330
 30
0.0
  0
LWPOLYLINE
  5
1e8
100
AcDbEntity
  8
Layer_1
 62
7
100
AcDbPolyline
 90
2
 70
1
 10
0.697127
 20
0.504985
 30
0.0
 10
0.697622
 20
0.470758
 30
0.0
  0
SPLINE
  5
1e9
100
AcDbEntity
  8
Layer_1
 62
7
100
AcDbSpline
 70
8
 71
3
 72
8
 73
4
 74
0
 40
0
 40
0
 40
0
 40
0
 40
1
 40
1
 40
1
 40
1
 10
2.493753
 20
1.194965
 30
0.0
 10
2.435433
 20
1.277867
 30
0.0
 10
2.365117
 20
1.283656
 30
0.0
 10
2.293937
 20
1.283890
 30
0.0
  0
SPLINE
  5
1ea
100
AcDbEntity
  8
Layer_1
 62
7
100
AcDbSpline
 70
8
 71
3
 72
8
 73
4
 74
0
 40
0
 40
0
 40
0
 40
0
 40
1
 40
1
 40
1
 40
1
 10
2.293937
 20
1.283890
 30
0.0
 10
2.141810
 20
1.257457
 30
0.0
 10
2.110503
 20
1.188641
 30
0.0
 10
2.096226
 20
1.112595
 30
0.0
  0
SPLINE
  5
1eb
100
AcDbEntity
  8
Layer_1
 62
7
100
AcDbSpline
 70
8
 71
3
 72
8
 73
4
 74
0
 40
0
 40
0
 40
0
 40
0
 40
1
 40
1
 40
1
 40
1
 10
2.096226
 20
1.112595
 30
0.0
 10
2.079963
 20
1.024043
 30
0.0
 10
2.161898
 20
0.944654
 30
0.0
 10
2.285420
 20
0.893378
 30
0.0
  0
SPLINE
  5
1ec
100
AcDbEntity
  8
Layer_1
 62
7
100
AcDbSpline
 70
8
 71
3
 72
8
 73
4
 74
0
 40
0
 40
0
 40
0
 40
0
 40
1
 40
1
 40
1
 40
1
 10
2.285420
 20
0.893378
 30
0.0
 10
2.492969
 20
0.814942
 30
0.0
 10
2.509054
 20
0.744197
 30
0.0
 10
2.481352
 20
0.680580
 30
0.0
  0
SPLINE
  5
1ed
100
AcDbEntity
  8
Layer_1
 62
7
100
AcDbSpline
 70
8
 71
3
 72
8
 73
4
 74
0
 40
0
 40
0
 40
0
 40
0
 40
1
 40
1
 40
1
 40
1
 10
2.481352
 20
0.680580
 30
0.0
 10
2.382971
 20
0.766247
 30
0.0
 10
2.272147
 20
0.824053
 30
0.0
 10
2.126349
 20
0.821453
 30
0.0
  0
SPLINE
  5
1ee
100
AcDbEntity
  8
Layer_1
 62
7
100
AcDbSpline
 70
8
 71
3
 72
8
 73
4
 74
0
 40
0
 40
0
 40
0
 40
0
 40
1
 40
1
 40
1
 40
1
 10
2.126349
 20
0.821453
 30
0.0
 10
1.958843
 20
0.806672
 30
0.0
 10
1.900325
 20
0.702892
 30
0.0
 10
1.898515
 20
0.617584
 30
0.0
  0
SPLINE
  5
1ef
100
AcDbEntity
  8
Layer_1
 62
7
100
AcDbSpline
 70
8
 71
3
 72
8
 73
4
 74
0
 40
0
 40
0
 40
0
 40
0
 40
1
 40
1
 40
1
 40
1
 10
1.898515
 20
0.617584
 30
0.0
 10
1.920201
 20
0.454255
 30
0.0
 10
2.053025
 20
0.434058
 30
0.0
 10
2.196134
 20
0.427107
 30
0.0
  0
SPLINE
  5
1f0
100
AcDbEntity
  8
Layer_1
 62
7
100
AcDbSpline
 70
8
 71
3
 72
8
 73
4
 74
0
 40
0
 40
0
 40
0
 40
0
 40
1
 40
1
 40
1
 40
1
 10
2.196134
 20
0.427107
 30
0.0
 10
2.295246
 20
0.435313
 30
0.0
 10
2.451559
 20
0.453340
 30
0.0
 10
2.561213
 20
0.560044
 30
0.0
  0
SPLINE
  5
1f1
100
AcDbEntity
  8
Layer_1
 62
7
100
AcDbSpline
 70
8
 71
3
 72
8
 73
4
 74
0
 40
0
 40
0
 40
0
 40
0
 40
1
 40
1
 40
1
 40
1
 10
2.561213
 20
0.560044
 30
0.0
 10
2.567529
 20
0.562326
 30
0.0
 10
2.575118
 20
0.563335
 30
0.0
 10
2.587007
 20
0.560044
 30
0.0
  0
SPLINE
  5
1f2
100
AcDbEntity
  8
Layer_1
 62
7
100
AcDbSpline
 70
8
 71
3
 72
8
 73
4
 74
0
 40
0
 40
0
 40
0
 40
0
 40
1
 40
1
 40
1
 40
1
 10
2.587007
 20
0.560044
 30
0.0
 10
2.676015
 20
0.493607
 30
0.0
 10
2.757894
 20
0.422894
 30
0.0
 10
2.858832
 20
0.363616
 30
0.0
  0
SPLINE
  5
1f3
100
AcDbEntity
  8
Layer_1
 62
7
100
AcDbSpline
 70
8
 71
3
 72
8
 73
4
 74
0
 40
0
 40
0
 40
0
 40
0
 40
1
 40
1
 40
1
 40
1
 10
2.858832
 20
0.363616
 30
0.0
 10
2.918560
 20
0.334058
 30
0.0
 10
2.937071
 20
0.329995
 30
0.0
 10
3.012449
 20
0.326137
 30
0.0
  0
SPLINE
  5
1f4
100
AcDbEntity
  8
Layer_1
 62
7
100
AcDbSpline
 70
8
 71
3
 72
8
 73
4
 74
0
 40
0
 40
0
 40
0
 40
0
 40
1
 40
1
 40
1
 40
1
 10
3.012449
 20
0.326137
 30
0.0
 10
3.110296
 20
0.329538
 30
0.0
 10
3.150928
 20
0.390930
 30
0.0
 10
3.135128
 20
0.458551
 30
0.0
  0
SPLINE
  5
1f5
100
AcDbEntity
  8
Layer_1
 62
7
100
AcDbSpline
 70
8
 71
3
 72
8
 73
4
 74
0
 40
0
 40
0
 40
0
 40
0
 40
1
 40
1
 40
1
 40
1
 10
3.135128
 20
0.458551
 30
0.0
 10
3.113074
 20
0.545723
 30
0.0
 10
2.987146
 20
0.542131
 30
0.0
 10
2.987801
 20
0.625521
 30
0.0
  0
LWPOLYLINE
  5
1f6
100
AcDbEntity
  8
Layer_1
 62
7
100
AcDbPolyline
 90
2
 70
1
 10
2.472920
 20
0.649330
 30
0.0
 10
2.472920
 20
0.649330
 30
0.0
  0
SPLINE
  5
1f7
100
AcDbEntity
  8
Layer_1
 62
7
100
AcDbSpline
 70
8
 71
3
 72
8
 73
4
 74
0
 40
0
 40
0
 40
0
 40
0
 40
1
 40
1
 40
1
 40
1
 10
3.136610
 20
1.220759
 30
0.0
 10
3.194476
 20
1.222523
 30
0.0
 10
3.188046
 20
1.190131
 30
0.0
 10
3.188198
 20
1.161235
 30
0.0
  0
LWPOLYLINE
  5
1f8
100
AcDbEntity
  8
Layer_1
 62
7
100
AcDbPolyline
 90
3
 70
1
 10
2.987801
 20
0.625521
 30
0.0
 10
2.987801
 20
1.220759
 30
0.0
 10
3.136610
 20
1.220759
 30
0.0
  0
SPLINE
  5
1f9
100
AcDbEntity
  8
Layer_1
 62
7
100
AcDbSpline
 70
8
 71
3
 72
8
 73
4
 74
0
 40
0
 40
0
 40
0
 40
0
 40
1
 40
1
 40
1
 40
1
 10
2.690182
 20
1.155282
 30
0.0
 10
2.690965
 20
1.200401
 30
0.0
 10
2.715383
 20
1.216632
 30
0.0
 10
2.749705
 20
1.220759
 30
0.0
  0
LWPOLYLINE
  5
1fa
100
AcDbEntity
  8
Layer_1
 62
7
100
AcDbPolyline
 90
6
 70
1
 10
3.188198
 20
1.161235
 30
0.0
 10
3.231848
 20
1.161235
 30
0.0
 10
3.231848
 20
1.280282
 30
0.0
 10
2.668356
 20
1.280282
 30
0.0
 10
2.668356
 20
1.155282
 30
0.0
 10
2.690182
 20
1.155282
 30
0.0
  0
SPLINE
  5
1fb
100
AcDbEntity
  8
Layer_1
 62
7
100
AcDbSpline
 70
8
 71
3
 72
8
 73
4
 74
0
 40
0
 40
0
 40
0
 40
0
 40
1
 40
1
 40
1
 40
1
 10
2.882642
 20
0.641394
 30
0.0
 10
2.883738
 20
0.576152
 30
0.0
 10
2.821024
 20
0.565154
 30
0.0
 10
2.799309
 20
0.565996
 30
0.0
  0
LWPOLYLINE
  5
1fc
100
AcDbEntity
  8
Layer_1
 62
7
100
AcDbPolyline
 90
3
 70
1
 10
2.749705
 20
1.220759
 30
0.0
 10
2.882642
 20
1.220759
 30
0.0
 10
2.882642
 20
0.641394
 30
0.0
  0
SPLINE
  5
1fd
100
AcDbEntity
  8
Layer_1
 62
7
100
AcDbSpline
 70
8
 71
3
 72
8
 73
4
 74
0
 40
0
 40
0
 40
0
 40
0
 40
1
 40
1
 40
1
 40
1
 10
2.944150
 20
0.546155
 30
0.0
 10
3.064405
 20
0.537812
 30
0.0
 10
3.072140
 20
0.459560
 30
0.0
 10
3.025279
 20
0.411575
 30
0.0
  0
SPLINE
  5
1fe
100
AcDbEntity
  8
Layer_1
 62
7
100
AcDbSpline
 70
8
 71
3
 72
8
 73
4
 74
0
 40
0
 40
0
 40
0
 40
0
 40
1
 40
1
 40
1
 40
1
 10
3.025279
 20
0.411575
 30
0.0
 10
2.950571
 20
0.361864
 30
0.0
 10
2.873079
 20
0.389155
 30
0.0
 10
2.811213
 20
0.429092
 30
0.0
  0
SPLINE
  5
1ff
100
AcDbEntity
  8
Layer_1
 62
7
100
AcDbSpline
 70
8
 71
3
 72
8
 73
4
 74
0
 40
0
 40
0
 40
0
 40
0
 40
1
 40
1
 40
1
 40
1
 10
2.811213
 20
0.429092
 30
0.0
 10
2.721088
 20
0.483325
 30
0.0
 10
2.657768
 20
0.537557
 30
0.0
 10
2.581055
 20
0.591790
 30
0.0
  0
SPLINE
  5
200
100
AcDbEntity
  8
Layer_1
 62
7
100
AcDbSpline
 70
8
 71
3
 72
8
 73
4
 74
0
 40
0
 40
0
 40
0
 40
0
 40
1
 40
1
 40
1
 40
1
 10
2.581055
 20
0.591790
 30
0.0
 10
2.632425
 20
0.701132
 30
0.0
 10
2.607818
 20
0.780543
 30
0.0
 10
2.535881
 20
0.841309
 30
0.0
  0
SPLINE
  5
201
100
AcDbEntity
  8
Layer_1
 62
7
100
AcDbSpline
 70
8
 71
3
 72
8
 73
4
 74
0
 40
0
 40
0
 40
0
 40
0
 40
1
 40
1
 40
1
 40
1
 10
2.535881
 20
0.841309
 30
0.0
 10
2.434308
 20
0.934078
 30
0.0
 10
2.239126
 20
0.954808
 30
0.0
 10
2.195893
 20
1.041947
 30
0.0
  0
SPLINE
  5
202
100
AcDbEntity
  8
Layer_1
 62
7
100
AcDbSpline
 70
8
 71
3
 72
8
 73
4
 74
0
 40
0
 40
0
 40
0
 40
0
 40
1
 40
1
 40
1
 40
1
 10
2.195893
 20
1.041947
 30
0.0
 10
2.168592
 20
1.116172
 30
0.0
 10
2.181795
 20
1.188074
 30
0.0
 10
2.286702
 20
1.213885
 30
0.0
  0
SPLINE
  5
203
100
AcDbEntity
  8
Layer_1
 62
7
100
AcDbSpline
 70
8
 71
3
 72
8
 73
4
 74
0
 40
0
 40
0
 40
0
 40
0
 40
1
 40
1
 40
1
 40
1
 10
2.286702
 20
1.213885
 30
0.0
 10
2.408441
 20
1.234965
 30
0.0
 10
2.452063
 20
1.166270
 30
0.0
 10
2.462007
 20
1.069965
 30
0.0
  0
LWPOLYLINE
  5
204
100
AcDbEntity
  8
Layer_1
 62
7
100
AcDbPolyline
 90
3
 70
1
 10
2.799309
 20
0.565996
 30
0.0
 10
2.799309
 20
0.544172
 30
0.0
 10
2.944150
 20
0.546155
 30
0.0
  0
SPLINE
  5
205
100
AcDbEntity
  8
Layer_1
 62
7
100
AcDbSpline
 70
8
 71
3
 72
8
 73
4
 74
0
 40
0
 40
0
 40
0
 40
0
 40
1
 40
1
 40
1
 40
1
 10
2.644295
 20
0.834657
 30
0.0
 10
2.705058
 20
0.820637
 30
0.0
 10
2.749364
 20
0.898263
 30
0.0
 10
2.684982
 20
0.917433
 30
0.0
  0
LWPOLYLINE
  5
206
100
AcDbEntity
  8
Layer_1
 62
7
100
AcDbPolyline
 90
3
 70
1
 10
2.462007
 20
1.069965
 30
0.0
 10
2.493753
 20
1.069965
 30
0.0
 10
2.493753
 20
1.194965
 30
0.0
  0
SPLINE
  5
207
100
AcDbEntity
  8
Layer_1
 62
7
100
AcDbSpline
 70
8
 71
3
 72
8
 73
4
 74
0
 40
0
 40
0
 40
0
 40
0
 40
1
 40
1
 40
1
 40
1
 10
2.447876
 20
0.956717
 30
0.0
 10
2.358145
 20
0.969966
 30
0.0
 10
2.308343
 20
1.027058
 30
0.0
 10
2.315325
 20
1.063739
 30
0.0
  0
SPLINE
  5
208
100
AcDbEntity
  8
Layer_1
 62
7
100
AcDbSpline
 70
8
 71
3
 72
8
 73
4
 74
0
 40
0
 40
0
 40
0
 40
0
 40
1
 40
1
 40
1
 40
1
 10
2.315325
 20
1.063739
 30
0.0
 10
2.318589
 20
1.080891
 30
0.0
 10
2.332077
 20
1.099610
 30
0.0
 10
2.363697
 20
1.096315
 30
0.0
  0
SPLINE
  5
209
100
AcDbEntity
  8
Layer_1
 62
7
100
AcDbSpline
 70
8
 71
3
 72
8
 73
4
 74
0
 40
0
 40
0
 40
0
 40
0
 40
1
 40
1
 40
1
 40
1
 10
2.363697
 20
1.096315
 30
0.0
 10
2.347800
 20
1.071133
 30
0.0
 10
2.344547
 20
1.046924
 30
0.0
 10
2.377025
 20
1.025464
 30
0.0
  0
SPLINE
  5
20a
100
AcDbEntity
  8
Layer_1
 62
7
100
AcDbSpline
 70
8
 71
3
 72
8
 73
4
 74
0
 40
0
 40
0
 40
0
 40
0
 40
1
 40
1
 40
1
 40
1
 10
2.377025
 20
1.025464
 30
0.0
 10
2.441402
 20
0.969180
 30
0.0
 10
2.563857
 20
0.969317
 30
0.0
 10
2.692698
 20
0.975657
 30
0.0
  0
SPLINE
  5
20b
100
AcDbEntity
  8
Layer_1
 62
7
100
AcDbSpline
 70
8
 71
3
 72
8
 73
4
 74
0
 40
0
 40
0
 40
0
 40
0
 40
1
 40
1
 40
1
 40
1
 10
2.692698
 20
0.975657
 30
0.0
 10
2.739710
 20
0.975955
 30
0.0
 10
2.810570
 20
0.967542
 30
0.0
 10
2.811952
 20
0.867627
 30
0.0
  0
SPLINE
  5
20c
100
AcDbEntity
  8
Layer_1
 62
7
100
AcDbSpline
 70
8
 71
3
 72
8
 73
4
 74
0
 40
0
 40
0
 40
0
 40
0
 40
1
 40
1
 40
1
 40
1
 10
2.811952
 20
0.867627
 30
0.0
 10
2.803042
 20
0.780016
 30
0.0
 10
2.743210
 20
0.776004
 30
0.0
 10
2.715847
 20
0.773627
 30
0.0
  0
SPLINE
  5
20d
100
AcDbEntity
  8
Layer_1
 62
7
100
AcDbSpline
 70
8
 71
3
 72
8
 73
4
 74
0
 40
0
 40
0
 40
0
 40
0
 40
1
 40
1
 40
1
 40
1
 10
2.715847
 20
0.773627
 30
0.0
 10
2.654599
 20
0.780135
 30
0.0
 10
2.643532
 20
0.817323
 30
0.0
 10
2.644295
 20
0.834657
 30
0.0
  0
LWPOLYLINE
  5
20e
100
AcDbEntity
  8
Layer_1
 62
7
100
AcDbPolyline
 90
2
 70
1
 10
2.684982
 20
0.917433
 30
0.0
 10
2.447876
 20
0.956717
 30
0.0
  0
LWPOLYLINE
  5
20f
100
AcDbEntity
  8
Layer_1
 62
7
100
AcDbPolyline
 90
2
 70
1
 10
2.644295
 20
0.834657
 30
0.0
 10
2.644295
 20
0.834657
 30
0.0
  0
SPLINE
  5
210
100
AcDbEntity
  8
Layer_1
 62
7
100
AcDbSpline
 70
8
 71
3
 72
8
 73
4
 74
0
 40
0
 40
0
 40
0
 40
0
 40
1
 40
1
 40
1
 40
1
 10
1.695740
 20
1.140844
 30
0.0
 10
1.676118
 20
1.140230
 30
0.0
 10
1.677960
 20
1.144567
 30
0.0
 10
1.659249
 20
1.151989
 30
0.0
  0
LWPOLYLINE
  5
211
100
AcDbEntity
  8
Layer_1
 62
7
100
AcDbPolyline
 90
3
 70
1
 10
1.659249
 20
1.151989
 30
0.0
 10
1.749522
 20
1.242262
 30
0.0
 10
1.695740
 20
1.140844
 30
0.0
  0
LWPOLYLINE
  5
212
100
AcDbEntity
  8
Layer_1
 62
7
100
AcDbPolyline
 90
2
 70
1
 10
1.659249
 20
1.151989
 30
0.0
 10
1.659249
 20
1.151989
 30
0.0
  0
SPLINE
  5
213
100
AcDbEntity
  8
Layer_1
 62
7
100
AcDbSpline
 70
8
 71
3
 72
8
 73
4
 74
0
 40
0
 40
0
 40
0
 40
0
 40
1
 40
1
 40
1
 40
1
 10
1.644757
 20
1.196294
 30
0.0
 10
1.653397
 20
1.157030
 30
0.0
 10
1.648658
 20
1.190020
 30
0.0
 10
1.657202
 20
1.150419
 30
0.0
  0
LWPOLYLINE
  5
214
100
AcDbEntity
  8
Layer_1
 62
7
100
AcDbPolyline
 90
2
 70
1
 10
1.747197
 20
1.250614
 30
0.0
 10
1.644757
 20
1.196294
 30
0.0
  0
LWPOLYLINE
  5
215
100
AcDbEntity
  8
Layer_1
 62
7
100
AcDbPolyline
 90
3
 70
1
 10
1.657202
 20
1.150419
 30
0.0
 10
1.751538
 20
1.244755
 30
0.0
 10
1.747197
 20
1.250614
 30
0.0
  0
SPLINE
  5
216
100
AcDbEntity
  8
Layer_1
 62
7
100
AcDbSpline
 70
8
 71
3
 72
8
 73
4
 74
0
 40
0
 40
0
 40
0
 40
0
 40
1
 40
1
 40
1
 40
1
 10
1.653397
 20
1.157030
 30
0.0
 10
1.648658
 20
1.190020
 30
0.0
 10
1.654563
 20
1.203871
 30
0.0
 10
1.644449
 20
1.189318
 30
0.0
  0
LWPOLYLINE
  5
217
100
AcDbEntity
  8
Layer_1
 62
7
100
AcDbPolyline
 90
2
 70
1
 10
1.728968
 20
1.232602
 30
0.0
 10
1.653397
 20
1.157030
 30
0.0
  0
LWPOLYLINE
  5
218
100
AcDbEntity
  8
Layer_1
 62
7
100
AcDbPolyline
 90
2
 70
1
 10
1.644449
 20
1.189318
 30
0.0
 10
1.728968
 20
1.232602
 30
0.0
  0
LWPOLYLINE
  5
219
100
AcDbEntity
  8
Layer_1
 62
7
100
AcDbPolyline
 90
5
 70
1
 10
1.604086
 20
1.067939
 30
0.0
 10
1.745721
 20
0.936125
 30
0.0
 10
1.667295
 20
1.084013
 30
0.0
 10
1.602327
 20
1.076713
 30
0.0
 10
1.604086
 20
1.067939
 30
0.0
  0
SPLINE
  5
21a
100
AcDbEntity
  8
Layer_1
 62
7
100
AcDbSpline
 70
8
 71
3
 72
8
 73
4
 74
0
 40
0
 40
0
 40
0
 40
0
 40
1
 40
1
 40
1
 40
1
 10
1.655192
 20
1.026170
 30
0.0
 10
1.653939
 20
1.041071
 30
0.0
 10
1.641795
 20
1.002923
 30
0.0
 10
1.640328
 20
0.982432
 30
0.0
  0
LWPOLYLINE
  5
21b
100
AcDbEntity
  8
Layer_1
 62
7
100
AcDbPolyline
 90
4
 70
1
 10
1.640328
 20
0.982432
 30
0.0
 10
1.743400
 20
0.927762
 30
0.0
 10
1.747740
 20
0.933622
 30
0.0
 10
1.655192
 20
1.026170
 30
0.0
  0
LWPOLYLINE
  5
21c
100
AcDbEntity
  8
Layer_1
 62
7
100
AcDbPolyline
 90
2
 70
1
 10
1.640328
 20
0.982432
 30
0.0
 10
1.640328
 20
0.982432
 30
0.0
  0
SPLINE
  5
21d
100
AcDbEntity
  8
Layer_1
 62
7
100
AcDbSpline
 70
8
 71
3
 72
8
 73
4
 74
0
 40
0
 40
0
 40
0
 40
0
 40
1
 40
1
 40
1
 40
1
 10
1.644196
 20
0.988723
 30
0.0
 10
1.638713
 20
0.962423
 30
0.0
 10
1.646635
 20
1.042608
 30
0.0
 10
1.648581
 20
1.022364
 30
0.0
  0
LWPOLYLINE
  5
21e
100
AcDbEntity
  8
Layer_1
 62
7
100
AcDbPolyline
 90
3
 70
1
 10
1.648581
 20
1.022364
 30
0.0
 10
1.725170
 20
0.945775
 30
0.0
 10
1.644196
 20
0.988723
 30
0.0
  0
LWPOLYLINE
  5
21f
100
AcDbEntity
  8
Layer_1
 62
7
100
AcDbPolyline
 90
2
 70
1
 10
1.648581
 20
1.022364
 30
0.0
 10
1.648581
 20
1.022364
 30
0.0
  0
SPLINE
  5
220
100
AcDbEntity
  8
Layer_1
 62
7
100
AcDbSpline
 70
8
 71
3
 72
8
 73
4
 74
0
 40
0
 40
0
 40
0
 40
0
 40
1
 40
1
 40
1
 40
1
 10
1.477029
 20
1.138674
 30
0.0
 10
1.510832
 20
1.153990
 30
0.0
 10
1.477029
 20
1.138674
 30
0.0
 10
1.512178
 20
1.151942
 30
0.0
  0
LWPOLYLINE
  5
221
100
AcDbEntity
  8
Layer_1
 62
7
100
AcDbPolyline
 90
5
 70
1
 10
1.512178
 20
1.151942
 30
0.0
 10
1.510832
 20
1.153990
 30
0.0
 10
1.422454
 20
1.238861
 30
0.0
 10
1.474248
 20
1.141192
 30
0.0
 10
1.477029
 20
1.138674
 30
0.0
  0
LWPOLYLINE
  5
222
100
AcDbEntity
  8
Layer_1
 62
7
100
AcDbPolyline
 90
2
 70
1
 10
1.512178
 20
1.151942
 30
0.0
 10
1.512178
 20
1.151942
 30
0.0
  0
SPLINE
  5
223
100
AcDbEntity
  8
Layer_1
 62
7
100
AcDbSpline
 70
8
 71
3
 72
8
 73
4
 74
0
 40
0
 40
0
 40
0
 40
0
 40
1
 40
1
 40
1
 40
1
 10
1.508087
 20
1.153700
 30
0.0
 10
1.526477
 20
1.135310
 30
0.0
 10
1.522419
 20
1.171286
 30
0.0
 10
1.540809
 20
1.152897
 30
0.0
  0
LWPOLYLINE
  5
224
100
AcDbEntity
  8
Layer_1
 62
7
100
AcDbPolyline
 90
3
 70
1
 10
1.424780
 20
1.247229
 30
0.0
 10
1.420440
 20
1.241348
 30
0.0
 10
1.508087
 20
1.153700
 30
0.0
  0
LWPOLYLINE
  5
225
100
AcDbEntity
  8
Layer_1
 62
7
100
AcDbPolyline
 90
4
 70
1
 10
1.540809
 20
1.152897
 30
0.0
 10
1.566649
 20
1.118437
 30
0.0
 10
1.575019
 20
1.167541
 30
0.0
 10
1.424780
 20
1.247229
 30
0.0
  0
LWPOLYLINE
  5
226
100
AcDbEntity
  8
Layer_1
 62
7
100
AcDbPolyline
 90
6
 70
1
 10
1.443074
 20
1.229151
 30
0.0
 10
1.566859
 20
1.163526
 30
0.0
 10
1.560229
 20
1.124597
 30
0.0
 10
1.534545
 20
1.159077
 30
0.0
 10
1.520146
 20
1.152080
 30
0.0
 10
1.443074
 20
1.229151
 30
0.0
  0
LWPOLYLINE
  5
227
100
AcDbEntity
  8
Layer_1
 62
7
100
AcDbPolyline
 90
5
 70
1
 10
1.562279
 20
1.065239
 30
0.0
 10
1.426256
 20
0.932724
 30
0.0
 10
1.504682
 20
1.080612
 30
0.0
 10
1.564038
 20
1.070505
 30
0.0
 10
1.562279
 20
1.065239
 30
0.0
  0
LWPOLYLINE
  5
228
100
AcDbEntity
  8
Layer_1
 62
7
100
AcDbPolyline
 90
7
 70
1
 10
1.567054
 20
1.073053
 30
0.0
 10
1.560262
 20
1.066261
 30
0.0
 10
1.424237
 20
0.930236
 30
0.0
 10
1.428578
 20
0.924355
 30
0.0
 10
1.578816
 20
1.004043
 30
0.0
 10
1.567054
 20
1.073053
 30
0.0
 10
1.567054
 20
1.073053
 30
0.0
  0
LWPOLYLINE
  5
229
100
AcDbEntity
  8
Layer_1
 62
7
100
AcDbPolyline
 90
5
 70
1
 10
1.562193
 20
1.057754
 30
0.0
 10
1.570657
 20
1.008058
 30
0.0
 10
1.446850
 20
0.942411
 30
0.0
 10
1.562193
 20
1.057754
 30
0.0
 10
1.562193
 20
1.057754
 30
0.0
  0
LWPOLYLINE
  5
22a
100
AcDbEntity
  8
Layer_1
 62
7
100
AcDbPolyline
 90
6
 70
1
 10
1.582232
 20
1.096856
 30
0.0
 10
1.582232
 20
1.422350
 30
0.0
 10
1.516291
 20
1.151573
 30
0.0
 10
1.535415
 20
1.157633
 30
0.0
 10
1.582232
 20
1.092647
 30
0.0
 10
1.582232
 20
1.096856
 30
0.0
  0
LWPOLYLINE
  5
22b
100
AcDbEntity
  8
Layer_1
 62
7
100
AcDbPolyline
 90
7
 70
1
 10
1.593031
 20
1.429065
 30
0.0
 10
1.582072
 20
1.427741
 30
0.0
 10
1.582072
 20
1.102263
 30
0.0
 10
1.582072
 20
1.085640
 30
0.0
 10
1.659762
 20
1.155041
 30
0.0
 10
1.593031
 20
1.429065
 30
0.0
 10
1.593031
 20
1.429065
 30
0.0
  0
LWPOLYLINE
  5
22c
100
AcDbEntity
  8
Layer_1
 62
7
100
AcDbPolyline
 90
5
 70
1
 10
1.593183
 20
1.381517
 30
0.0
 10
1.647393
 20
1.158904
 30
0.0
 10
1.593183
 20
1.110466
 30
0.0
 10
1.593183
 20
1.381517
 30
0.0
 10
1.593183
 20
1.381517
 30
0.0
  0
LWPOLYLINE
  5
22d
100
AcDbEntity
  8
Layer_1
 62
7
100
AcDbPolyline
 90
5
 70
1
 10
1.579244
 20
1.083537
 30
0.0
 10
1.579244
 20
0.758043
 30
0.0
 10
1.513303
 20
1.028820
 30
0.0
 10
1.579244
 20
1.087746
 30
0.0
 10
1.579244
 20
1.083537
 30
0.0
  0
LWPOLYLINE
  5
22e
100
AcDbEntity
  8
Layer_1
 62
7
100
AcDbPolyline
 90
7
 70
1
 10
1.579098
 20
1.094755
 30
0.0
 10
1.579098
 20
1.078131
 30
0.0
 10
1.579098
 20
0.752654
 30
0.0
 10
1.590036
 20
0.751330
 30
0.0
 10
1.656768
 20
1.025354
 30
0.0
 10
1.579098
 20
1.094755
 30
0.0
 10
1.579098
 20
1.094755
 30
0.0
  0
LWPOLYLINE
  5
22f
100
AcDbEntity
  8
Layer_1
 62
7
100
AcDbPolyline
 90
5
 70
1
 10
1.590210
 20
1.069907
 30
0.0
 10
1.644398
 20
1.021491
 30
0.0
 10
1.590210
 20
0.798965
 30
0.0
 10
1.590210
 20
1.069907
 30
0.0
 10
1.590210
 20
1.069907
 30
0.0
  0
LWPOLYLINE
  5
230
100
AcDbEntity
  8
Layer_1
 62
7
100
AcDbPolyline
 90
5
 70
1
 10
1.584471
 20
1.087509
 30
0.0
 10
1.322114
 20
1.087509
 30
0.0
 10
1.540368
 20
1.021222
 30
0.0
 10
1.587863
 20
1.087509
 30
0.0
 10
1.584471
 20
1.087509
 30
0.0
  0
LWPOLYLINE
  5
231
100
AcDbEntity
  8
Layer_1
 62
7
100
AcDbPolyline
 90
7
 70
1
 10
1.537996
 20
1.165045
 30
0.0
 10
1.316316
 20
1.097728
 30
0.0
 10
1.317770
 20
1.087940
 30
0.0
 10
1.580118
 20
1.087940
 30
0.0
 10
1.593248
 20
1.087940
 30
0.0
 10
1.537996
 20
1.165045
 30
0.0
 10
1.537996
 20
1.165045
 30
0.0
  0
LWPOLYLINE
  5
232
100
AcDbEntity
  8
Layer_1
 62
7
100
AcDbPolyline
 90
5
 70
1
 10
1.534046
 20
1.153392
 30
0.0
 10
1.573782
 20
1.097945
 30
0.0
 10
1.351451
 20
1.097945
 30
0.0
 10
1.534046
 20
1.153392
 30
0.0
 10
1.534046
 20
1.153392
 30
0.0
  0
LWPOLYLINE
  5
233
100
AcDbEntity
  8
Layer_1
 62
7
100
AcDbPolyline
 90
5
 70
1
 10
1.586355
 20
1.089834
 30
0.0
 10
1.846027
 20
1.089834
 30
0.0
 10
1.648947
 20
1.032650
 30
0.0
 10
1.582997
 20
1.089834
 30
0.0
 10
1.586355
 20
1.089834
 30
0.0
  0
LWPOLYLINE
  5
234
100
AcDbEntity
  8
Layer_1
 62
7
100
AcDbPolyline
 90
6
 70
1
 10
1.654078
 20
1.160374
 30
0.0
 10
1.577688
 20
1.090284
 30
0.0
 10
1.590665
 20
1.090284
 30
0.0
 10
1.850344
 20
1.090284
 30
0.0
 10
1.851798
 20
1.100028
 30
0.0
 10
1.654078
 20
1.160374
 30
0.0
  0
SPLINE
  5
235
100
AcDbEntity
  8
Layer_1
 62
7
100
AcDbSpline
 70
8
 71
3
 72
8
 73
4
 74
0
 40
0
 40
0
 40
0
 40
0
 40
1
 40
1
 40
1
 40
1
 10
1.630531
 20
2.871686
 30
0.0
 10
1.569252
 20
2.845634
 30
0.0
 10
1.502960
 20
2.806852
 30
0.0
 10
1.433547
 20
2.766174
 30
0.0
  0
SPLINE
  5
236
100
AcDbEntity
  8
Layer_1
 62
7
100
AcDbSpline
 70
8
 71
3
 72
8
 73
4
 74
0
 40
0
 40
0
 40
0
 40
0
 40
1
 40
1
 40
1
 40
1
 10
1.433547
 20
2.766174
 30
0.0
 10
1.424147
 20
2.760665
 30
0.0
 10
1.414491
 20
2.755102
 30
0.0
 10
1.404988
 20
2.749551
 30
0.0
  0
SPLINE
  5
237
100
AcDbEntity
  8
Layer_1
 62
7
100
AcDbSpline
 70
8
 71
3
 72
8
 73
4
 74
0
 40
0
 40
0
 40
0
 40
0
 40
1
 40
1
 40
1
 40
1
 10
1.404988
 20
2.749551
 30
0.0
 10
1.409363
 20
2.743236
 30
0.0
 10
1.412701
 20
2.736538
 30
0.0
 10
1.414927
 20
2.729607
 30
0.0
  0
SPLINE
  5
238
100
AcDbEntity
  8
Layer_1
 62
7
100
AcDbSpline
 70
8
 71
3
 72
8
 73
4
 74
0
 40
0
 40
0
 40
0
 40
0
 40
1
 40
1
 40
1
 40
1
 10
1.414927
 20
2.729607
 30
0.0
 10
1.424863
 20
2.735412
 30
0.0
 10
1.434986
 20
2.741245
 30
0.0
 10
1.444789
 20
2.746990
 30
0.0
  0
SPLINE
  5
239
100
AcDbEntity
  8
Layer_1
 62
7
100
AcDbSpline
 70
8
 71
3
 72
8
 73
4
 74
0
 40
0
 40
0
 40
0
 40
0
 40
1
 40
1
 40
1
 40
1
 10
1.444789
 20
2.746990
 30
0.0
 10
1.518888
 20
2.790414
 30
0.0
 10
1.588973
 20
2.830892
 30
0.0
 10
1.651169
 20
2.855909
 30
0.0
  0
SPLINE
  5
23a
100
AcDbEntity
  8
Layer_1
 62
7
100
AcDbSpline
 70
8
 71
3
 72
8
 73
4
 74
0
 40
0
 40
0
 40
0
 40
0
 40
1
 40
1
 40
1
 40
1
 10
1.651169
 20
2.855909
 30
0.0
 10
1.643087
 20
2.860791
 30
0.0
 10
1.636166
 20
2.866082
 30
0.0
 10
1.630531
 20
2.871686
 30
0.0
  0
LWPOLYLINE
  5
23b
100
AcDbEntity
  8
Layer_1
 62
7
100
AcDbPolyline
 90
4
 70
1
 10
1.648930
 20
1.150847
 30
0.0
 10
1.817119
 20
1.100245
 30
0.0
 10
1.596937
 20
1.100245
 30
0.0
 10
1.648930
 20
1.150847
 30
0.0
  0
SPLINE
  5
23c
100
AcDbEntity
  8
Layer_1
 62
7
100
AcDbSpline
 70
8
 71
3
 72
8
 73
4
 74
0
 40
0
 40
0
 40
0
 40
0
 40
1
 40
1
 40
1
 40
1
 10
1.883091
 20
2.836421
 30
0.0
 10
1.875916
 20
2.834342
 30
0.0
 10
1.868440
 20
2.832507
 30
0.0
 10
1.860717
 20
2.830931
 30
0.0
  0
SPLINE
  5
23d
100
AcDbEntity
  8
Layer_1
 62
7
100
AcDbSpline
 70
8
 71
3
 72
8
 73
4
 74
0
 40
0
 40
0
 40
0
 40
0
 40
1
 40
1
 40
1
 40
1
 10
1.860717
 20
2.830931
 30
0.0
 10
1.861016
 20
2.830536
 30
0.0
 10
1.861332
 20
2.830202
 30
0.0
 10
1.861628
 20
2.829802
 30
0.0
  0
SPLINE
  5
23e
100
AcDbEntity
  8
Layer_1
 62
7
100
AcDbSpline
 70
8
 71
3
 72
8
 73
4
 74
0
 40
0
 40
0
 40
0
 40
0
 40
1
 40
1
 40
1
 40
1
 10
1.861628
 20
2.829802
 30
0.0
 10
1.862522
 20
2.826690
 30
0.0
 10
1.863265
 20
2.822991
 30
0.0
 10
1.864016
 20
2.819342
 30
0.0
  0
LWPOLYLINE
  5
23f
100
AcDbEntity
  8
Layer_1
 62
7
100
AcDbPolyline
 90
2
 70
1
 10
1.630531
 20
2.871686
 30
0.0
 10
1.630531
 20
2.871686
 30
0.0
  0
SPLINE
  5
240
100
AcDbEntity
  8
Layer_1
 62
7
100
AcDbSpline
 70
8
 71
3
 72
8
 73
4
 74
0
 40
0
 40
0
 40
0
 40
0
 40
1
 40
1
 40
1
 40
1
 10
1.829272
 20
2.535728
 30
0.0
 10
1.814292
 20
2.548599
 30
0.0
 10
1.794491
 20
2.557527
 30
0.0
 10
1.771893
 20
2.564005
 30
0.0
  0
LWPOLYLINE
  5
241
100
AcDbEntity
  8
Layer_1
 62
7
100
AcDbPolyline
 90
28
 70
1
 10
1.864016
 20
2.819342
 30
0.0
 10
1.773890
 20
2.805280
 30
0.0
 10
1.774541
 20
2.794234
 30
0.0
 10
1.835609
 20
2.791847
 30
0.0
 10
1.782549
 20
2.770731
 30
0.0
 10
1.838929
 20
2.759750
 30
0.0
 10
1.785283
 20
2.745948
 30
0.0
 10
1.785565
 20
2.735119
 30
0.0
 10
1.851429
 20
2.722055
 30
0.0
 10
1.830509
 20
2.710315
 30
0.0
 10
1.849042
 20
2.692172
 30
0.0
 10
1.771004
 20
2.700245
 30
0.0
 10
1.768899
 20
2.689373
 30
0.0
 10
1.823695
 20
2.673683
 30
0.0
 10
1.808439
 20
2.674095
 30
0.0
 10
1.853360
 20
2.640371
 30
0.0
 10
1.798977
 20
2.630453
 30
0.0
 10
1.837866
 20
2.609837
 30
0.0
 10
1.819333
 20
2.609381
 30
0.0
 10
1.818529
 20
2.598357
 30
0.0
 10
1.823738
 20
2.597446
 30
0.0
 10
1.822088
 20
2.597229
 30
0.0
 10
1.820895
 20
2.586531
 30
0.0
 10
1.844029
 20
2.577915
 30
0.0
 10
1.793095
 20
2.558775
 30
0.0
 10
1.849844
 20
2.547533
 30
0.0
 10
1.840209
 20
2.536856
 30
0.0
 10
1.829272
 20
2.535728
 30
0.0
  0
SPLINE
  5
242
100
AcDbEntity
  8
Layer_1
 62
7
100
AcDbSpline
 70
8
 71
3
 72
8
 73
4
 74
0
 40
0
 40
0
 40
0
 40
0
 40
1
 40
1
 40
1
 40
1
 10
1.771178
 20
2.564182
 30
0.0
 10
1.709734
 20
2.577456
 30
0.0
 10
1.642673
 20
2.554833
 30
0.0
 10
1.570678
 20
2.517980
 30
0.0
  0
SPLINE
  5
243
100
AcDbEntity
  8
Layer_1
 62
7
100
AcDbSpline
 70
8
 71
3
 72
8
 73
4
 74
0
 40
0
 40
0
 40
0
 40
0
 40
1
 40
1
 40
1
 40
1
 10
1.570678
 20
2.517980
 30
0.0
 10
1.498684
 20
2.481127
 30
0.0
 10
1.421200
 20
2.429440
 30
0.0
 10
1.339059
 20
2.381131
 30
0.0
  0
SPLINE
  5
244
100
AcDbEntity
  8
Layer_1
 62
7
100
AcDbSpline
 70
8
 71
3
 72
8
 73
4
 74
0
 40
0
 40
0
 40
0
 40
0
 40
1
 40
1
 40
1
 40
1
 10
1.339059
 20
2.381131
 30
0.0
 10
1.185433
 20
2.290778
 30
0.0
 10
1.017081
 20
2.213431
 30
0.0
 10
0.840210
 20
2.263097
 30
0.0
  0
LWPOLYLINE
  5
245
100
AcDbEntity
  8
Layer_1
 62
7
100
AcDbPolyline
 90
3
 70
1
 10
1.771893
 20
2.564005
 30
0.0
 10
1.771546
 20
2.564116
 30
0.0
 10
1.771178
 20
2.564182
 30
0.0
  0
SPLINE
  5
246
100
AcDbEntity
  8
Layer_1
 62
7
100
AcDbSpline
 70
8
 71
3
 72
8
 73
4
 74
0
 40
0
 40
0
 40
0
 40
0
 40
1
 40
1
 40
1
 40
1
 10
0.895483
 20
2.285840
 30
0.0
 10
0.826644
 20
2.286424
 30
0.0
 10
0.816310
 20
2.276891
 30
0.0
 10
0.886282
 20
2.308909
 30
0.0
  0
SPLINE
  5
247
100
AcDbEntity
  8
Layer_1
 62
7
100
AcDbSpline
 70
8
 71
3
 72
8
 73
4
 74
0
 40
0
 40
0
 40
0
 40
0
 40
1
 40
1
 40
1
 40
1
 10
0.886282
 20
2.308909
 30
0.0
 10
0.818127
 20
2.319037
 30
0.0
 10
0.815303
 20
2.312621
 30
0.0
 10
0.882310
 20
2.333518
 30
0.0
  0
LWPOLYLINE
  5
248
100
AcDbEntity
  8
Layer_1
 62
7
100
AcDbPolyline
 90
3
 70
1
 10
0.840210
 20
2.263097
 30
0.0
 10
0.896677
 20
2.274859
 30
0.0
 10
0.895483
 20
2.285840
 30
0.0
  0
SPLINE
  5
249
100
AcDbEntity
  8
Layer_1
 62
7
100
AcDbSpline
 70
8
 71
3
 72
8
 73
4
 74
0
 40
0
 40
0
 40
0
 40
0
 40
1
 40
1
 40
1
 40
1
 10
0.809957
 20
2.607845
 30
0.0
 10
0.811079
 20
2.606932
 30
0.0
 10
0.812180
 20
2.605979
 30
0.0
 10
0.813342
 20
2.605132
 30
0.0
  0
SPLINE
  5
24a
100
AcDbEntity
  8
Layer_1
 62
7
100
AcDbSpline
 70
8
 71
3
 72
8
 73
4
 74
0
 40
0
 40
0
 40
0
 40
0
 40
1
 40
1
 40
1
 40
1
 10
0.813342
 20
2.605132
 30
0.0
 10
0.829539
 20
2.593328
 30
0.0
 10
0.849396
 20
2.586198
 30
0.0
 10
0.866576
 20
2.580349
 30
0.0
  0
SPLINE
  5
24b
100
AcDbEntity
  8
Layer_1
 62
7
100
AcDbSpline
 70
8
 71
3
 72
8
 73
4
 74
0
 40
0
 40
0
 40
0
 40
0
 40
1
 40
1
 40
1
 40
1
 10
0.866576
 20
2.580349
 30
0.0
 10
0.866609
 20
2.580339
 30
0.0
 10
0.866631
 20
2.580339
 30
0.0
 10
0.866664
 20
2.580327
 30
0.0
  0
SPLINE
  5
24c
100
AcDbEntity
  8
Layer_1
 62
7
100
AcDbSpline
 70
8
 71
3
 72
8
 73
4
 74
0
 40
0
 40
0
 40
0
 40
0
 40
1
 40
1
 40
1
 40
1
 10
0.866664
 20
2.580327
 30
0.0
 10
0.866687
 20
2.580320
 30
0.0
 10
0.866709
 20
2.580317
 30
0.0
 10
0.866731
 20
2.580305
 30
0.0
  0
SPLINE
  5
24d
100
AcDbEntity
  8
Layer_1
 62
7
100
AcDbSpline
 70
8
 71
3
 72
8
 73
4
 74
0
 40
0
 40
0
 40
0
 40
0
 40
1
 40
1
 40
1
 40
1
 10
0.866731
 20
2.580305
 30
0.0
 10
0.959665
 20
2.547235
 30
0.0
 10
1.058825
 20
2.562551
 30
0.0
 10
1.156987
 20
2.599011
 30
0.0
  0
SPLINE
  5
24e
100
AcDbEntity
  8
Layer_1
 62
7
100
AcDbSpline
 70
8
 71
3
 72
8
 73
4
 74
0
 40
0
 40
0
 40
0
 40
0
 40
1
 40
1
 40
1
 40
1
 10
1.156987
 20
2.599011
 30
0.0
 10
1.185245
 20
2.609507
 30
0.0
 10
1.213453
 20
2.621881
 30
0.0
 10
1.241514
 20
2.635296
 30
0.0
  0
SPLINE
  5
24f
100
AcDbEntity
  8
Layer_1
 62
7
100
AcDbSpline
 70
8
 71
3
 72
8
 73
4
 74
0
 40
0
 40
0
 40
0
 40
0
 40
1
 40
1
 40
1
 40
1
 10
1.241514
 20
2.635296
 30
0.0
 10
1.233346
 20
2.639233
 30
0.0
 10
1.225865
 20
2.643936
 30
0.0
 10
1.219248
 20
2.649294
 30
0.0
  0
SPLINE
  5
250
100
AcDbEntity
  8
Layer_1
 62
7
100
AcDbSpline
 70
8
 71
3
 72
8
 73
4
 74
0
 40
0
 40
0
 40
0
 40
0
 40
1
 40
1
 40
1
 40
1
 10
1.219248
 20
2.649294
 30
0.0
 10
1.195902
 20
2.638448
 30
0.0
 10
1.172534
 20
2.628489
 30
0.0
 10
1.149261
 20
2.619845
 30
0.0
  0
SPLINE
  5
251
100
AcDbEntity
  8
Layer_1
 62
7
100
AcDbSpline
 70
8
 71
3
 72
8
 73
4
 74
0
 40
0
 40
0
 40
0
 40
0
 40
1
 40
1
 40
1
 40
1
 10
1.149261
 20
2.619845
 30
0.0
 10
1.070852
 20
2.590721
 30
0.0
 10
0.994086
 20
2.577765
 30
0.0
 10
0.921332
 20
2.590483
 30
0.0
  0
SPLINE
  5
252
100
AcDbEntity
  8
Layer_1
 62
7
100
AcDbSpline
 70
8
 71
3
 72
8
 73
4
 74
0
 40
0
 40
0
 40
0
 40
0
 40
1
 40
1
 40
1
 40
1
 10
0.921332
 20
2.590483
 30
0.0
 10
0.915453
 20
2.606113
 30
0.0
 10
0.913481
 20
2.620176
 30
0.0
 10
0.916232
 20
2.632605
 30
0.0
  0
SPLINE
  5
253
100
AcDbEntity
  8
Layer_1
 62
7
100
AcDbSpline
 70
8
 71
3
 72
8
 73
4
 74
0
 40
0
 40
0
 40
0
 40
0
 40
1
 40
1
 40
1
 40
1
 10
0.916232
 20
2.632605
 30
0.0
 10
0.919368
 20
2.646777
 30
0.0
 10
0.927659
 20
2.659823
 30
0.0
 10
0.942078
 20
2.672167
 30
0.0
  0
LWPOLYLINE
  5
254
100
AcDbEntity
  8
Layer_1
 62
7
100
AcDbPolyline
 90
26
 70
1
 10
0.882310
 20
2.333518
 30
0.0
 10
0.881464
 20
2.344326
 30
0.0
 10
0.815014
 20
2.354048
 30
0.0
 10
0.835326
 20
2.366830
 30
0.0
 10
0.815904
 20
2.384017
 30
0.0
 10
0.894246
 20
2.379894
 30
0.0
 10
0.895808
 20
2.390853
 30
0.0
 10
0.840318
 20
2.403744
 30
0.0
 10
0.855552
 20
2.404113
 30
0.0
 10
0.809003
 20
2.435515
 30
0.0
 10
0.862800
 20
2.448188
 30
0.0
 10
0.822892
 20
2.466808
 30
0.0
 10
0.841381
 20
2.468197
 30
0.0
 10
0.841641
 20
2.479265
 30
0.0
 10
0.836520
 20
2.479894
 30
0.0
 10
0.838039
 20
2.480176
 30
0.0
 10
0.838690
 20
2.490940
 30
0.0
 10
0.815144
 20
2.498383
 30
0.0
 10
0.865057
 20
2.520063
 30
0.0
 10
0.807809
 20
2.528418
 30
0.0
 10
0.816880
 20
2.539572
 30
0.0
 10
0.868074
 20
2.547450
 30
0.0
 10
0.817835
 20
2.570475
 30
0.0
 10
0.851646
 20
2.579221
 30
0.0
 10
0.810630
 20
2.592893
 30
0.0
 10
0.809957
 20
2.607845
 30
0.0
  0
SPLINE
  5
255
100
AcDbEntity
  8
Layer_1
 62
7
100
AcDbSpline
 70
8
 71
3
 72
8
 73
4
 74
0
 40
0
 40
0
 40
0
 40
0
 40
1
 40
1
 40
1
 40
1
 10
0.939539
 20
2.690678
 30
0.0
 10
0.905685
 20
2.706475
 30
0.0
 10
0.871543
 20
2.711372
 30
0.0
 10
0.843489
 20
2.706542
 30
0.0
  0
SPLINE
  5
256
100
AcDbEntity
  8
Layer_1
 62
7
100
AcDbSpline
 70
8
 71
3
 72
8
 73
4
 74
0
 40
0
 40
0
 40
0
 40
0
 40
1
 40
1
 40
1
 40
1
 10
0.843489
 20
2.706542
 30
0.0
 10
0.815435
 20
2.701712
 30
0.0
 10
0.792062
 20
2.685893
 30
0.0
 10
0.786501
 20
2.660557
 30
0.0
  0
LWPOLYLINE
  5
257
100
AcDbEntity
  8
Layer_1
 62
7
100
AcDbPolyline
 90
3
 70
1
 10
0.942078
 20
2.672167
 30
0.0
 10
0.955164
 20
2.683386
 30
0.0
 10
0.939539
 20
2.690678
 30
0.0
  0
SPLINE
  5
258
100
AcDbEntity
  8
Layer_1
 62
7
100
AcDbSpline
 70
8
 71
3
 72
8
 73
4
 74
0
 40
0
 40
0
 40
0
 40
0
 40
1
 40
1
 40
1
 40
1
 10
0.786283
 20
2.659059
 30
0.0
 10
0.786121
 20
2.657035
 30
0.0
 10
0.786217
 20
2.655102
 30
0.0
 10
0.786261
 20
2.653156
 30
0.0
  0
SPLINE
  5
259
100
AcDbEntity
  8
Layer_1
 62
7
100
AcDbSpline
 70
8
 71
3
 72
8
 73
4
 74
0
 40
0
 40
0
 40
0
 40
0
 40
1
 40
1
 40
1
 40
1
 10
0.786261
 20
2.653156
 30
0.0
 10
0.771920
 20
2.604097
 30
0.0
 10
0.767162
 20
2.529190
 30
0.0
 10
0.768140
 20
2.455261
 30
0.0
  0
SPLINE
  5
25a
100
AcDbEntity
  8
Layer_1
 62
7
100
AcDbSpline
 70
8
 71
3
 72
8
 73
4
 74
0
 40
0
 40
0
 40
0
 40
0
 40
1
 40
1
 40
1
 40
1
 10
0.768140
 20
2.455261
 30
0.0
 10
0.769178
 20
2.376856
 30
0.0
 10
0.776587
 20
2.301294
 30
0.0
 10
0.788735
 20
2.261099
 30
0.0
  0
LWPOLYLINE
  5
25b
100
AcDbEntity
  8
Layer_1
 62
7
100
AcDbPolyline
 90
3
 70
1
 10
0.786501
 20
2.660557
 30
0.0
 10
0.786328
 20
2.659819
 30
0.0
 10
0.786283
 20
2.659059
 30
0.0
  0
SPLINE
  5
25c
100
AcDbEntity
  8
Layer_1
 62
7
100
AcDbSpline
 70
8
 71
3
 72
8
 73
4
 74
0
 40
0
 40
0
 40
0
 40
0
 40
1
 40
1
 40
1
 40
1
 10
0.795397
 20
2.253916
 30
0.0
 10
0.995377
 20
2.177691
 30
0.0
 10
1.184646
 20
2.264526
 30
0.0
 10
1.350323
 20
2.361967
 30
0.0
  0
SPLINE
  5
25d
100
AcDbEntity
  8
Layer_1
 62
7
100
AcDbSpline
 70
8
 71
3
 72
8
 73
4
 74
0
 40
0
 40
0
 40
0
 40
0
 40
1
 40
1
 40
1
 40
1
 10
1.350323
 20
2.361967
 30
0.0
 10
1.433162
 20
2.410687
 30
0.0
 10
1.510558
 20
2.462256
 30
0.0
 10
1.580792
 20
2.498208
 30
0.0
  0
SPLINE
  5
25e
100
AcDbEntity
  8
Layer_1
 62
7
100
AcDbSpline
 70
8
 71
3
 72
8
 73
4
 74
0
 40
0
 40
0
 40
0
 40
0
 40
1
 40
1
 40
1
 40
1
 10
1.580792
 20
2.498208
 30
0.0
 10
1.631473
 20
2.524151
 30
0.0
 10
1.677978
 20
2.541166
 30
0.0
 10
1.719920
 20
2.544606
 30
0.0
  0
SPLINE
  5
25f
100
AcDbEntity
  8
Layer_1
 62
7
100
AcDbSpline
 70
8
 71
3
 72
8
 73
4
 74
0
 40
0
 40
0
 40
0
 40
0
 40
1
 40
1
 40
1
 40
1
 10
1.719920
 20
2.544606
 30
0.0
 10
1.731767
 20
2.505644
 30
0.0
 10
1.722005
 20
2.471476
 30
0.0
 10
1.691751
 20
2.437205
 30
0.0
  0
LWPOLYLINE
  5
260
100
AcDbEntity
  8
Layer_1
 62
7
100
AcDbPolyline
 90
3
 70
1
 10
0.788735
 20
2.261099
 30
0.0
 10
0.790297
 20
2.255869
 30
0.0
 10
0.795397
 20
2.253916
 30
0.0
  0
SPLINE
  5
261
100
AcDbEntity
  8
Layer_1
 62
7
100
AcDbSpline
 70
8
 71
3
 72
8
 73
4
 74
0
 40
0
 40
0
 40
0
 40
0
 40
1
 40
1
 40
1
 40
1
 10
1.695376
 20
2.419801
 30
0.0
 10
1.729179
 20
2.404028
 30
0.0
 10
1.759820
 20
2.400844
 30
0.0
 10
1.786131
 20
2.407258
 30
0.0
  0
SPLINE
  5
262
100
AcDbEntity
  8
Layer_1
 62
7
100
AcDbSpline
 70
8
 71
3
 72
8
 73
4
 74
0
 40
0
 40
0
 40
0
 40
0
 40
1
 40
1
 40
1
 40
1
 10
1.786131
 20
2.407258
 30
0.0
 10
1.812441
 20
2.413671
 30
0.0
 10
1.833927
 20
2.429446
 30
0.0
 10
1.850367
 20
2.449467
 30
0.0
  0
LWPOLYLINE
  5
263
100
AcDbEntity
  8
Layer_1
 62
7
100
AcDbPolyline
 90
3
 70
1
 10
1.691751
 20
2.437205
 30
0.0
 10
1.681921
 20
2.426073
 30
0.0
 10
1.695376
 20
2.419801
 30
0.0
  0
SPLINE
  5
264
100
AcDbEntity
  8
Layer_1
 62
7
100
AcDbSpline
 70
8
 71
3
 72
8
 73
4
 74
0
 40
0
 40
0
 40
0
 40
0
 40
1
 40
1
 40
1
 40
1
 10
1.852537
 20
2.453677
 30
0.0
 10
1.853453
 20
2.457149
 30
0.0
 10
1.854167
 20
2.460561
 30
0.0
 10
1.854707
 20
2.463920
 30
0.0
  0
SPLINE
  5
265
100
AcDbEntity
  8
Layer_1
 62
7
100
AcDbSpline
 70
8
 71
3
 72
8
 73
4
 74
0
 40
0
 40
0
 40
0
 40
0
 40
1
 40
1
 40
1
 40
1
 10
1.854707
 20
2.463920
 30
0.0
 10
1.880544
 20
2.519276
 30
0.0
 10
1.888137
 20
2.584963
 30
0.0
 10
1.888040
 20
2.649445
 30
0.0
  0
SPLINE
  5
266
100
AcDbEntity
  8
Layer_1
 62
7
100
AcDbSpline
 70
8
 71
3
 72
8
 73
4
 74
0
 40
0
 40
0
 40
0
 40
0
 40
1
 40
1
 40
1
 40
1
 10
1.888040
 20
2.649445
 30
0.0
 10
1.888182
 20
2.651000
 30
0.0
 10
1.888359
 20
2.652557
 30
0.0
 10
1.888496
 20
2.654111
 30
0.0
  0
SPLINE
  5
267
100
AcDbEntity
  8
Layer_1
 62
7
100
AcDbSpline
 70
8
 71
3
 72
8
 73
4
 74
0
 40
0
 40
0
 40
0
 40
0
 40
1
 40
1
 40
1
 40
1
 10
1.888496
 20
2.654111
 30
0.0
 10
1.894808
 20
2.725984
 30
0.0
 10
1.895052
 20
2.795048
 30
0.0
 10
1.883092
 20
2.836424
 30
0.0
  0
LWPOLYLINE
  5
268
100
AcDbEntity
  8
Layer_1
 62
7
100
AcDbPolyline
 90
3
 70
1
 10
1.850367
 20
2.449467
 30
0.0
 10
1.851908
 20
2.451333
 30
0.0
 10
1.852537
 20
2.453677
 30
0.0
  0
SPLINE
  5
269
100
AcDbEntity
  8
Layer_1
 62
7
100
AcDbSpline
 70
8
 71
3
 72
8
 73
4
 74
0
 40
0
 40
0
 40
0
 40
0
 40
1
 40
1
 40
1
 40
1
 10
0.862280
 20
2.685770
 30
0.0
 10
0.878186
 20
2.685649
 30
0.0
 10
0.896542
 20
2.681854
 30
0.0
 10
0.915253
 20
2.675158
 30
0.0
  0
SPLINE
  5
26a
100
AcDbEntity
  8
Layer_1
 62
7
100
AcDbSpline
 70
8
 71
3
 72
8
 73
4
 74
0
 40
0
 40
0
 40
0
 40
0
 40
1
 40
1
 40
1
 40
1
 10
0.915253
 20
2.675158
 30
0.0
 10
0.905446
 20
2.663634
 30
0.0
 10
0.897622
 20
2.651303
 30
0.0
 10
0.894550
 20
2.637420
 30
0.0
  0
SPLINE
  5
26b
100
AcDbEntity
  8
Layer_1
 62
7
100
AcDbSpline
 70
8
 71
3
 72
8
 73
4
 74
0
 40
0
 40
0
 40
0
 40
0
 40
1
 40
1
 40
1
 40
1
 10
0.894550
 20
2.637420
 30
0.0
 10
0.891648
 20
2.624308
 30
0.0
 10
0.893201
 20
2.610335
 30
0.0
 10
0.896720
 20
2.596100
 30
0.0
  0
SPLINE
  5
26c
100
AcDbEntity
  8
Layer_1
 62
7
100
AcDbSpline
 70
8
 71
3
 72
8
 73
4
 74
0
 40
0
 40
0
 40
0
 40
0
 40
1
 40
1
 40
1
 40
1
 10
0.896720
 20
2.596100
 30
0.0
 10
0.889201
 20
2.598099
 30
0.0
 10
0.881457
 20
2.598644
 30
0.0
 10
0.874042
 20
2.601287
 30
0.0
  0
LWPOLYLINE
  5
26d
100
AcDbEntity
  8
Layer_1
 62
7
100
AcDbPolyline
 90
2
 70
1
 10
1.883092
 20
2.836424
 30
0.0
 10
1.883091
 20
2.836421
 30
0.0
  0
SPLINE
  5
26e
100
AcDbEntity
  8
Layer_1
 62
7
100
AcDbSpline
 70
8
 71
3
 72
8
 73
4
 74
0
 40
0
 40
0
 40
0
 40
0
 40
1
 40
1
 40
1
 40
1
 10
0.873886
 20
2.601331
 30
0.0
 10
0.857077
 20
2.607052
 30
0.0
 10
0.838944
 20
2.613974
 30
0.0
 10
0.826425
 20
2.623098
 30
0.0
  0
SPLINE
  5
26f
100
AcDbEntity
  8
Layer_1
 62
7
100
AcDbSpline
 70
8
 71
3
 72
8
 73
4
 74
0
 40
0
 40
0
 40
0
 40
0
 40
1
 40
1
 40
1
 40
1
 10
0.826425
 20
2.623098
 30
0.0
 10
0.815836
 20
2.630815
 30
0.0
 10
0.809584
 20
2.638921
 30
0.0
 10
0.808652
 20
2.650658
 30
0.0
  0
SPLINE
  5
270
100
AcDbEntity
  8
Layer_1
 62
7
100
AcDbSpline
 70
8
 71
3
 72
8
 73
4
 74
0
 40
0
 40
0
 40
0
 40
0
 40
1
 40
1
 40
1
 40
1
 10
0.808652
 20
2.650658
 30
0.0
 10
0.809080
 20
2.652032
 30
0.0
 10
0.809446
 20
2.653671
 30
0.0
 10
0.809889
 20
2.654977
 30
0.0
  0
LWPOLYLINE
  5
271
100
AcDbEntity
  8
Layer_1
 62
7
100
AcDbPolyline
 90
3
 70
1
 10
0.874042
 20
2.601287
 30
0.0
 10
0.873953
 20
2.601309
 30
0.0
 10
0.873886
 20
2.601331
 30
0.0
  0
SPLINE
  5
272
100
AcDbEntity
  8
Layer_1
 62
7
100
AcDbSpline
 70
8
 71
3
 72
8
 73
4
 74
0
 40
0
 40
0
 40
0
 40
0
 40
1
 40
1
 40
1
 40
1
 10
0.808587
 20
2.655411
 30
0.0
 10
0.808598
 20
2.655739
 30
0.0
 10
0.808565
 20
2.656034
 30
0.0
 10
0.808587
 20
2.656366
 30
0.0
  0
SPLINE
  5
273
100
AcDbEntity
  8
Layer_1
 62
7
100
AcDbSpline
 70
8
 71
3
 72
8
 73
4
 74
0
 40
0
 40
0
 40
0
 40
0
 40
1
 40
1
 40
1
 40
1
 10
0.808587
 20
2.656366
 30
0.0
 10
0.812065
 20
2.670637
 30
0.0
 10
0.825129
 20
2.680833
 30
0.0
 10
0.847259
 20
2.684643
 30
0.0
  0
SPLINE
  5
274
100
AcDbEntity
  8
Layer_1
 62
7
100
AcDbSpline
 70
8
 71
3
 72
8
 73
4
 74
0
 40
0
 40
0
 40
0
 40
0
 40
1
 40
1
 40
1
 40
1
 10
0.847259
 20
2.684643
 30
0.0
 10
0.851937
 20
2.685448
 30
0.0
 10
0.856974
 20
2.685812
 30
0.0
 10
0.862276
 20
2.685771
 30
0.0
  0
LWPOLYLINE
  5
275
100
AcDbEntity
  8
Layer_1
 62
7
100
AcDbPolyline
 90
2
 70
1
 10
0.809889
 20
2.654977
 30
0.0
 10
0.808587
 20
2.655411
 30
0.0
  0
SPLINE
  5
276
100
AcDbEntity
  8
Layer_1
 62
7
100
AcDbSpline
 70
8
 71
3
 72
8
 73
4
 74
0
 40
0
 40
0
 40
0
 40
0
 40
1
 40
1
 40
1
 40
1
 10
0.800626
 20
2.616890
 30
0.0
 10
0.802219
 20
2.615041
 30
0.0
 10
0.803896
 20
2.613287
 30
0.0
 10
0.805661
 20
2.611617
 30
0.0
  0
LWPOLYLINE
  5
277
100
AcDbEntity
  8
Layer_1
 62
7
100
AcDbPolyline
 90
2
 70
1
 10
0.862276
 20
2.685771
 30
0.0
 10
0.862280
 20
2.685770
 30
0.0
  0
SPLINE
  5
278
100
AcDbEntity
  8
Layer_1
 62
7
100
AcDbSpline
 70
8
 71
3
 72
8
 73
4
 74
0
 40
0
 40
0
 40
0
 40
0
 40
1
 40
1
 40
1
 40
1
 10
0.799975
 20
2.612614
 30
0.0
 10
0.800207
 20
2.614002
 30
0.0
 10
0.800386
 20
2.615531
 30
0.0
 10
0.800626
 20
2.616890
 30
0.0
  0
LWPOLYLINE
  5
279
100
AcDbEntity
  8
Layer_1
 62
7
100
AcDbPolyline
 90
2
 70
1
 10
0.805661
 20
2.611617
 30
0.0
 10
0.799975
 20
2.612614
 30
0.0
  0
SPLINE
  5
27a
100
AcDbEntity
  8
Layer_1
 62
7
100
AcDbSpline
 70
8
 71
3
 72
8
 73
4
 74
0
 40
0
 40
0
 40
0
 40
0
 40
1
 40
1
 40
1
 40
1
 10
1.742532
 20
2.544169
 30
0.0
 10
1.750454
 20
2.543779
 30
0.0
 10
1.758603
 20
2.544080
 30
0.0
 10
1.766143
 20
2.542476
 30
0.0
  0
SPLINE
  5
27b
100
AcDbEntity
  8
Layer_1
 62
7
100
AcDbSpline
 70
8
 71
3
 72
8
 73
4
 74
0
 40
0
 40
0
 40
0
 40
0
 40
1
 40
1
 40
1
 40
1
 10
1.766143
 20
2.542476
 30
0.0
 10
1.776331
 20
2.539534
 30
0.0
 10
1.785293
 20
2.535951
 30
0.0
 10
1.793443
 20
2.532038
 30
0.0
  0
LWPOLYLINE
  5
27c
100
AcDbEntity
  8
Layer_1
 62
7
100
AcDbPolyline
 90
2
 70
1
 10
0.800626
 20
2.616890
 30
0.0
 10
0.800626
 20
2.616890
 30
0.0
  0
SPLINE
  5
27d
100
AcDbEntity
  8
Layer_1
 62
7
100
AcDbSpline
 70
8
 71
3
 72
8
 73
4
 74
0
 40
0
 40
0
 40
0
 40
0
 40
1
 40
1
 40
1
 40
1
 10
1.788690
 20
2.531560
 30
0.0
 10
1.798381
 20
2.528978
 30
0.0
 10
1.806015
 20
2.525271
 30
0.0
 10
1.812258
 20
2.520970
 30
0.0
  0
SPLINE
  5
27e
100
AcDbEntity
  8
Layer_1
 62
7
100
AcDbSpline
 70
8
 71
3
 72
8
 73
4
 74
0
 40
0
 40
0
 40
0
 40
0
 40
1
 40
1
 40
1
 40
1
 10
1.812258
 20
2.520970
 30
0.0
 10
1.816022
 20
2.518059
 30
0.0
 10
1.819317
 20
2.514992
 30
0.0
 10
1.822067
 20
2.511747
 30
0.0
  0
SPLINE
  5
27f
100
AcDbEntity
  8
Layer_1
 62
7
100
AcDbSpline
 70
8
 71
3
 72
8
 73
4
 74
0
 40
0
 40
0
 40
0
 40
0
 40
1
 40
1
 40
1
 40
1
 10
1.822067
 20
2.511747
 30
0.0
 10
1.831748
 20
2.500321
 30
0.0
 10
1.835611
 20
2.486673
 30
0.0
 10
1.832354
 20
2.467693
 30
0.0
  0
SPLINE
  5
280
100
AcDbEntity
  8
Layer_1
 62
7
100
AcDbSpline
 70
8
 71
3
 72
8
 73
4
 74
0
 40
0
 40
0
 40
0
 40
0
 40
1
 40
1
 40
1
 40
1
 10
1.832354
 20
2.467693
 30
0.0
 10
1.832254
 20
2.467388
 30
0.0
 10
1.832153
 20
2.467017
 30
0.0
 10
1.832049
 20
2.466716
 30
0.0
  0
LWPOLYLINE
  5
281
100
AcDbEntity
  8
Layer_1
 62
7
100
AcDbPolyline
 90
2
 70
1
 10
1.793443
 20
2.532038
 30
0.0
 10
1.788690
 20
2.531560
 30
0.0
  0
SPLINE
  5
282
100
AcDbEntity
  8
Layer_1
 62
7
100
AcDbSpline
 70
8
 71
3
 72
8
 73
4
 74
0
 40
0
 40
0
 40
0
 40
0
 40
1
 40
1
 40
1
 40
1
 10
1.832160
 20
2.466672
 30
0.0
 10
1.831861
 20
2.465038
 30
0.0
 10
1.831610
 20
2.463438
 30
0.0
 10
1.831206
 20
2.461724
 30
0.0
  0
SPLINE
  5
283
100
AcDbEntity
  8
Layer_1
 62
7
100
AcDbSpline
 70
8
 71
3
 72
8
 73
4
 74
0
 40
0
 40
0
 40
0
 40
0
 40
1
 40
1
 40
1
 40
1
 10
1.831206
 20
2.461724
 30
0.0
 10
1.817455
 20
2.445681
 30
0.0
 10
1.800897
 20
2.433704
 30
0.0
 10
1.780880
 20
2.428824
 30
0.0
  0
SPLINE
  5
284
100
AcDbEntity
  8
Layer_1
 62
7
100
AcDbSpline
 70
8
 71
3
 72
8
 73
4
 74
0
 40
0
 40
0
 40
0
 40
0
 40
1
 40
1
 40
1
 40
1
 10
1.780880
 20
2.428824
 30
0.0
 10
1.763284
 20
2.424535
 30
0.0
 10
1.741986
 20
2.427096
 30
0.0
 10
1.717903
 20
2.435877
 30
0.0
  0
SPLINE
  5
285
100
AcDbEntity
  8
Layer_1
 62
7
100
AcDbSpline
 70
8
 71
3
 72
8
 73
4
 74
0
 40
0
 40
0
 40
0
 40
0
 40
1
 40
1
 40
1
 40
1
 10
1.717903
 20
2.435877
 30
0.0
 10
1.742278
 20
2.468900
 30
0.0
 10
1.751758
 20
2.505633
 30
0.0
 10
1.742534
 20
2.544167
 30
0.0
  0
LWPOLYLINE
  5
286
100
AcDbEntity
  8
Layer_1
 62
7
100
AcDbPolyline
 90
2
 70
1
 10
1.832049
 20
2.466716
 30
0.0
 10
1.832160
 20
2.466672
 30
0.0
  0
SPLINE
  5
287
100
AcDbEntity
  8
Layer_1
 62
7
100
AcDbSpline
 70
8
 71
3
 72
8
 73
4
 74
0
 40
0
 40
0
 40
0
 40
0
 40
1
 40
1
 40
1
 40
1
 10
3.132614
 20
1.893930
 30
0.0
 10
3.128227
 20
1.893863
 30
0.0
 10
3.123784
 20
1.893640
 30
0.0
 10
3.119311
 20
1.893279
 30
0.0
  0
SPLINE
  5
288
100
AcDbEntity
  8
Layer_1
 62
7
100
AcDbSpline
 70
8
 71
3
 72
8
 73
4
 74
0
 40
0
 40
0
 40
0
 40
0
 40
1
 40
1
 40
1
 40
1
 10
3.119311
 20
1.893279
 30
0.0
 10
3.101419
 20
1.891833
 30
0.0
 10
3.082847
 20
1.888095
 30
0.0
 10
3.063734
 20
1.882580
 30
0.0
  0
SPLINE
  5
289
100
AcDbEntity
  8
Layer_1
 62
7
100
AcDbSpline
 70
8
 71
3
 72
8
 73
4
 74
0
 40
0
 40
0
 40
0
 40
0
 40
1
 40
1
 40
1
 40
1
 10
3.063734
 20
1.882580
 30
0.0
 10
2.987282
 20
1.860519
 30
0.0
 10
2.900921
 20
1.809969
 30
0.0
 10
2.809155
 20
1.756191
 30
0.0
  0
SPLINE
  5
28a
100
AcDbEntity
  8
Layer_1
 62
7
100
AcDbSpline
 70
8
 71
3
 72
8
 73
4
 74
0
 40
0
 40
0
 40
0
 40
0
 40
1
 40
1
 40
1
 40
1
 10
2.809155
 20
1.756191
 30
0.0
 10
2.717388
 20
1.702414
 30
0.0
 10
2.620408
 20
1.645346
 30
0.0
 10
2.524867
 20
1.609859
 30
0.0
  0
SPLINE
  5
28b
100
AcDbEntity
  8
Layer_1
 62
7
100
AcDbSpline
 70
8
 71
3
 72
8
 73
4
 74
0
 40
0
 40
0
 40
0
 40
0
 40
1
 40
1
 40
1
 40
1
 10
2.524867
 20
1.609859
 30
0.0
 10
2.446457
 20
1.580735
 30
0.0
 10
2.369691
 20
1.567779
 30
0.0
 10
2.296937
 20
1.580497
 30
0.0
  0
SPLINE
  5
28c
100
AcDbEntity
  8
Layer_1
 62
7
100
AcDbSpline
 70
8
 71
3
 72
8
 73
4
 74
0
 40
0
 40
0
 40
0
 40
0
 40
1
 40
1
 40
1
 40
1
 10
2.296937
 20
1.580497
 30
0.0
 10
2.291058
 20
1.596127
 30
0.0
 10
2.289087
 20
1.610190
 30
0.0
 10
2.291837
 20
1.622619
 30
0.0
  0
SPLINE
  5
28d
100
AcDbEntity
  8
Layer_1
 62
7
100
AcDbSpline
 70
8
 71
3
 72
8
 73
4
 74
0
 40
0
 40
0
 40
0
 40
0
 40
1
 40
1
 40
1
 40
1
 10
2.291837
 20
1.622619
 30
0.0
 10
2.294974
 20
1.636791
 30
0.0
 10
2.303264
 20
1.649837
 30
0.0
 10
2.317683
 20
1.662181
 30
0.0
  0
LWPOLYLINE
  5
28e
100
AcDbEntity
  8
Layer_1
 62
7
100
AcDbPolyline
 90
2
 70
1
 10
1.742534
 20
2.544167
 30
0.0
 10
1.742532
 20
2.544169
 30
0.0
  0
SPLINE
  5
28f
100
AcDbEntity
  8
Layer_1
 62
7
100
AcDbSpline
 70
8
 71
3
 72
8
 73
4
 74
0
 40
0
 40
0
 40
0
 40
0
 40
1
 40
1
 40
1
 40
1
 10
2.315144
 20
1.680692
 30
0.0
 10
2.281290
 20
1.696489
 30
0.0
 10
2.247148
 20
1.701386
 30
0.0
 10
2.219094
 20
1.696556
 30
0.0
  0
SPLINE
  5
290
100
AcDbEntity
  8
Layer_1
 62
7
100
AcDbSpline
 70
8
 71
3
 72
8
 73
4
 74
0
 40
0
 40
0
 40
0
 40
0
 40
1
 40
1
 40
1
 40
1
 10
2.219094
 20
1.696556
 30
0.0
 10
2.191040
 20
1.691726
 30
0.0
 10
2.167667
 20
1.675907
 30
0.0
 10
2.162106
 20
1.650571
 30
0.0
  0
LWPOLYLINE
  5
291
100
AcDbEntity
  8
Layer_1
 62
7
100
AcDbPolyline
 90
3
 70
1
 10
2.317683
 20
1.662181
 30
0.0
 10
2.330769
 20
1.673400
 30
0.0
 10
2.315144
 20
1.680692
 30
0.0
  0
SPLINE
  5
292
100
AcDbEntity
  8
Layer_1
 62
7
100
AcDbSpline
 70
8
 71
3
 72
8
 73
4
 74
0
 40
0
 40
0
 40
0
 40
0
 40
1
 40
1
 40
1
 40
1
 10
2.161888
 20
1.649073
 30
0.0
 10
2.161726
 20
1.647049
 30
0.0
 10
2.161822
 20
1.645116
 30
0.0
 10
2.161866
 20
1.643170
 30
0.0
  0
SPLINE
  5
293
100
AcDbEntity
  8
Layer_1
 62
7
100
AcDbSpline
 70
8
 71
3
 72
8
 73
4
 74
0
 40
0
 40
0
 40
0
 40
0
 40
1
 40
1
 40
1
 40
1
 10
2.161866
 20
1.643170
 30
0.0
 10
2.147525
 20
1.594111
 30
0.0
 10
2.142767
 20
1.519204
 30
0.0
 10
2.143746
 20
1.445275
 30
0.0
  0
SPLINE
  5
294
100
AcDbEntity
  8
Layer_1
 62
7
100
AcDbSpline
 70
8
 71
3
 72
8
 73
4
 74
0
 40
0
 40
0
 40
0
 40
0
 40
1
 40
1
 40
1
 40
1
 10
2.143746
 20
1.445275
 30
0.0
 10
2.144783
 20
1.366870
 30
0.0
 10
2.152192
 20
1.291308
 30
0.0
 10
2.164340
 20
1.251113
 30
0.0
  0
LWPOLYLINE
  5
295
100
AcDbEntity
  8
Layer_1
 62
7
100
AcDbPolyline
 90
3
 70
1
 10
2.162106
 20
1.650571
 30
0.0
 10
2.161933
 20
1.649833
 30
0.0
 10
2.161888
 20
1.649073
 30
0.0
  0
SPLINE
  5
296
100
AcDbEntity
  8
Layer_1
 62
7
100
AcDbSpline
 70
8
 71
3
 72
8
 73
4
 74
0
 40
0
 40
0
 40
0
 40
0
 40
1
 40
1
 40
1
 40
1
 10
2.167682
 20
1.245209
 30
0.0
 10
2.180157
 20
1.261360
 30
0.0
 10
2.202599
 20
1.275393
 30
0.0
 10
2.232135
 20
1.285509
 30
0.0
  0
SPLINE
  5
297
100
AcDbEntity
  8
Layer_1
 62
7
100
AcDbSpline
 70
8
 71
3
 72
8
 73
4
 74
0
 40
0
 40
0
 40
0
 40
0
 40
1
 40
1
 40
1
 40
1
 10
2.232135
 20
1.285509
 30
0.0
 10
2.239853
 20
1.288986
 30
0.0
 10
2.248107
 20
1.292614
 30
0.0
 10
2.261888
 20
1.298920
 30
0.0
  0
SPLINE
  5
298
100
AcDbEntity
  8
Layer_1
 62
7
100
AcDbSpline
 70
8
 71
3
 72
8
 73
4
 74
0
 40
0
 40
0
 40
0
 40
0
 40
1
 40
1
 40
1
 40
1
 10
2.261888
 20
1.298920
 30
0.0
 10
2.193733
 20
1.309049
 30
0.0
 10
2.190910
 20
1.302633
 30
0.0
 10
2.257917
 20
1.323530
 30
0.0
  0
LWPOLYLINE
  5
299
100
AcDbEntity
  8
Layer_1
 62
7
100
AcDbPolyline
 90
3
 70
1
 10
2.164340
 20
1.251113
 30
0.0
 10
2.165903
 20
1.245883
 30
0.0
 10
2.167682
 20
1.245209
 30
0.0
  0
SPLINE
  5
29a
100
AcDbEntity
  8
Layer_1
 62
7
100
AcDbSpline
 70
8
 71
3
 72
8
 73
4
 74
0
 40
0
 40
0
 40
0
 40
0
 40
1
 40
1
 40
1
 40
1
 10
2.185564
 20
1.597857
 30
0.0
 10
2.186686
 20
1.596943
 30
0.0
 10
2.187787
 20
1.595991
 30
0.0
 10
2.188949
 20
1.595144
 30
0.0
  0
SPLINE
  5
29b
100
AcDbEntity
  8
Layer_1
 62
7
100
AcDbSpline
 70
8
 71
3
 72
8
 73
4
 74
0
 40
0
 40
0
 40
0
 40
0
 40
1
 40
1
 40
1
 40
1
 10
2.188949
 20
1.595144
 30
0.0
 10
2.205147
 20
1.583339
 30
0.0
 10
2.225004
 20
1.576210
 30
0.0
 10
2.242183
 20
1.570361
 30
0.0
  0
SPLINE
  5
29c
100
AcDbEntity
  8
Layer_1
 62
7
100
AcDbSpline
 70
8
 71
3
 72
8
 73
4
 74
0
 40
0
 40
0
 40
0
 40
0
 40
1
 40
1
 40
1
 40
1
 10
2.242183
 20
1.570361
 30
0.0
 10
2.242216
 20
1.570351
 30
0.0
 10
2.242238
 20
1.570351
 30
0.0
 10
2.242272
 20
1.570339
 30
0.0
  0
SPLINE
  5
29d
100
AcDbEntity
  8
Layer_1
 62
7
100
AcDbSpline
 70
8
 71
3
 72
8
 73
4
 74
0
 40
0
 40
0
 40
0
 40
0
 40
1
 40
1
 40
1
 40
1
 10
2.242272
 20
1.570339
 30
0.0
 10
2.242294
 20
1.570332
 30
0.0
 10
2.242316
 20
1.570329
 30
0.0
 10
2.242338
 20
1.570317
 30
0.0
  0
SPLINE
  5
29e
100
AcDbEntity
  8
Layer_1
 62
7
100
AcDbSpline
 70
8
 71
3
 72
8
 73
4
 74
0
 40
0
 40
0
 40
0
 40
0
 40
1
 40
1
 40
1
 40
1
 10
2.242338
 20
1.570317
 30
0.0
 10
2.335272
 20
1.537246
 30
0.0
 10
2.434432
 20
1.552563
 30
0.0
 10
2.532594
 20
1.589023
 30
0.0
  0
SPLINE
  5
29f
100
AcDbEntity
  8
Layer_1
 62
7
100
AcDbSpline
 70
8
 71
3
 72
8
 73
4
 74
0
 40
0
 40
0
 40
0
 40
0
 40
1
 40
1
 40
1
 40
1
 10
2.532594
 20
1.589023
 30
0.0
 10
2.630810
 20
1.625503
 30
0.0
 10
2.728665
 20
1.683247
 30
0.0
 10
2.820398
 20
1.737005
 30
0.0
  0
SPLINE
  5
2a0
100
AcDbEntity
  8
Layer_1
 62
7
100
AcDbSpline
 70
8
 71
3
 72
8
 73
4
 74
0
 40
0
 40
0
 40
0
 40
0
 40
1
 40
1
 40
1
 40
1
 10
2.820398
 20
1.737005
 30
0.0
 10
2.912131
 20
1.790763
 30
0.0
 10
2.997924
 20
1.840454
 30
0.0
 10
3.069899
 20
1.861224
 30
0.0
  0
SPLINE
  5
2a1
100
AcDbEntity
  8
Layer_1
 62
7
100
AcDbSpline
 70
8
 71
3
 72
8
 73
4
 74
0
 40
0
 40
0
 40
0
 40
0
 40
1
 40
1
 40
1
 40
1
 10
3.069899
 20
1.861224
 30
0.0
 10
3.092391
 20
1.867714
 30
0.0
 10
3.113446
 20
1.871374
 30
0.0
 10
3.132877
 20
1.871684
 30
0.0
  0
SPLINE
  5
2a2
100
AcDbEntity
  8
Layer_1
 62
7
100
AcDbSpline
 70
8
 71
3
 72
8
 73
4
 74
0
 40
0
 40
0
 40
0
 40
0
 40
1
 40
1
 40
1
 40
1
 10
3.132877
 20
1.871684
 30
0.0
 10
3.144535
 20
1.871870
 30
0.0
 10
3.155607
 20
1.870847
 30
0.0
 10
3.166058
 20
1.868515
 30
0.0
  0
SPLINE
  5
2a3
100
AcDbEntity
  8
Layer_1
 62
7
100
AcDbSpline
 70
8
 71
3
 72
8
 73
4
 74
0
 40
0
 40
0
 40
0
 40
0
 40
1
 40
1
 40
1
 40
1
 10
3.166058
 20
1.868515
 30
0.0
 10
3.193347
 20
1.862427
 30
0.0
 10
3.216741
 20
1.847368
 30
0.0
 10
3.237239
 20
1.819817
 30
0.0
  0
SPLINE
  5
2a4
100
AcDbEntity
  8
Layer_1
 62
7
100
AcDbSpline
 70
8
 71
3
 72
8
 73
4
 74
0
 40
0
 40
0
 40
0
 40
0
 40
1
 40
1
 40
1
 40
1
 10
3.237239
 20
1.819817
 30
0.0
 10
3.238132
 20
1.816705
 30
0.0
 10
3.238875
 20
1.813006
 30
0.0
 10
3.239626
 20
1.809357
 30
0.0
  0
LWPOLYLINE
  5
2a5
100
AcDbEntity
  8
Layer_1
 62
7
100
AcDbPolyline
 90
26
 70
1
 10
2.257917
 20
1.323530
 30
0.0
 10
2.257070
 20
1.334337
 30
0.0
 10
2.190620
 20
1.344059
 30
0.0
 10
2.210933
 20
1.356841
 30
0.0
 10
2.191510
 20
1.374029
 30
0.0
 10
2.269852
 20
1.369906
 30
0.0
 10
2.271414
 20
1.380865
 30
0.0
 10
2.215924
 20
1.393755
 30
0.0
 10
2.231158
 20
1.394124
 30
0.0
 10
2.184609
 20
1.425526
 30
0.0
 10
2.238407
 20
1.438200
 30
0.0
 10
2.198498
 20
1.456820
 30
0.0
 10
2.216987
 20
1.458209
 30
0.0
 10
2.217247
 20
1.469276
 30
0.0
 10
2.212126
 20
1.469905
 30
0.0
 10
2.213645
 20
1.470187
 30
0.0
 10
2.214296
 20
1.480951
 30
0.0
 10
2.190750
 20
1.488395
 30
0.0
 10
2.240663
 20
1.510074
 30
0.0
 10
2.183415
 20
1.518430
 30
0.0
 10
2.192486
 20
1.529584
 30
0.0
 10
2.243680
 20
1.537462
 30
0.0
 10
2.193441
 20
1.560487
 30
0.0
 10
2.227252
 20
1.569232
 30
0.0
 10
2.186236
 20
1.582904
 30
0.0
 10
2.185564
 20
1.597857
 30
0.0
  0
SPLINE
  5
2a6
100
AcDbEntity
  8
Layer_1
 62
7
100
AcDbSpline
 70
8
 71
3
 72
8
 73
4
 74
0
 40
0
 40
0
 40
0
 40
0
 40
1
 40
1
 40
1
 40
1
 10
3.204881
 20
1.525743
 30
0.0
 10
3.189902
 20
1.538614
 30
0.0
 10
3.170101
 20
1.547542
 30
0.0
 10
3.147503
 20
1.554019
 30
0.0
  0
LWPOLYLINE
  5
2a7
100
AcDbEntity
  8
Layer_1
 62
7
100
AcDbPolyline
 90
28
 70
1
 10
3.239626
 20
1.809357
 30
0.0
 10
3.149500
 20
1.795295
 30
0.0
 10
3.150151
 20
1.784249
 30
0.0
 10
3.211219
 20
1.781862
 30
0.0
 10
3.158159
 20
1.760746
 30
0.0
 10
3.214539
 20
1.749765
 30
0.0
 10
3.160893
 20
1.735963
 30
0.0
 10
3.161175
 20
1.725134
 30
0.0
 10
3.227039
 20
1.712070
 30
0.0
 10
3.206119
 20
1.700330
 30
0.0
 10
3.224652
 20
1.682187
 30
0.0
 10
3.146614
 20
1.690260
 30
0.0
 10
3.144509
 20
1.679388
 30
0.0
 10
3.199305
 20
1.663698
 30
0.0
 10
3.184048
 20
1.664110
 30
0.0
 10
3.228970
 20
1.630386
 30
0.0
 10
3.174587
 20
1.620468
 30
0.0
 10
3.213476
 20
1.599852
 30
0.0
 10
3.194943
 20
1.599396
 30
0.0
 10
3.194139
 20
1.588372
 30
0.0
 10
3.199348
 20
1.587461
 30
0.0
 10
3.197698
 20
1.587244
 30
0.0
 10
3.196505
 20
1.576546
 30
0.0
 10
3.219638
 20
1.567930
 30
0.0
 10
3.168705
 20
1.548789
 30
0.0
 10
3.225454
 20
1.537548
 30
0.0
 10
3.215819
 20
1.526871
 30
0.0
 10
3.204881
 20
1.525743
 30
0.0
  0
SPLINE
  5
2a8
100
AcDbEntity
  8
Layer_1
 62
7
100
AcDbSpline
 70
8
 71
3
 72
8
 73
4
 74
0
 40
0
 40
0
 40
0
 40
0
 40
1
 40
1
 40
1
 40
1
 10
3.146787
 20
1.554197
 30
0.0
 10
3.085344
 20
1.567471
 30
0.0
 10
3.018283
 20
1.544848
 30
0.0
 10
2.946288
 20
1.507995
 30
0.0
  0
SPLINE
  5
2a9
100
AcDbEntity
  8
Layer_1
 62
7
100
AcDbSpline
 70
8
 71
3
 72
8
 73
4
 74
0
 40
0
 40
0
 40
0
 40
0
 40
1
 40
1
 40
1
 40
1
 10
2.946288
 20
1.507995
 30
0.0
 10
2.874294
 20
1.471142
 30
0.0
 10
2.796810
 20
1.419455
 30
0.0
 10
2.714669
 20
1.371146
 30
0.0
  0
SPLINE
  5
2aa
100
AcDbEntity
  8
Layer_1
 62
7
100
AcDbSpline
 70
8
 71
3
 72
8
 73
4
 74
0
 40
0
 40
0
 40
0
 40
0
 40
1
 40
1
 40
1
 40
1
 10
2.714669
 20
1.371146
 30
0.0
 10
2.642992
 20
1.328990
 30
0.0
 10
2.568083
 20
1.289854
 30
0.0
 10
2.490624
 20
1.264939
 30
0.0
  0
SPLINE
  5
2ab
100
AcDbEntity
  8
Layer_1
 62
7
100
AcDbSpline
 70
8
 71
3
 72
8
 73
4
 74
0
 40
0
 40
0
 40
0
 40
0
 40
1
 40
1
 40
1
 40
1
 10
2.490624
 20
1.264939
 30
0.0
 10
2.498510
 20
1.259626
 30
0.0
 10
2.505098
 20
1.253911
 30
0.0
 10
2.510264
 20
1.247904
 30
0.0
  0
SPLINE
  5
2ac
100
AcDbEntity
  8
Layer_1
 62
7
100
AcDbSpline
 70
8
 71
3
 72
8
 73
4
 74
0
 40
0
 40
0
 40
0
 40
0
 40
1
 40
1
 40
1
 40
1
 10
2.510264
 20
1.247904
 30
0.0
 10
2.585535
 20
1.273786
 30
0.0
 10
2.657754
 20
1.311886
 30
0.0
 10
2.725932
 20
1.351984
 30
0.0
  0
SPLINE
  5
2ad
100
AcDbEntity
  8
Layer_1
 62
7
100
AcDbSpline
 70
8
 71
3
 72
8
 73
4
 74
0
 40
0
 40
0
 40
0
 40
0
 40
1
 40
1
 40
1
 40
1
 10
2.725932
 20
1.351984
 30
0.0
 10
2.808771
 20
1.400704
 30
0.0
 10
2.886167
 20
1.452273
 30
0.0
 10
2.956401
 20
1.488225
 30
0.0
  0
SPLINE
  5
2ae
100
AcDbEntity
  8
Layer_1
 62
7
100
AcDbSpline
 70
8
 71
3
 72
8
 73
4
 74
0
 40
0
 40
0
 40
0
 40
0
 40
1
 40
1
 40
1
 40
1
 10
2.956401
 20
1.488225
 30
0.0
 10
3.007082
 20
1.514168
 30
0.0
 10
3.053587
 20
1.531183
 30
0.0
 10
3.095529
 20
1.534623
 30
0.0
  0
SPLINE
  5
2af
100
AcDbEntity
  8
Layer_1
 62
7
100
AcDbSpline
 70
8
 71
3
 72
8
 73
4
 74
0
 40
0
 40
0
 40
0
 40
0
 40
1
 40
1
 40
1
 40
1
 10
3.095529
 20
1.534623
 30
0.0
 10
3.107376
 20
1.495661
 30
0.0
 10
3.097614
 20
1.461493
 30
0.0
 10
3.067360
 20
1.427222
 30
0.0
  0
LWPOLYLINE
  5
2b0
100
AcDbEntity
  8
Layer_1
 62
7
100
AcDbPolyline
 90
3
 70
1
 10
3.147503
 20
1.554019
 30
0.0
 10
3.147156
 20
1.554131
 30
0.0
 10
3.146787
 20
1.554197
 30
0.0
  0
SPLINE
  5
2b1
100
AcDbEntity
  8
Layer_1
 62
7
100
AcDbSpline
 70
8
 71
3
 72
8
 73
4
 74
0
 40
0
 40
0
 40
0
 40
0
 40
1
 40
1
 40
1
 40
1
 10
3.070985
 20
1.409818
 30
0.0
 10
3.104788
 20
1.394045
 30
0.0
 10
3.135429
 20
1.390861
 30
0.0
 10
3.161740
 20
1.397274
 30
0.0
  0
SPLINE
  5
2b2
100
AcDbEntity
  8
Layer_1
 62
7
100
AcDbSpline
 70
8
 71
3
 72
8
 73
4
 74
0
 40
0
 40
0
 40
0
 40
0
 40
1
 40
1
 40
1
 40
1
 10
3.161740
 20
1.397274
 30
0.0
 10
3.188050
 20
1.403688
 30
0.0
 10
3.209536
 20
1.419463
 30
0.0
 10
3.225976
 20
1.439484
 30
0.0
  0
LWPOLYLINE
  5
2b3
100
AcDbEntity
  8
Layer_1
 62
7
100
AcDbPolyline
 90
3
 70
1
 10
3.067360
 20
1.427222
 30
0.0
 10
3.057530
 20
1.416090
 30
0.0
 10
3.070985
 20
1.409818
 30
0.0
  0
SPLINE
  5
2b4
100
AcDbEntity
  8
Layer_1
 62
7
100
AcDbSpline
 70
8
 71
3
 72
8
 73
4
 74
0
 40
0
 40
0
 40
0
 40
0
 40
1
 40
1
 40
1
 40
1
 10
3.228146
 20
1.443694
 30
0.0
 10
3.229062
 20
1.447166
 30
0.0
 10
3.229776
 20
1.450578
 30
0.0
 10
3.230316
 20
1.453937
 30
0.0
  0
SPLINE
  5
2b5
100
AcDbEntity
  8
Layer_1
 62
7
100
AcDbSpline
 70
8
 71
3
 72
8
 73
4
 74
0
 40
0
 40
0
 40
0
 40
0
 40
1
 40
1
 40
1
 40
1
 10
3.230316
 20
1.453937
 30
0.0
 10
3.256153
 20
1.509293
 30
0.0
 10
3.263746
 20
1.574980
 30
0.0
 10
3.263649
 20
1.639462
 30
0.0
  0
SPLINE
  5
2b6
100
AcDbEntity
  8
Layer_1
 62
7
100
AcDbSpline
 70
8
 71
3
 72
8
 73
4
 74
0
 40
0
 40
0
 40
0
 40
0
 40
1
 40
1
 40
1
 40
1
 10
3.263649
 20
1.639462
 30
0.0
 10
3.263791
 20
1.641017
 30
0.0
 10
3.263968
 20
1.642574
 30
0.0
 10
3.264105
 20
1.644128
 30
0.0
  0
SPLINE
  5
2b7
100
AcDbEntity
  8
Layer_1
 62
7
100
AcDbSpline
 70
8
 71
3
 72
8
 73
4
 74
0
 40
0
 40
0
 40
0
 40
0
 40
1
 40
1
 40
1
 40
1
 10
3.264105
 20
1.644128
 30
0.0
 10
3.270499
 20
1.716943
 30
0.0
 10
3.270733
 20
1.787002
 30
0.0
 10
3.258289
 20
1.828177
 30
0.0
  0
LWPOLYLINE
  5
2b8
100
AcDbEntity
  8
Layer_1
 62
7
100
AcDbPolyline
 90
3
 70
1
 10
3.225976
 20
1.439484
 30
0.0
 10
3.227517
 20
1.441350
 30
0.0
 10
3.228146
 20
1.443694
 30
0.0
  0
SPLINE
  5
2b9
100
AcDbEntity
  8
Layer_1
 62
7
100
AcDbSpline
 70
8
 71
3
 72
8
 73
4
 74
0
 40
0
 40
0
 40
0
 40
0
 40
1
 40
1
 40
1
 40
1
 10
3.256640
 20
1.831476
 30
0.0
 10
3.233174
 20
1.863849
 30
0.0
 10
3.203797
 20
1.882877
 30
0.0
 10
3.170876
 20
1.890222
 30
0.0
  0
SPLINE
  5
2ba
100
AcDbEntity
  8
Layer_1
 62
7
100
AcDbSpline
 70
8
 71
3
 72
8
 73
4
 74
0
 40
0
 40
0
 40
0
 40
0
 40
1
 40
1
 40
1
 40
1
 10
3.170876
 20
1.890222
 30
0.0
 10
3.158530
 20
1.892976
 30
0.0
 10
3.145776
 20
1.894136
 30
0.0
 10
3.132616
 20
1.893932
 30
0.0
  0
LWPOLYLINE
  5
2bb
100
AcDbEntity
  8
Layer_1
 62
7
100
AcDbPolyline
 90
3
 70
1
 10
3.258289
 20
1.828177
 30
0.0
 10
3.257746
 20
1.829957
 30
0.0
 10
3.256640
 20
1.831476
 30
0.0
  0
SPLINE
  5
2bc
100
AcDbEntity
  8
Layer_1
 62
7
100
AcDbSpline
 70
8
 71
3
 72
8
 73
4
 74
0
 40
0
 40
0
 40
0
 40
0
 40
1
 40
1
 40
1
 40
1
 10
2.237887
 20
1.675788
 30
0.0
 10
2.253794
 20
1.675667
 30
0.0
 10
2.272150
 20
1.671872
 30
0.0
 10
2.290861
 20
1.665176
 30
0.0
  0
SPLINE
  5
2bd
100
AcDbEntity
  8
Layer_1
 62
7
100
AcDbSpline
 70
8
 71
3
 72
8
 73
4
 74
0
 40
0
 40
0
 40
0
 40
0
 40
1
 40
1
 40
1
 40
1
 10
2.290861
 20
1.665176
 30
0.0
 10
2.281054
 20
1.653651
 30
0.0
 10
2.273230
 20
1.641321
 30
0.0
 10
2.270157
 20
1.627437
 30
0.0
  0
SPLINE
  5
2be
100
AcDbEntity
  8
Layer_1
 62
7
100
AcDbSpline
 70
8
 71
3
 72
8
 73
4
 74
0
 40
0
 40
0
 40
0
 40
0
 40
1
 40
1
 40
1
 40
1
 10
2.270157
 20
1.627437
 30
0.0
 10
2.267256
 20
1.614325
 30
0.0
 10
2.268809
 20
1.600352
 30
0.0
 10
2.272328
 20
1.586118
 30
0.0
  0
SPLINE
  5
2bf
100
AcDbEntity
  8
Layer_1
 62
7
100
AcDbSpline
 70
8
 71
3
 72
8
 73
4
 74
0
 40
0
 40
0
 40
0
 40
0
 40
1
 40
1
 40
1
 40
1
 10
2.272328
 20
1.586118
 30
0.0
 10
2.264809
 20
1.588116
 30
0.0
 10
2.257065
 20
1.588661
 30
0.0
 10
2.249650
 20
1.591304
 30
0.0
  0
LWPOLYLINE
  5
2c0
100
AcDbEntity
  8
Layer_1
 62
7
100
AcDbPolyline
 90
2
 70
1
 10
3.132616
 20
1.893932
 30
0.0
 10
3.132614
 20
1.893930
 30
0.0
  0
SPLINE
  5
2c1
100
AcDbEntity
  8
Layer_1
 62
7
100
AcDbSpline
 70
8
 71
3
 72
8
 73
4
 74
0
 40
0
 40
0
 40
0
 40
0
 40
1
 40
1
 40
1
 40
1
 10
2.249494
 20
1.591349
 30
0.0
 10
2.232685
 20
1.597069
 30
0.0
 10
2.214551
 20
1.603992
 30
0.0
 10
2.202033
 20
1.613115
 30
0.0
  0
SPLINE
  5
2c2
100
AcDbEntity
  8
Layer_1
 62
7
100
AcDbSpline
 70
8
 71
3
 72
8
 73
4
 74
0
 40
0
 40
0
 40
0
 40
0
 40
1
 40
1
 40
1
 40
1
 10
2.202033
 20
1.613115
 30
0.0
 10
2.191444
 20
1.620833
 30
0.0
 10
2.185192
 20
1.628938
 30
0.0
 10
2.184260
 20
1.640676
 30
0.0
  0
SPLINE
  5
2c3
100
AcDbEntity
  8
Layer_1
 62
7
100
AcDbSpline
 70
8
 71
3
 72
8
 73
4
 74
0
 40
0
 40
0
 40
0
 40
0
 40
1
 40
1
 40
1
 40
1
 10
2.184260
 20
1.640676
 30
0.0
 10
2.184688
 20
1.642050
 30
0.0
 10
2.185054
 20
1.643689
 30
0.0
 10
2.185497
 20
1.644994
 30
0.0
  0
LWPOLYLINE
  5
2c4
100
AcDbEntity
  8
Layer_1
 62
7
100
AcDbPolyline
 90
3
 70
1
 10
2.249650
 20
1.591304
 30
0.0
 10
2.249561
 20
1.591326
 30
0.0
 10
2.249494
 20
1.591349
 30
0.0
  0
SPLINE
  5
2c5
100
AcDbEntity
  8
Layer_1
 62
7
100
AcDbSpline
 70
8
 71
3
 72
8
 73
4
 74
0
 40
0
 40
0
 40
0
 40
0
 40
1
 40
1
 40
1
 40
1
 10
2.184195
 20
1.645429
 30
0.0
 10
2.184206
 20
1.645757
 30
0.0
 10
2.184172
 20
1.646051
 30
0.0
 10
2.184195
 20
1.646383
 30
0.0
  0
SPLINE
  5
2c6
100
AcDbEntity
  8
Layer_1
 62
7
100
AcDbSpline
 70
8
 71
3
 72
8
 73
4
 74
0
 40
0
 40
0
 40
0
 40
0
 40
1
 40
1
 40
1
 40
1
 10
2.184195
 20
1.646383
 30
0.0
 10
2.187673
 20
1.660654
 30
0.0
 10
2.200736
 20
1.670850
 30
0.0
 10
2.222867
 20
1.674660
 30
0.0
  0
SPLINE
  5
2c7
100
AcDbEntity
  8
Layer_1
 62
7
100
AcDbSpline
 70
8
 71
3
 72
8
 73
4
 74
0
 40
0
 40
0
 40
0
 40
0
 40
1
 40
1
 40
1
 40
1
 10
2.222867
 20
1.674660
 30
0.0
 10
2.227545
 20
1.675466
 30
0.0
 10
2.232582
 20
1.675829
 30
0.0
 10
2.237884
 20
1.675789
 30
0.0
  0
LWPOLYLINE
  5
2c8
100
AcDbEntity
  8
Layer_1
 62
7
100
AcDbPolyline
 90
2
 70
1
 10
2.185497
 20
1.644994
 30
0.0
 10
2.184195
 20
1.645429
 30
0.0
  0
SPLINE
  5
2c9
100
AcDbEntity
  8
Layer_1
 62
7
100
AcDbSpline
 70
8
 71
3
 72
8
 73
4
 74
0
 40
0
 40
0
 40
0
 40
0
 40
1
 40
1
 40
1
 40
1
 10
2.176234
 20
1.606907
 30
0.0
 10
2.177826
 20
1.605058
 30
0.0
 10
2.179504
 20
1.603304
 30
0.0
 10
2.181269
 20
1.601634
 30
0.0
  0
LWPOLYLINE
  5
2ca
100
AcDbEntity
  8
Layer_1
 62
7
100
AcDbPolyline
 90
2
 70
1
 10
2.237884
 20
1.675789
 30
0.0
 10
2.237887
 20
1.675788
 30
0.0
  0
SPLINE
  5
2cb
100
AcDbEntity
  8
Layer_1
 62
7
100
AcDbSpline
 70
8
 71
3
 72
8
 73
4
 74
0
 40
0
 40
0
 40
0
 40
0
 40
1
 40
1
 40
1
 40
1
 10
2.175583
 20
1.602632
 30
0.0
 10
2.175815
 20
1.604019
 30
0.0
 10
2.175994
 20
1.605549
 30
0.0
 10
2.176234
 20
1.606907
 30
0.0
  0
LWPOLYLINE
  5
2cc
100
AcDbEntity
  8
Layer_1
 62
7
100
AcDbPolyline
 90
2
 70
1
 10
2.181269
 20
1.601634
 30
0.0
 10
2.175583
 20
1.602632
 30
0.0
  0
SPLINE
  5
2cd
100
AcDbEntity
  8
Layer_1
 62
7
100
AcDbSpline
 70
8
 71
3
 72
8
 73
4
 74
0
 40
0
 40
0
 40
0
 40
0
 40
1
 40
1
 40
1
 40
1
 10
3.118139
 20
1.534186
 30
0.0
 10
3.126062
 20
1.533796
 30
0.0
 10
3.134211
 20
1.534097
 30
0.0
 10
3.141750
 20
1.532493
 30
0.0
  0
SPLINE
  5
2ce
100
AcDbEntity
  8
Layer_1
 62
7
100
AcDbSpline
 70
8
 71
3
 72
8
 73
4
 74
0
 40
0
 40
0
 40
0
 40
0
 40
1
 40
1
 40
1
 40
1
 10
3.141750
 20
1.532493
 30
0.0
 10
3.151939
 20
1.529552
 30
0.0
 10
3.160900
 20
1.525969
 30
0.0
 10
3.169051
 20
1.522055
 30
0.0
  0
LWPOLYLINE
  5
2cf
100
AcDbEntity
  8
Layer_1
 62
7
100
AcDbPolyline
 90
2
 70
1
 10
2.176234
 20
1.606907
 30
0.0
 10
2.176234
 20
1.606907
 30
0.0
  0
SPLINE
  5
2d0
100
AcDbEntity
  8
Layer_1
 62
7
100
AcDbSpline
 70
8
 71
3
 72
8
 73
4
 74
0
 40
0
 40
0
 40
0
 40
0
 40
1
 40
1
 40
1
 40
1
 10
3.164298
 20
1.521577
 30
0.0
 10
3.173988
 20
1.518996
 30
0.0
 10
3.181623
 20
1.515288
 30
0.0
 10
3.187866
 20
1.510987
 30
0.0
  0
SPLINE
  5
2d1
100
AcDbEntity
  8
Layer_1
 62
7
100
AcDbSpline
 70
8
 71
3
 72
8
 73
4
 74
0
 40
0
 40
0
 40
0
 40
0
 40
1
 40
1
 40
1
 40
1
 10
3.187866
 20
1.510987
 30
0.0
 10
3.191630
 20
1.508077
 30
0.0
 10
3.194925
 20
1.505010
 30
0.0
 10
3.197675
 20
1.501764
 30
0.0
  0
SPLINE
  5
2d2
100
AcDbEntity
  8
Layer_1
 62
7
100
AcDbSpline
 70
8
 71
3
 72
8
 73
4
 74
0
 40
0
 40
0
 40
0
 40
0
 40
1
 40
1
 40
1
 40
1
 10
3.197675
 20
1.501764
 30
0.0
 10
3.207356
 20
1.490338
 30
0.0
 10
3.211219
 20
1.476690
 30
0.0
 10
3.207961
 20
1.457710
 30
0.0
  0
SPLINE
  5
2d3
100
AcDbEntity
  8
Layer_1
 62
7
100
AcDbSpline
 70
8
 71
3
 72
8
 73
4
 74
0
 40
0
 40
0
 40
0
 40
0
 40
1
 40
1
 40
1
 40
1
 10
3.207961
 20
1.457710
 30
0.0
 10
3.207861
 20
1.457406
 30
0.0
 10
3.207761
 20
1.457034
 30
0.0
 10
3.207658
 20
1.456733
 30
0.0
  0
LWPOLYLINE
  5
2d4
100
AcDbEntity
  8
Layer_1
 62
7
100
AcDbPolyline
 90
2
 70
1
 10
3.169051
 20
1.522055
 30
0.0
 10
3.164298
 20
1.521577
 30
0.0
  0
SPLINE
  5
2d5
100
AcDbEntity
  8
Layer_1
 62
7
100
AcDbSpline
 70
8
 71
3
 72
8
 73
4
 74
0
 40
0
 40
0
 40
0
 40
0
 40
1
 40
1
 40
1
 40
1
 10
3.207769
 20
1.456689
 30
0.0
 10
3.207470
 20
1.455056
 30
0.0
 10
3.207219
 20
1.453455
 30
0.0
 10
3.206815
 20
1.451741
 30
0.0
  0
SPLINE
  5
2d6
100
AcDbEntity
  8
Layer_1
 62
7
100
AcDbSpline
 70
8
 71
3
 72
8
 73
4
 74
0
 40
0
 40
0
 40
0
 40
0
 40
1
 40
1
 40
1
 40
1
 10
3.206815
 20
1.451741
 30
0.0
 10
3.193064
 20
1.435698
 30
0.0
 10
3.176505
 20
1.423721
 30
0.0
 10
3.156489
 20
1.418842
 30
0.0
  0
SPLINE
  5
2d7
100
AcDbEntity
  8
Layer_1
 62
7
100
AcDbSpline
 70
8
 71
3
 72
8
 73
4
 74
0
 40
0
 40
0
 40
0
 40
0
 40
1
 40
1
 40
1
 40
1
 10
3.156489
 20
1.418842
 30
0.0
 10
3.138893
 20
1.414553
 30
0.0
 10
3.117595
 20
1.417113
 30
0.0
 10
3.093512
 20
1.425895
 30
0.0
  0
SPLINE
  5
2d8
100
AcDbEntity
  8
Layer_1
 62
7
100
AcDbSpline
 70
8
 71
3
 72
8
 73
4
 74
0
 40
0
 40
0
 40
0
 40
0
 40
1
 40
1
 40
1
 40
1
 10
3.093512
 20
1.425895
 30
0.0
 10
3.117886
 20
1.458917
 30
0.0
 10
3.127367
 20
1.495650
 30
0.0
 10
3.118143
 20
1.534185
 30
0.0
  0
LWPOLYLINE
  5
2d9
100
AcDbEntity
  8
Layer_1
 62
7
100
AcDbPolyline
 90
2
 70
1
 10
3.207658
 20
1.456733
 30
0.0
 10
3.207769
 20
1.456689
 30
0.0
  0
SPLINE
  5
2da
100
AcDbEntity
  8
Layer_1
 62
7
100
AcDbSpline
 70
8
 71
3
 72
8
 73
4
 74
0
 40
0
 40
0
 40
0
 40
0
 40
1
 40
1
 40
1
 40
1
 10
1.132642
 20
2.313021
 30
0.0
 10
1.107489
 20
2.381871
 30
0.0
 10
1.088080
 20
2.484958
 30
0.0
 10
1.052285
 20
2.508457
 30
0.0
  0
SPLINE
  5
2db
100
AcDbEntity
  8
Layer_1
 62
7
100
AcDbSpline
 70
8
 71
3
 72
8
 73
4
 74
0
 40
0
 40
0
 40
0
 40
0
 40
1
 40
1
 40
1
 40
1
 10
1.052285
 20
2.508457
 30
0.0
 10
1.027330
 20
2.531527
 30
0.0
 10
0.954441
 20
2.507077
 30
0.0
 10
0.950102
 20
2.443973
 30
0.0
  0
SPLINE
  5
2dc
100
AcDbEntity
  8
Layer_1
 62
7
100
AcDbSpline
 70
8
 71
3
 72
8
 73
4
 74
0
 40
0
 40
0
 40
0
 40
0
 40
1
 40
1
 40
1
 40
1
 10
0.950102
 20
2.443973
 30
0.0
 10
0.949973
 20
2.412806
 30
0.0
 10
0.949948
 20
2.381666
 30
0.0
 10
1.019547
 20
2.368576
 30
0.0
  0
SPLINE
  5
2dd
100
AcDbEntity
  8
Layer_1
 62
7
100
AcDbSpline
 70
8
 71
3
 72
8
 73
4
 74
0
 40
0
 40
0
 40
0
 40
0
 40
1
 40
1
 40
1
 40
1
 10
1.019547
 20
2.368576
 30
0.0
 10
0.988001
 20
2.355094
 30
0.0
 10
0.945306
 20
2.372896
 30
0.0
 10
0.933237
 20
2.421156
 30
0.0
  0
SPLINE
  5
2de
100
AcDbEntity
  8
Layer_1
 62
7
100
AcDbSpline
 70
8
 71
3
 72
8
 73
4
 74
0
 40
0
 40
0
 40
0
 40
0
 40
1
 40
1
 40
1
 40
1
 10
0.933237
 20
2.421156
 30
0.0
 10
0.930091
 20
2.447877
 30
0.0
 10
0.929271
 20
2.482344
 30
0.0
 10
0.961015
 20
2.511433
 30
0.0
  0
SPLINE
  5
2df
100
AcDbEntity
  8
Layer_1
 62
7
100
AcDbSpline
 70
8
 71
3
 72
8
 73
4
 74
0
 40
0
 40
0
 40
0
 40
0
 40
1
 40
1
 40
1
 40
1
 10
0.961015
 20
2.511433
 30
0.0
 10
0.976100
 20
2.520977
 30
0.0
 10
1.032917
 20
2.570611
 30
0.0
 10
1.095936
 20
2.510441
 30
0.0
  0
SPLINE
  5
2e0
100
AcDbEntity
  8
Layer_1
 62
7
100
AcDbSpline
 70
8
 71
3
 72
8
 73
4
 74
0
 40
0
 40
0
 40
0
 40
0
 40
1
 40
1
 40
1
 40
1
 10
1.095936
 20
2.510441
 30
0.0
 10
1.112601
 20
2.484678
 30
0.0
 10
1.122970
 20
2.449471
 30
0.0
 10
1.134626
 20
2.416195
 30
0.0
  0
SPLINE
  5
2e1
100
AcDbEntity
  8
Layer_1
 62
7
100
AcDbSpline
 70
8
 71
3
 72
8
 73
4
 74
0
 40
0
 40
0
 40
0
 40
0
 40
1
 40
1
 40
1
 40
1
 10
1.134626
 20
2.416195
 30
0.0
 10
1.153665
 20
2.431831
 30
0.0
 10
1.163754
 20
2.496138
 30
0.0
 10
1.178277
 20
2.536235
 30
0.0
  0
SPLINE
  5
2e2
100
AcDbEntity
  8
Layer_1
 62
7
100
AcDbSpline
 70
8
 71
3
 72
8
 73
4
 74
0
 40
0
 40
0
 40
0
 40
0
 40
1
 40
1
 40
1
 40
1
 10
1.178277
 20
2.536235
 30
0.0
 10
1.204665
 20
2.505456
 30
0.0
 10
1.225381
 20
2.470139
 30
0.0
 10
1.247721
 20
2.419171
 30
0.0
  0
SPLINE
  5
2e3
100
AcDbEntity
  8
Layer_1
 62
7
100
AcDbSpline
 70
8
 71
3
 72
8
 73
4
 74
0
 40
0
 40
0
 40
0
 40
0
 40
1
 40
1
 40
1
 40
1
 10
1.247721
 20
2.419171
 30
0.0
 10
1.274966
 20
2.413494
 30
0.0
 10
1.274404
 20
2.497935
 30
0.0
 10
1.276491
 20
2.567733
 30
0.0
  0
SPLINE
  5
2e4
100
AcDbEntity
  8
Layer_1
 62
7
100
AcDbSpline
 70
8
 71
3
 72
8
 73
4
 74
0
 40
0
 40
0
 40
0
 40
0
 40
1
 40
1
 40
1
 40
1
 10
1.276491
 20
2.567733
 30
0.0
 10
1.252026
 20
2.565607
 30
0.0
 10
1.242137
 20
2.574764
 30
0.0
 10
1.250698
 20
2.593774
 30
0.0
  0
SPLINE
  5
2e5
100
AcDbEntity
  8
Layer_1
 62
7
100
AcDbSpline
 70
8
 71
3
 72
8
 73
4
 74
0
 40
0
 40
0
 40
0
 40
0
 40
1
 40
1
 40
1
 40
1
 10
1.250698
 20
2.593774
 30
0.0
 10
1.257444
 20
2.601489
 30
0.0
 10
1.280227
 20
2.601218
 30
0.0
 10
1.282196
 20
2.583606
 30
0.0
  0
SPLINE
  5
2e6
100
AcDbEntity
  8
Layer_1
 62
7
100
AcDbSpline
 70
8
 71
3
 72
8
 73
4
 74
0
 40
0
 40
0
 40
0
 40
0
 40
1
 40
1
 40
1
 40
1
 10
1.282196
 20
2.583606
 30
0.0
 10
1.287365
 20
2.551227
 30
0.0
 10
1.312398
 20
2.419141
 30
0.0
 10
1.254666
 20
2.363616
 30
0.0
  0
SPLINE
  5
2e7
100
AcDbEntity
  8
Layer_1
 62
7
100
AcDbSpline
 70
8
 71
3
 72
8
 73
4
 74
0
 40
0
 40
0
 40
0
 40
0
 40
1
 40
1
 40
1
 40
1
 10
1.254666
 20
2.363616
 30
0.0
 10
1.235603
 20
2.390751
 30
0.0
 10
1.217808
 20
2.419197
 30
0.0
 10
1.206055
 20
2.453894
 30
0.0
  0
SPLINE
  5
2e8
100
AcDbEntity
  8
Layer_1
 62
7
100
AcDbSpline
 70
8
 71
3
 72
8
 73
4
 74
0
 40
0
 40
0
 40
0
 40
0
 40
1
 40
1
 40
1
 40
1
 10
1.206055
 20
2.453894
 30
0.0
 10
1.190753
 20
2.472583
 30
0.0
 10
1.177726
 20
2.461573
 30
0.0
 10
1.170340
 20
2.445957
 30
0.0
  0
LWPOLYLINE
  5
2e9
100
AcDbEntity
  8
Layer_1
 62
7
100
AcDbPolyline
 90
2
 70
1
 10
3.118143
 20
1.534185
 30
0.0
 10
3.118139
 20
1.534186
 30
0.0
  0
LWPOLYLINE
  5
2ea
100
AcDbEntity
  8
Layer_1
 62
7
100
AcDbPolyline
 90
2
 70
1
 10
1.170340
 20
2.445957
 30
0.0
 10
1.132642
 20
2.313021
 30
0.0
  0
SPLINE
  5
2eb
100
AcDbEntity
  8
Layer_1
 62
7
100
AcDbSpline
 70
8
 71
3
 72
8
 73
4
 74
0
 40
0
 40
0
 40
0
 40
0
 40
1
 40
1
 40
1
 40
1
 10
1.393059
 20
2.442485
 30
0.0
 10
1.377914
 20
2.485416
 30
0.0
 10
1.344754
 20
2.524224
 30
0.0
 10
1.372225
 20
2.576909
 30
0.0
  0
SPLINE
  5
2ec
100
AcDbEntity
  8
Layer_1
 62
7
100
AcDbSpline
 70
8
 71
3
 72
8
 73
4
 74
0
 40
0
 40
0
 40
0
 40
0
 40
1
 40
1
 40
1
 40
1
 10
1.372225
 20
2.576909
 30
0.0
 10
1.387095
 20
2.592999
 30
0.0
 10
1.402360
 20
2.601572
 30
0.0
 10
1.419844
 20
2.567981
 30
0.0
  0
SPLINE
  5
2ed
100
AcDbEntity
  8
Layer_1
 62
7
100
AcDbSpline
 70
8
 71
3
 72
8
 73
4
 74
0
 40
0
 40
0
 40
0
 40
0
 40
1
 40
1
 40
1
 40
1
 10
1.419844
 20
2.567981
 30
0.0
 10
1.429226
 20
2.533916
 30
0.0
 10
1.428486
 20
2.493242
 30
0.0
 10
1.464983
 20
2.498040
 30
0.0
  0
SPLINE
  5
2ee
100
AcDbEntity
  8
Layer_1
 62
7
100
AcDbSpline
 70
8
 71
3
 72
8
 73
4
 74
0
 40
0
 40
0
 40
0
 40
0
 40
1
 40
1
 40
1
 40
1
 10
1.464983
 20
2.498040
 30
0.0
 10
1.488648
 20
2.500185
 30
0.0
 10
1.498632
 20
2.519285
 30
0.0
 10
1.502682
 20
2.533755
 30
0.0
  0
SPLINE
  5
2ef
100
AcDbEntity
  8
Layer_1
 62
7
100
AcDbSpline
 70
8
 71
3
 72
8
 73
4
 74
0
 40
0
 40
0
 40
0
 40
0
 40
1
 40
1
 40
1
 40
1
 10
1.502682
 20
2.533755
 30
0.0
 10
1.484532
 20
2.522766
 30
0.0
 10
1.467912
 20
2.515345
 30
0.0
 10
1.461511
 20
2.531771
 30
0.0
  0
SPLINE
  5
2f0
100
AcDbEntity
  8
Layer_1
 62
7
100
AcDbSpline
 70
8
 71
3
 72
8
 73
4
 74
0
 40
0
 40
0
 40
0
 40
0
 40
1
 40
1
 40
1
 40
1
 10
1.461511
 20
2.531771
 30
0.0
 10
1.450979
 20
2.560657
 30
0.0
 10
1.454224
 20
2.590318
 30
0.0
 10
1.449606
 20
2.606671
 30
0.0
  0
SPLINE
  5
2f1
100
AcDbEntity
  8
Layer_1
 62
7
100
AcDbSpline
 70
8
 71
3
 72
8
 73
4
 74
0
 40
0
 40
0
 40
0
 40
0
 40
1
 40
1
 40
1
 40
1
 10
1.449606
 20
2.606671
 30
0.0
 10
1.444532
 20
2.642772
 30
0.0
 10
1.399811
 20
2.643537
 30
0.0
 10
1.388098
 20
2.620560
 30
0.0
  0
LWPOLYLINE
  5
2f2
100
AcDbEntity
  8
Layer_1
 62
7
100
AcDbPolyline
 90
2
 70
1
 10
1.369745
 20
2.427108
 30
0.0
 10
1.393059
 20
2.442485
 30
0.0
  0
SPLINE
  5
2f3
100
AcDbEntity
  8
Layer_1
 62
7
100
AcDbSpline
 70
8
 71
3
 72
8
 73
4
 74
0
 40
0
 40
0
 40
0
 40
0
 40
1
 40
1
 40
1
 40
1
 10
1.361338
 20
2.579305
 30
0.0
 10
1.350092
 20
2.569489
 30
0.0
 10
1.344575
 20
2.585825
 30
0.0
 10
1.341025
 20
2.592683
 30
0.0
  0
SPLINE
  5
2f4
100
AcDbEntity
  8
Layer_1
 62
7
100
AcDbSpline
 70
8
 71
3
 72
8
 73
4
 74
0
 40
0
 40
0
 40
0
 40
0
 40
1
 40
1
 40
1
 40
1
 10
1.341025
 20
2.592683
 30
0.0
 10
1.323361
 20
2.637929
 30
0.0
 10
1.321665
 20
2.664753
 30
0.0
 10
1.315678
 20
2.700917
 30
0.0
  0
SPLINE
  5
2f5
100
AcDbEntity
  8
Layer_1
 62
7
100
AcDbSpline
 70
8
 71
3
 72
8
 73
4
 74
0
 40
0
 40
0
 40
0
 40
0
 40
1
 40
1
 40
1
 40
1
 10
1.315678
 20
2.700917
 30
0.0
 10
1.312235
 20
2.725865
 30
0.0
 10
1.318265
 20
2.760745
 30
0.0
 10
1.350896
 20
2.744072
 30
0.0
  0
SPLINE
  5
2f6
100
AcDbEntity
  8
Layer_1
 62
7
100
AcDbSpline
 70
8
 71
3
 72
8
 73
4
 74
0
 40
0
 40
0
 40
0
 40
0
 40
1
 40
1
 40
1
 40
1
 10
1.350896
 20
2.744072
 30
0.0
 10
1.371542
 20
2.730750
 30
0.0
 10
1.355736
 20
2.658705
 30
0.0
 10
1.349904
 20
2.615104
 30
0.0
  0
SPLINE
  5
2f7
100
AcDbEntity
  8
Layer_1
 62
7
100
AcDbSpline
 70
8
 71
3
 72
8
 73
4
 74
0
 40
0
 40
0
 40
0
 40
0
 40
1
 40
1
 40
1
 40
1
 10
1.349904
 20
2.615104
 30
0.0
 10
1.366053
 20
2.655296
 30
0.0
 10
1.376054
 20
2.659288
 30
0.0
 10
1.379666
 20
2.705878
 30
0.0
  0
SPLINE
  5
2f8
100
AcDbEntity
  8
Layer_1
 62
7
100
AcDbSpline
 70
8
 71
3
 72
8
 73
4
 74
0
 40
0
 40
0
 40
0
 40
0
 40
1
 40
1
 40
1
 40
1
 10
1.379666
 20
2.705878
 30
0.0
 10
1.372463
 20
2.785649
 30
0.0
 10
1.342966
 20
2.780451
 30
0.0
 10
1.328574
 20
2.781275
 30
0.0
  0
SPLINE
  5
2f9
100
AcDbEntity
  8
Layer_1
 62
7
100
AcDbSpline
 70
8
 71
3
 72
8
 73
4
 74
0
 40
0
 40
0
 40
0
 40
0
 40
1
 40
1
 40
1
 40
1
 10
1.328574
 20
2.781275
 30
0.0
 10
1.271546
 20
2.772683
 30
0.0
 10
1.279772
 20
2.715802
 30
0.0
 10
1.292364
 20
2.661731
 30
0.0
  0
LWPOLYLINE
  5
2fa
100
AcDbEntity
  8
Layer_1
 62
7
100
AcDbPolyline
 90
2
 70
1
 10
1.388098
 20
2.620560
 30
0.0
 10
1.361338
 20
2.579305
 30
0.0
  0
LWPOLYLINE
  5
2fb
100
AcDbEntity
  8
Layer_1
 62
7
100
AcDbPolyline
 90
2
 70
1
 10
1.292364
 20
2.661731
 30
0.0
 10
1.369745
 20
2.427108
 30
0.0
  0
SPLINE
  5
2fc
100
AcDbEntity
  8
Layer_1
 62
7
100
AcDbSpline
 70
8
 71
3
 72
8
 73
4
 74
0
 40
0
 40
0
 40
0
 40
0
 40
1
 40
1
 40
1
 40
1
 10
1.528217
 20
2.688006
 30
0.0
 10
1.480871
 20
2.662739
 30
0.0
 10
1.483286
 20
2.626905
 30
0.0
 10
1.484023
 20
2.601722
 30
0.0
  0
SPLINE
  5
2fd
100
AcDbEntity
  8
Layer_1
 62
7
100
AcDbSpline
 70
8
 71
3
 72
8
 73
4
 74
0
 40
0
 40
0
 40
0
 40
0
 40
1
 40
1
 40
1
 40
1
 10
1.484023
 20
2.601722
 30
0.0
 10
1.482297
 20
2.574606
 30
0.0
 10
1.513628
 20
2.527451
 30
0.0
 10
1.549963
 20
2.528767
 30
0.0
  0
SPLINE
  5
2fe
100
AcDbEntity
  8
Layer_1
 62
7
100
AcDbSpline
 70
8
 71
3
 72
8
 73
4
 74
0
 40
0
 40
0
 40
0
 40
0
 40
1
 40
1
 40
1
 40
1
 10
1.549963
 20
2.528767
 30
0.0
 10
1.568081
 20
2.530388
 30
0.0
 10
1.623156
 20
2.547989
 30
0.0
 10
1.606083
 20
2.611543
 30
0.0
  0
SPLINE
  5
2ff
100
AcDbEntity
  8
Layer_1
 62
7
100
AcDbSpline
 70
8
 71
3
 72
8
 73
4
 74
0
 40
0
 40
0
 40
0
 40
0
 40
1
 40
1
 40
1
 40
1
 10
1.606083
 20
2.611543
 30
0.0
 10
1.611152
 20
2.613741
 30
0.0
 10
1.663956
 20
2.612244
 30
0.0
 10
1.691665
 20
2.692215
 30
0.0
  0
SPLINE
  5
300
100
AcDbEntity
  8
Layer_1
 62
7
100
AcDbSpline
 70
8
 71
3
 72
8
 73
4
 74
0
 40
0
 40
0
 40
0
 40
0
 40
1
 40
1
 40
1
 40
1
 10
1.691665
 20
2.692215
 30
0.0
 10
1.691654
 20
2.755581
 30
0.0
 10
1.653594
 20
2.760984
 30
0.0
 10
1.615202
 20
2.765872
 30
0.0
  0
SPLINE
  5
301
100
AcDbEntity
  8
Layer_1
 62
7
100
AcDbSpline
 70
8
 71
3
 72
8
 73
4
 74
0
 40
0
 40
0
 40
0
 40
0
 40
1
 40
1
 40
1
 40
1
 10
1.615202
 20
2.765872
 30
0.0
 10
1.562972
 20
2.760203
 30
0.0
 10
1.529213
 20
2.729135
 30
0.0
 10
1.491037
 20
2.704141
 30
0.0
  0
SPLINE
  5
302
100
AcDbEntity
  8
Layer_1
 62
7
100
AcDbSpline
 70
8
 71
3
 72
8
 73
4
 74
0
 40
0
 40
0
 40
0
 40
0
 40
1
 40
1
 40
1
 40
1
 10
1.491037
 20
2.704141
 30
0.0
 10
1.458170
 20
2.691350
 30
0.0
 10
1.442258
 20
2.699754
 30
0.0
 10
1.423694
 20
2.704842
 30
0.0
  0
SPLINE
  5
303
100
AcDbEntity
  8
Layer_1
 62
7
100
AcDbSpline
 70
8
 71
3
 72
8
 73
4
 74
0
 40
0
 40
0
 40
0
 40
0
 40
1
 40
1
 40
1
 40
1
 10
1.423694
 20
2.704842
 30
0.0
 10
1.403053
 20
2.703886
 30
0.0
 10
1.409078
 20
2.697218
 30
0.0
 10
1.413873
 20
2.690812
 30
0.0
  0
SPLINE
  5
304
100
AcDbEntity
  8
Layer_1
 62
7
100
AcDbSpline
 70
8
 71
3
 72
8
 73
4
 74
0
 40
0
 40
0
 40
0
 40
0
 40
1
 40
1
 40
1
 40
1
 10
1.413873
 20
2.690812
 30
0.0
 10
1.423817
 20
2.682283
 30
0.0
 10
1.437626
 20
2.677619
 30
0.0
 10
1.458769
 20
2.680289
 30
0.0
  0
SPLINE
  5
305
100
AcDbEntity
  8
Layer_1
 62
7
100
AcDbSpline
 70
8
 71
3
 72
8
 73
4
 74
0
 40
0
 40
0
 40
0
 40
0
 40
1
 40
1
 40
1
 40
1
 10
1.458769
 20
2.680289
 30
0.0
 10
1.496507
 20
2.684436
 30
0.0
 10
1.529796
 20
2.708606
 30
0.0
 10
1.563993
 20
2.728693
 30
0.0
  0
SPLINE
  5
306
100
AcDbEntity
  8
Layer_1
 62
7
100
AcDbSpline
 70
8
 71
3
 72
8
 73
4
 74
0
 40
0
 40
0
 40
0
 40
0
 40
1
 40
1
 40
1
 40
1
 10
1.563993
 20
2.728693
 30
0.0
 10
1.597045
 20
2.745906
 30
0.0
 10
1.649778
 20
2.757264
 30
0.0
 10
1.655889
 20
2.695021
 30
0.0
  0
SPLINE
  5
307
100
AcDbEntity
  8
Layer_1
 62
7
100
AcDbSpline
 70
8
 71
3
 72
8
 73
4
 74
0
 40
0
 40
0
 40
0
 40
0
 40
1
 40
1
 40
1
 40
1
 10
1.655889
 20
2.695021
 30
0.0
 10
1.660384
 20
2.671246
 30
0.0
 10
1.645478
 20
2.655554
 30
0.0
 10
1.627829
 20
2.641006
 30
0.0
  0
SPLINE
  5
308
100
AcDbEntity
  8
Layer_1
 62
7
100
AcDbSpline
 70
8
 71
3
 72
8
 73
4
 74
0
 40
0
 40
0
 40
0
 40
0
 40
1
 40
1
 40
1
 40
1
 10
1.627829
 20
2.641006
 30
0.0
 10
1.611956
 20
2.650854
 30
0.0
 10
1.595632
 20
2.660252
 30
0.0
 10
1.581530
 20
2.671872
 30
0.0
  0
LWPOLYLINE
  5
309
100
AcDbEntity
  8
Layer_1
 62
7
100
AcDbPolyline
 90
2
 70
1
 10
1.571008
 20
2.684499
 30
0.0
 10
1.528217
 20
2.688006
 30
0.0
  0
SPLINE
  5
30a
100
AcDbEntity
  8
Layer_1
 62
7
100
AcDbSpline
 70
8
 71
3
 72
8
 73
4
 74
0
 40
0
 40
0
 40
0
 40
0
 40
1
 40
1
 40
1
 40
1
 10
1.574515
 20
2.634692
 30
0.0
 10
1.580576
 20
2.632668
 30
0.0
 10
1.586433
 20
2.629017
 30
0.0
 10
1.590650
 20
2.612244
 30
0.0
  0
SPLINE
  5
30b
100
AcDbEntity
  8
Layer_1
 62
7
100
AcDbSpline
 70
8
 71
3
 72
8
 73
4
 74
0
 40
0
 40
0
 40
0
 40
0
 40
1
 40
1
 40
1
 40
1
 10
1.590650
 20
2.612244
 30
0.0
 10
1.587651
 20
2.582578
 30
0.0
 10
1.569287
 20
2.568814
 30
0.0
 10
1.551366
 20
2.570856
 30
0.0
  0
SPLINE
  5
30c
100
AcDbEntity
  8
Layer_1
 62
7
100
AcDbSpline
 70
8
 71
3
 72
8
 73
4
 74
0
 40
0
 40
0
 40
0
 40
0
 40
1
 40
1
 40
1
 40
1
 10
1.551366
 20
2.570856
 30
0.0
 10
1.523483
 20
2.582678
 30
0.0
 10
1.524327
 20
2.599963
 30
0.0
 10
1.522605
 20
2.619259
 30
0.0
  0
SPLINE
  5
30d
100
AcDbEntity
  8
Layer_1
 62
7
100
AcDbSpline
 70
8
 71
3
 72
8
 73
4
 74
0
 40
0
 40
0
 40
0
 40
0
 40
1
 40
1
 40
1
 40
1
 10
1.522605
 20
2.619259
 30
0.0
 10
1.527705
 20
2.634307
 30
0.0
 10
1.516798
 20
2.639635
 30
0.0
 10
1.571008
 20
2.684499
 30
0.0
  0
LWPOLYLINE
  5
30e
100
AcDbEntity
  8
Layer_1
 62
7
100
AcDbPolyline
 90
2
 70
1
 10
1.581530
 20
2.671872
 30
0.0
 10
1.574515
 20
2.634692
 30
0.0
  0
SPLINE
  5
30f
100
AcDbEntity
  8
Layer_1
 62
7
100
AcDbSpline
 70
8
 71
3
 72
8
 73
4
 74
0
 40
0
 40
0
 40
0
 40
0
 40
1
 40
1
 40
1
 40
1
 10
2.818967
 20
1.571928
 30
0.0
 10
2.804467
 20
1.593208
 30
0.0
 10
2.807874
 20
1.605534
 30
0.0
 10
2.807743
 20
1.619630
 30
0.0
  0
SPLINE
  5
310
100
AcDbEntity
  8
Layer_1
 62
7
100
AcDbSpline
 70
8
 71
3
 72
8
 73
4
 74
0
 40
0
 40
0
 40
0
 40
0
 40
1
 40
1
 40
1
 40
1
 10
2.807743
 20
1.619630
 30
0.0
 10
2.810016
 20
1.639003
 30
0.0
 10
2.815824
 20
1.652627
 30
0.0
 10
2.830893
 20
1.651197
 30
0.0
  0
SPLINE
  5
311
100
AcDbEntity
  8
Layer_1
 62
7
100
AcDbSpline
 70
8
 71
3
 72
8
 73
4
 74
0
 40
0
 40
0
 40
0
 40
0
 40
1
 40
1
 40
1
 40
1
 10
2.830893
 20
1.651197
 30
0.0
 10
2.842895
 20
1.649028
 30
0.0
 10
2.850787
 20
1.640284
 30
0.0
 10
2.844221
 20
1.608406
 30
0.0
  0
SPLINE
  5
312
100
AcDbEntity
  8
Layer_1
 62
7
100
AcDbSpline
 70
8
 71
3
 72
8
 73
4
 74
0
 40
0
 40
0
 40
0
 40
0
 40
1
 40
1
 40
1
 40
1
 10
2.844221
 20
1.608406
 30
0.0
 10
2.839720
 20
1.594288
 30
0.0
 10
2.830942
 20
1.582309
 30
0.0
 10
2.818967
 20
1.571928
 30
0.0
  0
LWPOLYLINE
  5
313
100
AcDbEntity
  8
Layer_1
 62
7
100
AcDbPolyline
 90
2
 70
1
 10
1.571008
 20
2.684499
 30
0.0
 10
1.571008
 20
2.684499
 30
0.0
  0
LWPOLYLINE
  5
314
100
AcDbEntity
  8
Layer_1
 62
7
100
AcDbPolyline
 90
2
 70
1
 10
2.818967
 20
1.571928
 30
0.0
 10
2.818967
 20
1.571928
 30
0.0
  0
SPLINE
  5
315
100
AcDbEntity
  8
Layer_1
 62
7
100
AcDbSpline
 70
8
 71
3
 72
8
 73
4
 74
0
 40
0
 40
0
 40
0
 40
0
 40
1
 40
1
 40
1
 40
1
 10
2.558011
 20
1.372703
 30
0.0
 10
2.546086
 20
1.342484
 30
0.0
 10
2.534160
 20
1.335914
 30
0.0
 10
2.522235
 20
1.333420
 30
0.0
  0
SPLINE
  5
316
100
AcDbEntity
  8
Layer_1
 62
7
100
AcDbSpline
 70
8
 71
3
 72
8
 73
4
 74
0
 40
0
 40
0
 40
0
 40
0
 40
1
 40
1
 40
1
 40
1
 10
2.522235
 20
1.333420
 30
0.0
 10
2.483503
 20
1.341211
 30
0.0
 10
2.467776
 20
1.369451
 30
0.0
 10
2.462608
 20
1.407077
 30
0.0
  0
SPLINE
  5
317
100
AcDbEntity
  8
Layer_1
 62
7
100
AcDbSpline
 70
8
 71
3
 72
8
 73
4
 74
0
 40
0
 40
0
 40
0
 40
0
 40
1
 40
1
 40
1
 40
1
 10
2.462608
 20
1.407077
 30
0.0
 10
2.462334
 20
1.433740
 30
0.0
 10
2.461382
 20
1.460517
 30
0.0
 10
2.482951
 20
1.483540
 30
0.0
  0
SPLINE
  5
318
100
AcDbEntity
  8
Layer_1
 62
7
100
AcDbSpline
 70
8
 71
3
 72
8
 73
4
 74
0
 40
0
 40
0
 40
0
 40
0
 40
1
 40
1
 40
1
 40
1
 10
2.482951
 20
1.483540
 30
0.0
 10
2.495969
 20
1.496117
 30
0.0
 10
2.509717
 20
1.502486
 30
0.0
 10
2.526444
 20
1.483540
 30
0.0
  0
LWPOLYLINE
  5
319
100
AcDbEntity
  8
Layer_1
 62
7
100
AcDbPolyline
 90
2
 70
1
 10
2.526444
 20
1.483540
 30
0.0
 10
2.558011
 20
1.372703
 30
0.0
  0
LWPOLYLINE
  5
31a
100
AcDbEntity
  8
Layer_1
 62
7
100
AcDbPolyline
 90
2
 70
1
 10
2.526444
 20
1.483540
 30
0.0
 10
2.526444
 20
1.483540
 30
0.0
  0
SPLINE
  5
31b
100
AcDbEntity
  8
Layer_1
 62
7
100
AcDbSpline
 70
8
 71
3
 72
8
 73
4
 74
0
 40
0
 40
0
 40
0
 40
0
 40
1
 40
1
 40
1
 40
1
 10
2.522523
 20
1.508457
 30
0.0
 10
2.508878
 20
1.524443
 30
0.0
 10
2.492144
 20
1.532708
 30
0.0
 10
2.467959
 20
1.522346
 30
0.0
  0
SPLINE
  5
31c
100
AcDbEntity
  8
Layer_1
 62
7
100
AcDbSpline
 70
8
 71
3
 72
8
 73
4
 74
0
 40
0
 40
0
 40
0
 40
0
 40
1
 40
1
 40
1
 40
1
 10
2.467959
 20
1.522346
 30
0.0
 10
2.426526
 20
1.495299
 30
0.0
 10
2.407610
 20
1.448805
 30
0.0
 10
2.424309
 20
1.371552
 30
0.0
  0
SPLINE
  5
31d
100
AcDbEntity
  8
Layer_1
 62
7
100
AcDbSpline
 70
8
 71
3
 72
8
 73
4
 74
0
 40
0
 40
0
 40
0
 40
0
 40
1
 40
1
 40
1
 40
1
 10
2.424309
 20
1.371552
 30
0.0
 10
2.433378
 20
1.329273
 30
0.0
 10
2.459610
 20
1.300119
 30
0.0
 10
2.513594
 20
1.292187
 30
0.0
  0
SPLINE
  5
31e
100
AcDbEntity
  8
Layer_1
 62
7
100
AcDbSpline
 70
8
 71
3
 72
8
 73
4
 74
0
 40
0
 40
0
 40
0
 40
0
 40
1
 40
1
 40
1
 40
1
 10
2.513594
 20
1.292187
 30
0.0
 10
2.537757
 20
1.296555
 30
0.0
 10
2.554559
 20
1.309335
 30
0.0
 10
2.560221
 20
1.334846
 30
0.0
  0
SPLINE
  5
31f
100
AcDbEntity
  8
Layer_1
 62
7
100
AcDbSpline
 70
8
 71
3
 72
8
 73
4
 74
0
 40
0
 40
0
 40
0
 40
0
 40
1
 40
1
 40
1
 40
1
 10
2.560221
 20
1.334846
 30
0.0
 10
2.564236
 20
1.343486
 30
0.0
 10
2.562108
 20
1.357501
 30
0.0
 10
2.586015
 20
1.348735
 30
0.0
  0
SPLINE
  5
320
100
AcDbEntity
  8
Layer_1
 62
7
100
AcDbSpline
 70
8
 71
3
 72
8
 73
4
 74
0
 40
0
 40
0
 40
0
 40
0
 40
1
 40
1
 40
1
 40
1
 10
2.586015
 20
1.348735
 30
0.0
 10
2.625430
 20
1.342719
 30
0.0
 10
2.637481
 20
1.364068
 30
0.0
 10
2.643555
 20
1.391394
 30
0.0
  0
LWPOLYLINE
  5
321
100
AcDbEntity
  8
Layer_1
 62
7
100
AcDbPolyline
 90
2
 70
1
 10
2.535420
 20
1.545163
 30
0.0
 10
2.522523
 20
1.508457
 30
0.0
  0
SPLINE
  5
322
100
AcDbEntity
  8
Layer_1
 62
7
100
AcDbSpline
 70
8
 71
3
 72
8
 73
4
 74
0
 40
0
 40
0
 40
0
 40
0
 40
1
 40
1
 40
1
 40
1
 10
2.689190
 20
1.501513
 30
0.0
 10
2.683969
 20
1.443613
 30
0.0
 10
2.780674
 20
1.402523
 30
0.0
 10
2.818158
 20
1.494568
 30
0.0
  0
SPLINE
  5
323
100
AcDbEntity
  8
Layer_1
 62
7
100
AcDbSpline
 70
8
 71
3
 72
8
 73
4
 74
0
 40
0
 40
0
 40
0
 40
0
 40
1
 40
1
 40
1
 40
1
 10
2.818158
 20
1.494568
 30
0.0
 10
2.873816
 20
1.480329
 30
0.0
 10
2.909269
 20
1.513237
 30
0.0
 10
2.933237
 20
1.572941
 30
0.0
  0
SPLINE
  5
324
100
AcDbEntity
  8
Layer_1
 62
7
100
AcDbSpline
 70
8
 71
3
 72
8
 73
4
 74
0
 40
0
 40
0
 40
0
 40
0
 40
1
 40
1
 40
1
 40
1
 10
2.933237
 20
1.572941
 30
0.0
 10
2.989182
 20
1.567592
 30
0.0
 10
3.010533
 20
1.613382
 30
0.0
 10
3.005658
 20
1.697941
 30
0.0
  0
LWPOLYLINE
  5
325
100
AcDbEntity
  8
Layer_1
 62
7
100
AcDbPolyline
 90
3
 70
1
 10
2.643555
 20
1.391394
 30
0.0
 10
2.651491
 20
1.516394
 30
0.0
 10
2.689190
 20
1.501513
 30
0.0
  0
SPLINE
  5
326
100
AcDbEntity
  8
Layer_1
 62
7
100
AcDbSpline
 70
8
 71
3
 72
8
 73
4
 74
0
 40
0
 40
0
 40
0
 40
0
 40
1
 40
1
 40
1
 40
1
 10
2.986809
 20
1.697941
 30
0.0
 10
2.992733
 20
1.622719
 30
0.0
 10
2.978230
 20
1.583856
 30
0.0
 10
2.939190
 20
1.595759
 30
0.0
  0
SPLINE
  5
327
100
AcDbEntity
  8
Layer_1
 62
7
100
AcDbSpline
 70
8
 71
3
 72
8
 73
4
 74
0
 40
0
 40
0
 40
0
 40
0
 40
1
 40
1
 40
1
 40
1
 10
2.939190
 20
1.595759
 30
0.0
 10
2.937616
 20
1.629005
 30
0.0
 10
2.912777
 20
1.625069
 30
0.0
 10
2.906947
 20
1.620808
 30
0.0
  0
SPLINE
  5
328
100
AcDbEntity
  8
Layer_1
 62
7
100
AcDbSpline
 70
8
 71
3
 72
8
 73
4
 74
0
 40
0
 40
0
 40
0
 40
0
 40
1
 40
1
 40
1
 40
1
 10
2.906947
 20
1.620808
 30
0.0
 10
2.900405
 20
1.615172
 30
0.0
 10
2.893722
 20
1.608178
 30
0.0
 10
2.901491
 20
1.592782
 30
0.0
  0
SPLINE
  5
329
100
AcDbEntity
  8
Layer_1
 62
7
100
AcDbSpline
 70
8
 71
3
 72
8
 73
4
 74
0
 40
0
 40
0
 40
0
 40
0
 40
1
 40
1
 40
1
 40
1
 10
2.901491
 20
1.592782
 30
0.0
 10
2.904378
 20
1.586319
 30
0.0
 10
2.910876
 20
1.581404
 30
0.0
 10
2.918356
 20
1.576909
 30
0.0
  0
SPLINE
  5
32a
100
AcDbEntity
  8
Layer_1
 62
7
100
AcDbSpline
 70
8
 71
3
 72
8
 73
4
 74
0
 40
0
 40
0
 40
0
 40
0
 40
1
 40
1
 40
1
 40
1
 10
2.918356
 20
1.576909
 30
0.0
 10
2.910797
 20
1.556695
 30
0.0
 10
2.898799
 20
1.540577
 30
0.0
 10
2.882642
 20
1.528298
 30
0.0
  0
SPLINE
  5
32b
100
AcDbEntity
  8
Layer_1
 62
7
100
AcDbSpline
 70
8
 71
3
 72
8
 73
4
 74
0
 40
0
 40
0
 40
0
 40
0
 40
1
 40
1
 40
1
 40
1
 10
2.882642
 20
1.528298
 30
0.0
 10
2.851981
 20
1.510273
 30
0.0
 10
2.828605
 20
1.522871
 30
0.0
 10
2.822126
 20
1.552108
 30
0.0
  0
SPLINE
  5
32c
100
AcDbEntity
  8
Layer_1
 62
7
100
AcDbSpline
 70
8
 71
3
 72
8
 73
4
 74
0
 40
0
 40
0
 40
0
 40
0
 40
1
 40
1
 40
1
 40
1
 10
2.822126
 20
1.552108
 30
0.0
 10
2.846503
 20
1.566846
 30
0.0
 10
2.872683
 20
1.575995
 30
0.0
 10
2.881650
 20
1.621552
 30
0.0
  0
SPLINE
  5
32d
100
AcDbEntity
  8
Layer_1
 62
7
100
AcDbSpline
 70
8
 71
3
 72
8
 73
4
 74
0
 40
0
 40
0
 40
0
 40
0
 40
1
 40
1
 40
1
 40
1
 10
2.881650
 20
1.621552
 30
0.0
 10
2.890014
 20
1.672874
 30
0.0
 10
2.858236
 20
1.697524
 30
0.0
 10
2.827086
 20
1.691989
 30
0.0
  0
SPLINE
  5
32e
100
AcDbEntity
  8
Layer_1
 62
7
100
AcDbSpline
 70
8
 71
3
 72
8
 73
4
 74
0
 40
0
 40
0
 40
0
 40
0
 40
1
 40
1
 40
1
 40
1
 10
2.827086
 20
1.691989
 30
0.0
 10
2.780521
 20
1.679488
 30
0.0
 10
2.763600
 20
1.645578
 30
0.0
 10
2.764586
 20
1.598735
 30
0.0
  0
SPLINE
  5
32f
100
AcDbEntity
  8
Layer_1
 62
7
100
AcDbSpline
 70
8
 71
3
 72
8
 73
4
 74
0
 40
0
 40
0
 40
0
 40
0
 40
1
 40
1
 40
1
 40
1
 10
2.764586
 20
1.598735
 30
0.0
 10
2.765989
 20
1.573140
 30
0.0
 10
2.766738
 20
1.553520
 30
0.0
 10
2.804269
 20
1.505481
 30
0.0
  0
SPLINE
  5
330
100
AcDbEntity
  8
Layer_1
 62
7
100
AcDbSpline
 70
8
 71
3
 72
8
 73
4
 74
0
 40
0
 40
0
 40
0
 40
0
 40
1
 40
1
 40
1
 40
1
 10
2.804269
 20
1.505481
 30
0.0
 10
2.797402
 20
1.486700
 30
0.0
 10
2.786969
 20
1.472377
 30
0.0
 10
2.769547
 20
1.466790
 30
0.0
  0
SPLINE
  5
331
100
AcDbEntity
  8
Layer_1
 62
7
100
AcDbSpline
 70
8
 71
3
 72
8
 73
4
 74
0
 40
0
 40
0
 40
0
 40
0
 40
1
 40
1
 40
1
 40
1
 10
2.769547
 20
1.466790
 30
0.0
 10
2.730822
 20
1.484951
 30
0.0
 10
2.727981
 20
1.511554
 30
0.0
 10
2.733832
 20
1.540203
 30
0.0
  0
SPLINE
  5
332
100
AcDbEntity
  8
Layer_1
 62
7
100
AcDbSpline
 70
8
 71
3
 72
8
 73
4
 74
0
 40
0
 40
0
 40
0
 40
0
 40
1
 40
1
 40
1
 40
1
 10
2.733832
 20
1.540203
 30
0.0
 10
2.685088
 20
1.534022
 30
0.0
 10
2.641808
 20
1.537209
 30
0.0
 10
2.629666
 20
1.593775
 30
0.0
  0
LWPOLYLINE
  5
333
100
AcDbEntity
  8
Layer_1
 62
7
100
AcDbPolyline
 90
2
 70
1
 10
3.005658
 20
1.697941
 30
0.0
 10
2.986809
 20
1.697941
 30
0.0
  0
SPLINE
  5
334
100
AcDbEntity
  8
Layer_1
 62
7
100
AcDbSpline
 70
8
 71
3
 72
8
 73
4
 74
0
 40
0
 40
0
 40
0
 40
0
 40
1
 40
1
 40
1
 40
1
 10
2.629836
 20
1.396354
 30
0.0
 10
2.627235
 20
1.375590
 30
0.0
 10
2.603669
 20
1.368878
 30
0.0
 10
2.590975
 20
1.387425
 30
0.0
  0
SPLINE
  5
335
100
AcDbEntity
  8
Layer_1
 62
7
100
AcDbSpline
 70
8
 71
3
 72
8
 73
4
 74
0
 40
0
 40
0
 40
0
 40
0
 40
1
 40
1
 40
1
 40
1
 10
2.590975
 20
1.387425
 30
0.0
 10
2.565120
 20
1.436548
 30
0.0
 10
2.564520
 20
1.479357
 30
0.0
 10
2.551293
 20
1.525322
 30
0.0
  0
SPLINE
  5
336
100
AcDbEntity
  8
Layer_1
 62
7
100
AcDbSpline
 70
8
 71
3
 72
8
 73
4
 74
0
 40
0
 40
0
 40
0
 40
0
 40
1
 40
1
 40
1
 40
1
 10
2.551293
 20
1.525322
 30
0.0
 10
2.538261
 20
1.531936
 30
0.0
 10
2.538562
 20
1.538550
 30
0.0
 10
2.535420
 20
1.545163
 30
0.0
  0
LWPOLYLINE
  5
337
100
AcDbEntity
  8
Layer_1
 62
7
100
AcDbPolyline
 90
4
 70
1
 10
2.629666
 20
1.593775
 30
0.0
 10
2.616769
 20
1.600719
 30
0.0
 10
2.631650
 20
1.532267
 30
0.0
 10
2.629836
 20
1.396354
 30
0.0
  0
LWPOLYLINE
  5
338
100
AcDbEntity
  8
Layer_1
 62
7
100
AcDbPolyline
 90
2
 70
1
 10
2.535420
 20
1.545163
 30
0.0
 10
2.535420
 20
1.545163
 30
0.0
  0
ENDSEC
  0
SECTION
  2
OBJECTS
  0
DICTIONARY
  5
C
330
0
100
AcDbDictionary
  3
ACAD_GROUP
350
D
  3
ACAD_MLINESTYLE
350
17
  0
DICTIONARY
  5
D
330
C
100
AcDbDictionary
  0
DICTIONARY
  5
1A
330
C
100
AcDbDictionary
  0
DICTIONARY
  5
17
330
C
100
AcDbDictionary
  3
STANDARD
350
18
  0
DICTIONARY
  5
19
330
C
100
AcDbDictionary
  0
ENDSEC
  0
EOF
