<?xml version="1.0" encoding="UTF-8" standalone="no"?>
<!-- Created with Inkscape (http://www.inkscape.org/) -->

<svg
   xmlns:dc="http://purl.org/dc/elements/1.1/"
   xmlns:cc="http://creativecommons.org/ns#"
   xmlns:rdf="http://www.w3.org/1999/02/22-rdf-syntax-ns#"
   xmlns:svg="http://www.w3.org/2000/svg"
   xmlns="http://www.w3.org/2000/svg"
   xmlns:sodipodi="http://sodipodi.sourceforge.net/DTD/sodipodi-0.dtd"
   xmlns:inkscape="http://www.inkscape.org/namespaces/inkscape"
   sodipodi:docname="drawing.svg"
   inkscape:version="0.91 r13725"
   version="1.1"
   id="svg2"
   viewBox="0 0 356.32913 356.32913"
   height="100.564mm"
   width="100.564mm">
  <sodipodi:namedview
     inkscape:window-maximized="1"
     inkscape:window-y="-8"
     inkscape:window-x="-8"
     inkscape:window-height="1017"
     inkscape:window-width="1920"
     showgrid="false"
     inkscape:current-layer="layer1"
     inkscape:document-units="px"
     inkscape:cy="424.60833"
     inkscape:cx="371.04036"
     inkscape:zoom="0.9899495"
     inkscape:pageshadow="2"
     inkscape:pageopacity="0.0"
     borderopacity="1.0"
     bordercolor="#666666"
     pagecolor="#ffffff"
     id="base" />
  <defs
     id="defs4" />
  <metadata
     id="metadata7">
    <rdf:RDF>
      <cc:Work
         rdf:about="">
        <dc:format>image/svg+xml</dc:format>
        <dc:type
           rdf:resource="http://purl.org/dc/dcmitype/StillImage" />
        <dc:title></dc:title>
      </cc:Work>
    </rdf:RDF>
  </metadata>
  <g
     transform="translate(0,-696.03303)"
     id="layer1"
     inkscape:groupmode="layer"
     inkscape:label="Layer 1">
    <path
       dxfpoint="1"
       sodipodi:nodetypes="ccccccccccccccccccccccc"
       inkscape:connector-curvature="0"
       id="path4153"
       d="m 61.33612,802.10784 20.8344,0 0,-2.27285 c 0.0196,-2.42282 -6.53889,-1.34245 -6.566,-6.43972 l 0,-46.21448 c -0.10752,-1.196 1.02178,-1.55756 1.51523,0.12627 l 15.90991,54.54824 8.58629,0 0,-69.32172 c -0.1738,-3.32567 4.0557,-3.08891 4.1439,-5.02013 l -0.005,-2.05094 -17.07959,0 0.023,1.67717 c -0.1024,1.55576 5.20355,1.42257 4.96279,5.14136 l 0,57.07362 c 0.005,1.09301 -0.6061,1.79913 -1.13642,0.50508 l -15.9099,-57.32616 -14.52095,0 c 0,1.81799 0.32515,3.50052 1.6415,3.53553 2.36962,0.0452 4.26494,0.69403 4.04061,4.04061 l 0,53.15928 c 0.0686,4.10463 -6.62351,5.53613 -6.43206,7.19734 z"
       style="fill:#000000;fill-rule:evenodd;stroke:none;stroke-width:1px;stroke-linecap:butt;stroke-linejoin:miter;stroke-opacity:1" />
    <path
       dxfpoint="1"
       sodipodi:nodetypes="ccccccccc"
       inkscape:connector-curvature="0"
       id="path4155"
       d="m 107.09019,782.06014 c -0.19536,-0.7447 0.33486,-2.80205 1.90116,-1.44126 0.8324,1.15399 1.22729,2.5347 3.4375,3.01339 5.44689,0.73193 13.85819,-4.7861 20.84821,-8.63839 1.93451,-1.15305 5.82594,-2.2255 8.03572,0.98214 3.79801,6.5933 -3.05111,9.14863 -7.67858,8.39286 2.25882,-1.61353 3.58958,-4.37499 0.80095,-4.4598 -4.09982,0.38953 -13.36056,5.60546 -20.4438,6.15623 -4.63186,0.36229 -6.08846,-1.69421 -6.90116,-4.00517 z"
       style="fill:#000000;fill-rule:evenodd;stroke:none;stroke-width:1px;stroke-linecap:butt;stroke-linejoin:miter;stroke-opacity:1" />
    <path
       dxfpoint="1"
       d="m 132.55187,751.28454 c -0.0193,-7.74838 -4.58062,-13.46879 -9.04673,-13.6294 -6.02919,0.78936 -8.62249,5.78536 -9.38538,14.53495 -0.3229,7.99946 3.99314,15.32453 8.77253,15.57256 4.18958,-0.0746 9.78365,-3.05777 9.47018,-13.63706 l -5.55584,0 c -0.69231,2.26511 -2.31967,2.41006 -3.53553,2.46225 -2.59498,-0.0757 -3.80491,-1.82926 -3.6618,-4.16688 0.1303,-1.70836 1.48449,-3.49338 3.8372,-3.42142 1.64015,0.0284 3.13513,1.34722 3.42327,2.41127 z m 27.95733,28.88791 c 6.3896,3.85202 5.25376,12.17548 0,12.14286 -4.12456,-0.1447 -5.53731,-4.58564 -5.53571,-7.5 l 0,-30.71429 16.25,0 0,-3.21428 -16.25,0 0,-18.03572 -13.39286,0 0,2.05357 c 0.0424,2.2445 4.69342,0.42899 4.64286,4.91072 l 0,11.07143 -7.32143,0 c -0.28014,-8.29986 -4.67266,-18.39113 -15.53571,-18.57144 -11.0505,0.92566 -15.12862,10.50885 -16.11608,20.13393 0.0176,11.98324 5.76236,19.73555 14.86608,21.16072 10.67246,-0.26607 17.26171,-8.9636 17.14285,-19.50893 l 5.71429,0 c 1.16151,0.1641 1.9289,0.79398 1.78571,2.5 l 0,27.2641 c -0.0635,6.76986 4.55386,14.55875 12.05358,14.34305 7.12329,0.35956 14.13238,-3.10724 14.73214,-11.60715 -0.90479,-11.68166 -10.06364,-11.1515 -13.03572,-6.42857 z"
       style="fill:#000000;fill-rule:evenodd;stroke:none;stroke-width:1px;stroke-linecap:butt;stroke-linejoin:miter;stroke-opacity:1"
       id="path4159"
       inkscape:connector-curvature="0" />
    <path
       dxfpoint="1"
       id="path4163"
       d="m 227.47433,721.42213 0,3.03516 c 4.92472,0.43243 8.49756,2.21561 8.21289,7.85742 l 0,58.92969 c -0.0922,9.04607 -10.17548,8.87296 -10.89258,0.89258 l 0,-44.375 c 0.043,-12.72809 -7.97393,-18.44763 -16.42774,-18.48243 -8.16817,-0.0628 -15.55011,6.95404 -16.96484,14.64258 -0.61175,2.77495 -5.3616,2.32852 -2.67773,4.64258 l 7.85546,0 c 0.0417,-7.99902 3.71641,-13.46342 11.60743,-13.48242 4.25237,0.17831 8.83078,3.64768 8.92968,10.26953 l 0,18.57031 c -4.78373,-6.26518 -8.6413,-6.43013 -12.00976,-6.5625 -13.99102,1.29297 -18.18062,13.07845 -19.95508,24.41992 -1.23118,13.58651 6.61971,24.01602 16.33984,24.55274 7.48341,0.27755 13.00724,-3.44822 15.98243,-9.375 1.1727,2.40646 1.47593,6.3392 7.54296,6.25 l 56.20704,0 0,-15.71289 11.25,0 0,-7.5 c -1.04705,-2.48001 -1.2247,2.74753 -3.92969,2.67773 l -20.89258,0 0,-47.5 c -0.11905,-2.7381 1.30897,-4.34412 4.28516,-4.82031 l 0,-1.96484 -16.07032,0 0,1.60742 c 2.56877,0.22879 4.72502,1.124 4.82032,5.35742 l 0,51.96289 16.69726,0 0,7.05469 c 0.16826,1.7754 -0.66868,2.54448 -2.41015,2.41015 l -30.71485,0 0,-60 c -0.26829,-5.38704 0.60887,-10.41429 8.57031,-13.21484 l 0,-2.14258 -25.35546,0 z m -21.42969,44.10156 c 2.05489,0 3.96367,1.0438 5.54687,2.83204 2.63637,2.97782 4.36914,8.01916 4.36914,13.73632 0,9.15043 -4.43926,16.56836 -9.91601,16.56836 -5.47675,-10e-6 -9.91602,-7.41794 -9.91602,-16.56836 0,-9.15042 4.43928,-16.56836 9.91602,-16.56836 z"
       style="fill:#000000;fill-rule:evenodd;stroke:none;stroke-width:1px;stroke-linecap:butt;stroke-linejoin:miter;stroke-opacity:1"
       inkscape:connector-curvature="0" />
    <path
       dxfpoint="1"
       sodipodi:nodetypes="cccccccccccccccccccc"
       inkscape:connector-curvature="0"
       id="path4174"
       d="m 52.47349,846.06531 c -7.37419,-15.7858 -19.50169,1.2068 -15.35714,17.5 2.92053,14.28849 9.54157,26.0539 17.67857,36.78571 l 5.53571,-30.53571 8.92857,-2.14286 10.35715,31.96429 6.96428,-31.42858 c 0.49842,-2.23985 0.34781,-3.62233 -2.09821,-4.33035 -1.70756,-0.46078 -1.3662,-1.64926 -0.0447,-2.09822 l 11.25,-2.5 c 0.68947,3.69048 -4.28237,3.22917 -5.17857,7.85715 l -9.82143,45 -5.89285,1.42857 -9.82143,-31.78572 c -0.37013,-1.32119 -1.3773,-2.83713 -1.78572,-0.89285 l -6.42857,35.35714 -5.53571,0.71428 c -9.045,-13.7013 -16.40138,-31.42932 -19.28572,-59.82142 0.49566,-13.17148 3.50037,-27.9003 17.43687,-28.18179 10.55138,0.62824 12.80959,11.64259 3.09885,17.11036 z"
       style="fill:#000000;fill-rule:evenodd;stroke:none;stroke-width:1px;stroke-linecap:butt;stroke-linejoin:miter;stroke-opacity:1" />
    <path
       dxfpoint="1"
       d="m 109.33,863.88229 c 0.39522,-1.33353 1.00789,-1.23577 1.42857,-0.35714 l 4.34885,11.24551 c 0.80565,2.06629 0.47666,3.28161 -0.13393,4.28572 l -8.86675,6.41774 c -1.37037,0.14624 -2.58124,-0.1341 -1.93682,-2.26597 z m 71.7092,18.40641 c 3.75888,0.63734 6.50545,1.75071 6.81853,7.1342 0.20945,7.0162 -4.02087,9.47358 -9.34391,9.28077 -6.87057,0.0845 -9.05326,-4.60606 -8.5863,-11.99556 l 4.92449,-33.58757 c 1.14628,-10.48008 -4.94059,-14.97506 -11.86929,-15.34169 -6.8133,-0.5919 -14.52247,5.98957 -19.06663,11.67989 -1.4286,-0.74839 -2.01759,-2.45633 -2.27284,-4.54569 -3.59566,2.5314 -6.56848,1.94854 -9.84899,2.90419 -1.01437,4.20868 5.91356,2.44123 4.41942,7.82868 l 1.13642,38.25953 c -0.10056,5.87486 -5.8607,7.16355 -7.70241,2.39911 L 121.819,876.10151 c 0.0557,-1.13644 0.69139,-3.0365 1.95668,-3.95946 2.07258,-1.51184 5.00795,-1.22852 3.72543,3.20185 2.34764,-0.79375 6.0371,-0.87631 6.01628,-5.24334 -0.7185,-4.04883 -2.90034,-4.58948 -5.32497,-4.55969 -3.58128,0.58743 -6.20685,3.38378 -7.7777,6.33643 l -6.19418,-17.94553 c -1.82004,1.13151 -3.73468,1.12786 -5.60749,1.62618 l -7.12337,29.12986 c -2.67331,2.82124 -5.40007,-3.29808 -2.08158,-4.48704 -4.52755,-0.40058 -4.71824,2.22896 -4.705,3.65414 0.14636,1.84369 1.46015,2.82018 4.11327,3.65414 0.90247,-0.0159 1.29921,1.27756 0.90555,2.60833 l -2.27285,11.11168 c -0.99615,5.94149 -3.31186,4.19211 -3.74343,6.18215 l -0.0446,1.7728 10.73287,-1.6415 -0.20023,-1.93606 c -0.35711,-1.67269 -5.64195,0.55231 -4.21918,-4.7562 l 2.64398,-13.28386 c 1.54197,0.95919 3.19757,0.66341 5.06609,-0.30222 l 7.56848,-4.84921 c 1.00608,-0.51729 1.60763,0.25992 2.02031,1.6415 l 4.41941,11.61676 c 2.91917,5.06792 -3.63353,5.47879 -3.10442,7.36956 l 0.32651,1.97435 33.71384,-6.31346 -0.32651,-2.672 c -0.29394,-2.3693 -5.5759,0.91164 -5.48187,-5.03041 l -1.26269,-36.87057 c 2.98354,-3.4143 4.2985,-9.15777 13.76333,-7.19734 6.36746,1.36719 8.86843,6.37782 7.82868,14.14214 l -3.15673,24.62247 c -0.95042,10.16031 2.87815,16.55426 14.14214,18.05647 8.29992,0.50539 16.8613,-5.08304 18.43528,-16.2887 1.04682,-8.34668 -3.83985,-12.66123 -8.83883,-12.69004 -4.90285,-0.0136 -7.00325,3.75726 -6.6923,7.51301 z"
       style="fill:#000000;fill-rule:evenodd;stroke:none;stroke-width:1px;stroke-linecap:butt;stroke-linejoin:miter;stroke-opacity:1"
       id="path4149"
       inkscape:connector-curvature="0" />
    <path
       dxfpoint="1"
       sodipodi:nodetypes="cccccccccccccc"
       inkscape:connector-curvature="0"
       id="path4152"
       d="m 187.35265,871.55582 -0.88388,-39.52221 c 0.29864,-6.61021 -6.70858,-2.40153 -6.69226,-7.82869 7.90884,-2.46096 16.0032,-4.33442 24.62247,-4.54568 14.99037,0.4952 25.86036,7.74514 26.39023,31.94607 0.81802,19.47707 -4.19702,29.1066 -11.36421,35.1028 -7.05828,4.17765 -14.29722,5.82594 -21.59202,6.69226 l 2.14658,-7.70241 c 8.19946,-1.23666 15.41357,-4.44401 19.82424,-13.25825 2.29079,-7.11729 3.36523,-15.85638 1.38896,-28.66308 -3.07072,-11.84824 -9.05609,-15.31686 -15.9099,-16.28871 -7.32773,-0.64709 -10.2122,0.55717 -11.86929,2.27284 l 0,43.18402 z"
       style="fill:#000000;fill-rule:evenodd;stroke:none;stroke-width:1px;stroke-linecap:butt;stroke-linejoin:miter;stroke-opacity:1" />
    <path
       dxfpoint="1"
       sodipodi:nodetypes="cccccccccccccccccccccccccccccccccccccccccccccccccccc"
       inkscape:connector-curvature="0"
       d="m 278.05385,824.14566 c 0.0967,-1.09405 0.24565,-2.0209 6.02679,-2.76786 4.29154,-0.50753 8.80244,-1.58401 14.46428,-0.98214 8.44318,1.53516 8.34725,16.10832 -1.81372,20.25571 -5.88102,2.27123 -11.78298,2.98549 -18.45414,3.27108 z m 36.45175,33.52057 c 1.98484,4.99628 0.72877,6.80195 -1.84939,7.01242 -3.66429,0.15603 -6.25164,-4.57331 -8.25979,-10.21379 -1.57305,-3.62098 -3.39626,-6.74011 -6.17953,-8.92046 6.28919,-3.01675 12.64476,-5.94324 13.13067,-16.85244 0.66771,-10.15969 -7.70143,-14.19222 -11.11036,-13.45214 l -34.09265,5.05076 0,1.6415 c 0.0918,1.94468 4.45013,0.0907 4.54569,4.92449 l 0.12627,41.79507 c 0.39549,6.0319 -4.32891,4.82131 -4.54569,1.38896 -0.56947,-2.81444 -1.90901,-2.06177 -1.89404,-1.38896 0.0901,3.35383 -1.44336,4.80411 -3.78807,5.3033 l -15.40482,2.77792 -0.75762,-22.72844 c -0.0837,-1.36054 0.34011,-2.29808 1.76777,-2.39911 l 6.56599,-0.88388 c 4.55333,-0.63988 2.3133,2.81207 5.55584,2.77792 l 0.12627,-9.97526 c -3.64806,0.15801 -1.97785,4.07021 -5.17703,4.54569 l -7.32361,1.51523 c -1.80424,0.34755 -2.31344,-0.77653 -2.27284,-2.52539 l 0,-17.17259 c 0.0643,-0.92222 0.38508,-1.76239 2.52538,-2.0203 l 8.83883,-1.51523 c 3.24078,-1.23641 5.5414,1.48359 7.26048,3.69336 l -0.0631,-9.2492 c -0.25753,-1.25574 -0.94102,-1.2837 -1.6415,-1.26269 l -27.90546,5.3033 0.12627,1.51523 c 2.78572,0.65384 4.32708,2.1243 4.41941,4.54568 l 1.13643,43.94164 c 0.019,2.83782 -1.18257,3.80027 -2.52539,4.54569 l 0.15784,3.56709 c 0.43484,-1.01484 3.89826,-0.49491 5.90308,-1.04171 l 41.92133,-7.82868 0,-4.54569 c -2.6391,0.24155 -5.364,0.60826 -5.42957,-2.90419 l -0.037,-16.0935 c 0.0751,-3.25843 5.55566,-3.48739 9.69974,-4.16951 4.52608,-0.59949 7.28878,0.32123 8.39372,2.96415 1.9352,8.20178 5.13898,14.60641 9.09137,19.95051 3.69045,5.40163 10.55488,6.62812 14.67654,4.00998 3.16784,-1.98401 6.3861,-6.39513 2.36978,-12.72255 -3.65412,-4.27242 -5.82618,-3.44555 -8.08122,-2.90418 z"
       style="fill:#000000;fill-rule:evenodd;stroke:none;stroke-width:1px;stroke-linecap:butt;stroke-linejoin:miter;stroke-opacity:1"
       id="path4156" />
    <path
       dxfpoint="1"
       id="path4160"
       d="m 141.70675,913.67213 c -2.27422,0 -4.5003,0.22026 -6.66211,0.64258 -17.40284,3.39966 -30.60547,19.8795 -30.60547,39.69531 0,22.27737 16.6856,40.33594 37.26758,40.33594 20.58198,0 37.26758,-18.05857 37.26758,-40.33594 0,-22.27737 -16.6856,-40.33789 -37.26758,-40.33789 z m 0.98633,5.875 c 15.31353,0 27.72851,15.68227 27.72851,35.02735 0,19.34508 -12.41498,35.02734 -27.72851,35.02734 -15.31353,0 -27.72657,-15.68226 -27.72657,-35.02734 0,-17.10681 9.70721,-31.35118 22.54297,-34.41797 1.67945,-0.40126 3.41179,-0.60938 5.1836,-0.60938 z"
       style="opacity:1;fill:#000000;fill-opacity:1;stroke:none;stroke-width:0.98487955;stroke-miterlimit:4;stroke-dasharray:none;stroke-dashoffset:0;stroke-opacity:1"
       inkscape:connector-curvature="0" />
    <path
       dxfpoint="1"
       sodipodi:nodetypes="ccccccccccccccc"
       inkscape:connector-curvature="0"
       id="path4184"
       d="m 62.78599,1009.9939 81.47321,0 0,-16.07145 -4.46428,0 c 2.08109,7.02745 -2.85181,9.43545 -5.71429,9.46425 l -54.64285,0 0,-67.04719 c -0.17645,-2.90801 2.03043,-5.67302 7.72321,-7.09821 l -0.0207,-2.40745 -24.48821,0 -0.0446,2.61534 c 4.09601,0.55822 7.62312,2.06436 7.54464,7.85714 l 0,62.86617 c 0,6.0075 -6.33442,6.6763 -7.41072,6.741 z"
       style="fill:#000000;fill-rule:evenodd;stroke:none;stroke-width:1px;stroke-linecap:butt;stroke-linejoin:miter;stroke-opacity:1" />
    <path
       dxfpoint="1"
       d="m 222.56278,993.92245 c -8.08753,-6.94497 -16.86283,-11.89542 -27.32143,-11.96429 -11.81972,1.46641 -17.61313,6.8083 -17.32143,14.28572 1.46646,8.98812 11.88607,12.17222 22.32143,11.51782 3.7946,-0.082 15.57766,-1.9107 22.32143,-13.83925 z m 1.875,-49.10714 c -5.24883,-7.46118 -11.57724,-7.98218 -17.98342,-8.00322 -13.69148,2.3789 -16.50911,8.57239 -17.794,15.41656 -1.46368,7.96968 5.91048,15.11466 17.02742,19.72951 18.67945,7.0592 20.12711,13.42629 17.63393,19.15179 -8.85433,-7.71006 -18.82846,-12.9126 -31.95029,-12.67857 -15.07559,1.33031 -20.34217,10.67054 -20.50507,18.34821 1.95171,14.69961 13.90591,16.51731 26.78571,17.14291 8.92004,-0.7385 22.98822,-2.3609 32.85715,-11.9643 0.56842,-0.2054 1.25145,-0.2962 2.32142,0 8.01071,5.9793 15.37981,12.3435 24.46429,17.6785 5.37545,2.6602 7.04146,3.0259 13.82551,3.3731 8.80618,-0.3061 12.46307,-5.8313 11.0411,-11.9172 -1.9849,-7.8455 -13.31842,-7.5222 -13.25947,-15.02729 l 0,-53.57143 13.39286,0 c 5.20793,-0.15882 4.62921,2.75651 4.64286,5.35714 l 3.92857,0 0,-10.71428 -50.71429,0 0,11.25 1.96429,0 c 0.0705,-4.06067 2.26814,-5.52148 5.35714,-5.89286 l 11.96429,0 0,52.14286 c 0.0986,5.87176 -5.54565,6.86156 -7.5,6.78576 l 0,1.9642 13.03571,-0.1785 c 10.82297,0.7509 11.51908,7.7936 7.30162,12.1122 -6.72374,4.474 -13.69796,2.0178 -19.2659,-1.5765 -8.1113,-4.881 -13.81006,-9.7619 -20.71429,-14.64288 4.62337,-9.84076 2.40873,-16.98776 -4.06567,-22.45667 -9.14156,-8.34921 -26.70787,-10.21493 -30.59886,-18.05738 -2.45715,-6.68032 -1.26885,-13.15144 8.17283,-15.47444 10.9565,-1.89718 14.88247,4.28533 15.77741,12.95278 l 2.85715,0 z"
       style="fill:#000000;fill-rule:evenodd;stroke:none;stroke-width:1px;stroke-linecap:butt;stroke-linejoin:miter;stroke-opacity:1"
       id="path4188"
       inkscape:connector-curvature="0" />
    <path
       dxfpoint="1"
       sodipodi:nodetypes="cccscccccc"
       inkscape:connector-curvature="0"
       id="path4191"
       d="m 237.98655,977.24303 c 5.46866,1.26176 9.45621,-5.7245 3.6618,-7.44987 l -21.33947,-3.53553 c -8.07582,-1.19241 -12.55799,-6.33067 -11.92967,-9.63198 0.2938,-1.5437 1.50771,-3.22837 4.35352,-2.9318 -1.43074,2.26634 -1.72347,4.44515 1.19956,6.37659 5.79385,5.06548 16.81483,5.05316 28.41054,4.48255 4.23111,-0.0268 10.60844,0.73043 10.73287,9.72273 -0.80192,7.88497 -6.18684,8.24606 -8.64943,8.46002 -5.51238,-0.58573 -6.50838,-3.93269 -6.43972,-5.49271 z"
       style="fill:#000000;fill-rule:evenodd;stroke:none;stroke-width:1px;stroke-linecap:butt;stroke-linejoin:miter;stroke-opacity:1" />
    <g
       transform="translate(-131.09794,33.345963)"
       id="g4310">
      <path
         dxfpoint="1"
         style="fill:#000000;fill-rule:evenodd;stroke:none;stroke-width:1px;stroke-linecap:butt;stroke-linejoin:miter;stroke-opacity:1"
         d="m 280.43037,915.33722 8.12458,-8.12458 -4.84043,9.12764 c -1.766,0.0552 -1.60021,-0.33507 -3.28415,-1.00306 z"
         id="path4193-4-7-6"
         inkscape:connector-curvature="0"
         sodipodi:nodetypes="cccc" />
      <path
         dxfpoint="1"
         style="color:#000000;font-style:normal;font-variant:normal;font-weight:normal;font-stretch:normal;font-size:medium;line-height:normal;font-family:sans-serif;text-indent:0;text-align:start;text-decoration:none;text-decoration-line:none;text-decoration-style:solid;text-decoration-color:#000000;letter-spacing:normal;word-spacing:normal;text-transform:none;direction:ltr;block-progression:tb;writing-mode:lr-tb;baseline-shift:baseline;text-anchor:start;white-space:normal;clip-rule:nonzero;display:inline;overflow:visible;visibility:visible;opacity:1;isolation:auto;mix-blend-mode:normal;color-interpolation:sRGB;color-interpolation-filters:linearRGB;solid-color:#000000;solid-opacity:1;fill:#000000;fill-opacity:1;fill-rule:evenodd;stroke:none;stroke-width:0.66348892px;stroke-linecap:butt;stroke-linejoin:miter;stroke-miterlimit:4;stroke-dasharray:none;stroke-dashoffset:0;stroke-opacity:1;color-rendering:auto;image-rendering:auto;shape-rendering:auto;text-rendering:auto;enable-background:accumulate"
         d="m 288.3457,906.46094 -9.21961,4.88881 c 0.77756,3.53371 0.35111,0.56469 1.12004,4.12873 l 8.4902,-8.4902 z m -1.64062,1.62109 -6.80143,6.80143 c -0.42645,-2.96902 0.10492,-4.21566 -0.80526,-2.90589 z"
         id="path4193-7-9-5-4"
         inkscape:connector-curvature="0"
         sodipodi:nodetypes="ccccccccc" />
      <path
         dxfpoint="1"
         style="fill:#000000;fill-rule:evenodd;stroke:none;stroke-width:1px;stroke-linecap:butt;stroke-linejoin:miter;stroke-opacity:1"
         d="m 275.46565,922.90172 12.74715,11.86326 -7.05833,-13.30994 -5.84712,0.65703 z"
         id="path4193-4-7-6-8"
         inkscape:connector-curvature="0"
         sodipodi:nodetypes="ccccc" />
      <path
         dxfpoint="1"
         style="color:#000000;font-style:normal;font-variant:normal;font-weight:normal;font-stretch:normal;font-size:medium;line-height:normal;font-family:sans-serif;text-indent:0;text-align:start;text-decoration:none;text-decoration-line:none;text-decoration-style:solid;text-decoration-color:#000000;letter-spacing:normal;word-spacing:normal;text-transform:none;direction:ltr;block-progression:tb;writing-mode:lr-tb;baseline-shift:baseline;text-anchor:start;white-space:normal;clip-rule:nonzero;display:inline;overflow:visible;visibility:visible;opacity:1;isolation:auto;mix-blend-mode:normal;color-interpolation:sRGB;color-interpolation-filters:linearRGB;solid-color:#000000;solid-opacity:1;fill:#000000;fill-opacity:1;fill-rule:evenodd;stroke:none;stroke-width:0.66348892px;stroke-linecap:butt;stroke-linejoin:miter;stroke-miterlimit:4;stroke-dasharray:none;stroke-dashoffset:0;stroke-opacity:1;color-rendering:auto;image-rendering:auto;shape-rendering:auto;text-rendering:auto;enable-background:accumulate"
         d="m 278.7275,930.59731 9.27641,4.92027 0.39062,-0.52735 -8.32931,-8.32931 c -0.11276,-1.34112 -1.20571,2.09217 -1.33772,3.93639 z m 0.7427,-3.59391 6.89308,6.89308 -7.28768,-3.86539 c -0.49347,2.36707 0.21951,-4.84965 0.3946,-3.02769 z"
         id="path4193-7-9-5-4-7"
         inkscape:connector-curvature="0"
         sodipodi:nodetypes="ccccccccc" />
      <path
         dxfpoint="1"
         style="fill:#000000;fill-rule:evenodd;stroke:none;stroke-width:1px;stroke-linecap:butt;stroke-linejoin:miter;stroke-opacity:1"
         d="m 267.194,915.34139 -0.12116,-0.18429 -7.95403,-7.63836 4.66146,8.79015 0.2503,0.22664 c 3.04227,-1.37843 0,0 3.16343,-1.19414 z"
         id="path4193-4-7-6-4"
         inkscape:connector-curvature="0"
         sodipodi:nodetypes="cccccc" />
      <path
         dxfpoint="1"
         style="color:#000000;font-style:normal;font-variant:normal;font-weight:normal;font-stretch:normal;font-size:medium;line-height:normal;font-family:sans-serif;text-indent:0;text-align:start;text-decoration:none;text-decoration-line:none;text-decoration-style:solid;text-decoration-color:#000000;letter-spacing:normal;word-spacing:normal;text-transform:none;direction:ltr;block-progression:tb;writing-mode:lr-tb;baseline-shift:baseline;text-anchor:start;white-space:normal;clip-rule:nonzero;display:inline;overflow:visible;visibility:visible;opacity:1;isolation:auto;mix-blend-mode:normal;color-interpolation:sRGB;color-interpolation-filters:linearRGB;solid-color:#000000;solid-opacity:1;fill:#000000;fill-opacity:1;fill-rule:evenodd;stroke:none;stroke-width:0.66348892px;stroke-linecap:butt;stroke-linejoin:miter;stroke-miterlimit:4;stroke-dasharray:none;stroke-dashoffset:0;stroke-opacity:1;color-rendering:auto;image-rendering:auto;shape-rendering:auto;text-rendering:auto;enable-background:accumulate"
         d="m 259.32812,906.76562 -0.39062,0.5293 7.88827,7.88827 c 1.65509,1.65509 1.28986,-1.58276 2.94494,0.0723 l 2.32567,3.10135 0.75323,-4.41936 z m 1.64649,1.62696 11.14062,5.90625 -0.59668,3.50362 -2.3116,-3.10315 -1.29589,0.62973 z"
         id="path4193-7-9-5-4-5"
         inkscape:connector-curvature="0"
         sodipodi:nodetypes="ccccccccccccc" />
      <path
         dxfpoint="1"
         style="fill:#000000;fill-rule:evenodd;stroke:none;stroke-width:1px;stroke-linecap:butt;stroke-linejoin:miter;stroke-opacity:1"
         d="m 271.70303,923.14468 -12.24207,11.9264 7.05833,-13.30994 5.34204,0.90957 z"
         id="path4193-4-7-6-8-6"
         inkscape:connector-curvature="0"
         sodipodi:nodetypes="ccccc" />
      <path
         dxfpoint="1"
         style="color:#000000;font-style:normal;font-variant:normal;font-weight:normal;font-stretch:normal;font-size:medium;line-height:normal;font-family:sans-serif;text-indent:0;text-align:start;text-decoration:none;text-decoration-line:none;text-decoration-style:solid;text-decoration-color:#000000;letter-spacing:normal;word-spacing:normal;text-transform:none;direction:ltr;block-progression:tb;writing-mode:lr-tb;baseline-shift:baseline;text-anchor:start;white-space:normal;clip-rule:nonzero;display:inline;overflow:visible;visibility:visible;opacity:1;isolation:auto;mix-blend-mode:normal;color-interpolation:sRGB;color-interpolation-filters:linearRGB;solid-color:#000000;solid-opacity:1;fill:#000000;fill-opacity:1;fill-rule:evenodd;stroke:none;stroke-width:0.66348892px;stroke-linecap:butt;stroke-linejoin:miter;stroke-miterlimit:4;stroke-dasharray:none;stroke-dashoffset:0;stroke-opacity:1;color-rendering:auto;image-rendering:auto;shape-rendering:auto;text-rendering:auto;enable-background:accumulate"
         d="m 272.13281,922.44141 -0.61133,0.61132 -12.24218,12.24219 0.39062,0.5293 13.52149,-7.17188 -1.0586,-6.21093 z m -0.4375,1.37695 0.76172,4.47266 -11.14258,5.9082 10.38086,-10.38086 z"
         id="path4193-7-9-5-4-7-2"
         inkscape:connector-curvature="0" />
      <path
         dxfpoint="1"
         style="fill:#000000;fill-rule:evenodd;stroke:none;stroke-width:1px;stroke-linecap:butt;stroke-linejoin:miter;stroke-opacity:1"
         d="m 273.4988,920.29913 0,-29.29443 -5.93464,24.36993 1.72112,-0.54541 4.21352,5.84871 z"
         id="path4193"
         inkscape:connector-curvature="0"
         sodipodi:nodetypes="cccccc" />
      <path
         dxfpoint="1"
         style="color:#000000;font-style:normal;font-variant:normal;font-weight:normal;font-stretch:normal;font-size:medium;line-height:normal;font-family:sans-serif;text-indent:0;text-align:start;text-decoration:none;text-decoration-line:none;text-decoration-style:solid;text-decoration-color:#000000;letter-spacing:normal;word-spacing:normal;text-transform:none;direction:ltr;block-progression:tb;writing-mode:lr-tb;baseline-shift:baseline;text-anchor:start;white-space:normal;clip-rule:nonzero;display:inline;overflow:visible;visibility:visible;opacity:1;isolation:auto;mix-blend-mode:normal;color-interpolation:sRGB;color-interpolation-filters:linearRGB;solid-color:#000000;solid-opacity:1;fill:#000000;fill-opacity:1;fill-rule:evenodd;stroke:none;stroke-width:1px;stroke-linecap:butt;stroke-linejoin:miter;stroke-miterlimit:4;stroke-dasharray:none;stroke-dashoffset:0;stroke-opacity:1;color-rendering:auto;image-rendering:auto;shape-rendering:auto;text-rendering:auto;enable-background:accumulate"
         d="m 274.4707,890.40039 -0.98632,0.11914 0,29.29297 0,1.49609 6.99218,-6.24609 -6.00586,-24.66211 z m 0.0137,4.2793 4.8789,20.03515 -4.8789,4.35938 0,-24.39453 z"
         id="path4193-7"
         inkscape:connector-curvature="0" />
      <path
         dxfpoint="1"
         style="fill:#000000;fill-rule:evenodd;stroke:none;stroke-width:1px;stroke-linecap:butt;stroke-linejoin:miter;stroke-opacity:1"
         d="m 273.22987,921.49786 0,29.29443 -5.93464,-24.36993 5.93464,-5.3033 z"
         id="path4193-4"
         inkscape:connector-curvature="0" />
      <path
         dxfpoint="1"
         style="color:#000000;font-style:normal;font-variant:normal;font-weight:normal;font-stretch:normal;font-size:medium;line-height:normal;font-family:sans-serif;text-indent:0;text-align:start;text-decoration:none;text-decoration-line:none;text-decoration-style:solid;text-decoration-color:#000000;letter-spacing:normal;word-spacing:normal;text-transform:none;direction:ltr;block-progression:tb;writing-mode:lr-tb;baseline-shift:baseline;text-anchor:start;white-space:normal;clip-rule:nonzero;display:inline;overflow:visible;visibility:visible;opacity:1;isolation:auto;mix-blend-mode:normal;color-interpolation:sRGB;color-interpolation-filters:linearRGB;solid-color:#000000;solid-opacity:1;fill:#000000;fill-opacity:1;fill-rule:evenodd;stroke:none;stroke-width:1px;stroke-linecap:butt;stroke-linejoin:miter;stroke-miterlimit:4;stroke-dasharray:none;stroke-dashoffset:0;stroke-opacity:1;color-rendering:auto;image-rendering:auto;shape-rendering:auto;text-rendering:auto;enable-background:accumulate"
         d="m 273.2168,920.48828 0,1.4961 0,29.29296 0.98437,0.11914 6.00586,-24.6621 -6.99023,-6.2461 z m 1,2.23633 4.87695,4.35742 -4.87695,20.02735 0,-24.38477 z"
         id="path4193-7-9"
         inkscape:connector-curvature="0" />
      <path
         dxfpoint="1"
         style="fill:#000000;fill-rule:evenodd;stroke:none;stroke-width:1px;stroke-linecap:butt;stroke-linejoin:miter;stroke-opacity:1"
         d="m 273.70031,921.14037 -23.61214,0 19.64285,5.96585 4.27461,-5.96585 z"
         id="path4193-76"
         inkscape:connector-curvature="0" />
      <path
         dxfpoint="1"
         style="color:#000000;font-style:normal;font-variant:normal;font-weight:normal;font-stretch:normal;font-size:medium;line-height:normal;font-family:sans-serif;text-indent:0;text-align:start;text-decoration:none;text-decoration-line:none;text-decoration-style:solid;text-decoration-color:#000000;letter-spacing:normal;word-spacing:normal;text-transform:none;direction:ltr;block-progression:tb;writing-mode:lr-tb;baseline-shift:baseline;text-anchor:start;white-space:normal;clip-rule:nonzero;display:inline;overflow:visible;visibility:visible;opacity:1;isolation:auto;mix-blend-mode:normal;color-interpolation:sRGB;color-interpolation-filters:linearRGB;solid-color:#000000;solid-opacity:1;fill:#000000;fill-opacity:1;fill-rule:evenodd;stroke:none;stroke-width:0.90014839px;stroke-linecap:butt;stroke-linejoin:miter;stroke-miterlimit:4;stroke-dasharray:none;stroke-dashoffset:0;stroke-opacity:1;color-rendering:auto;image-rendering:auto;shape-rendering:auto;text-rendering:auto;enable-background:accumulate"
         d="m 269.51758,914.16211 -19.95117,6.05859 0.13086,0.88086 23.61132,0 1.18164,0 -4.97265,-6.93945 z m -0.35547,1.04883 3.57617,4.99023 -20.00976,0 16.43359,-4.99023 z"
         id="path4193-7-3"
         inkscape:connector-curvature="0" />
      <path
         dxfpoint="1"
         style="fill:#000000;fill-rule:evenodd;stroke:none;stroke-width:1px;stroke-linecap:butt;stroke-linejoin:miter;stroke-opacity:1"
         d="m 273.86987,920.93116 23.37051,0 -17.73721,5.14651 -5.93549,-5.14651 z"
         id="path4193-4-7"
         inkscape:connector-curvature="0"
         sodipodi:nodetypes="ccccc" />
      <path
         dxfpoint="1"
         style="color:#000000;font-style:normal;font-variant:normal;font-weight:normal;font-stretch:normal;font-size:medium;line-height:normal;font-family:sans-serif;text-indent:0;text-align:start;text-decoration:none;text-decoration-line:none;text-decoration-style:solid;text-decoration-color:#000000;letter-spacing:normal;word-spacing:normal;text-transform:none;direction:ltr;block-progression:tb;writing-mode:lr-tb;baseline-shift:baseline;text-anchor:start;white-space:normal;clip-rule:nonzero;display:inline;overflow:visible;visibility:visible;opacity:1;isolation:auto;mix-blend-mode:normal;color-interpolation:sRGB;color-interpolation-filters:linearRGB;solid-color:#000000;solid-opacity:1;fill:#000000;fill-opacity:1;fill-rule:evenodd;stroke:none;stroke-width:0.89563662px;stroke-linecap:butt;stroke-linejoin:miter;stroke-miterlimit:4;stroke-dasharray:none;stroke-dashoffset:0;stroke-opacity:1;color-rendering:auto;image-rendering:auto;shape-rendering:auto;text-rendering:auto;enable-background:accumulate"
         d="m 279.96498,914.58252 -6.87514,6.3081 1.16797,0 23.3711,0 0.13086,-0.87695 z m -0.46333,0.85747 15.13702,4.55415 -19.8164,0 z"
         id="path4193-7-9-5"
         inkscape:connector-curvature="0"
         sodipodi:nodetypes="cccccccccc" />
    </g>
    <path
       dxfpoint="1"
       id="path4337"
       d="m 146.74776,793.91041 c -5.51504,2.34468 -11.48134,5.8351 -17.72851,9.4961 -0.84603,0.49579 -1.71509,0.99649 -2.57031,1.49609 a 10.357142,7.8571429 0 0 1 0.89453,1.79492 c 0.89421,-0.52244 1.80523,-1.04742 2.6875,-1.56445 6.66899,-3.90819 12.97661,-7.55122 18.57421,-9.80273 a 15.982143,7.5892859 0 0 1 -1.85742,-1.41993 z m 22.73047,3.17383 a 15.982143,7.5892859 0 0 1 -2.01367,0.49414 c 0.0269,0.0355 0.0553,0.0656 0.082,0.10156 0.0804,0.28016 0.14732,0.61304 0.21485,0.94141 l -8.11133,1.26563 0.0586,0.99414 5.49609,0.21484 -4.77539,1.90039 5.07422,0.98828 -4.82812,1.24219 0.0254,0.97461 5.92773,1.17578 -1.88281,1.05664 1.66797,1.63281 -7.02344,-0.72656 -0.18945,0.97852 4.93164,1.41211 -1.37305,-0.0371 4.04297,3.03515 -4.89453,0.89258 3.5,1.85547 -1.66797,0.041 -0.0723,0.99218 0.46876,0.082 -0.14844,0.0195 -0.10742,0.9629 2.08203,0.77539 -4.58399,1.72265 5.10742,1.01172 -0.86718,0.96094 -0.98438,0.10156 c -1.34818,-1.15841 -3.13027,-1.96196 -5.16406,-2.54492 l -0.0312,-0.01 -0.0332,-0.006 c -5.52991,-1.19465 -11.56545,0.84142 -18.04493,4.15821 -6.47948,3.31678 -13.45309,7.96857 -20.8457,12.3164 -13.82636,8.13174 -28.97804,15.09302 -44.89648,10.62305 l 5.08203,-1.05859 -0.10742,-0.98828 c -6.19552,-0.0525 -7.12557,0.80544 -0.82813,-2.07618 -6.13396,-0.91155 -6.38804,-0.33413 -0.35742,-2.21484 l -0.0762,-0.97266 -5.98047,-0.875 1.82812,-1.15039 -1.74804,-1.54687 7.05078,0.37109 0.14062,-0.98633 -4.99414,-1.16015 1.3711,-0.0332 -4.18946,-2.82617 4.8418,-1.14062 -3.5918,-1.67578 1.66407,-0.125 0.0234,-0.9961 -0.46093,-0.0566 0.13671,-0.0254 0.0586,-0.96875 -2.11914,-0.66992 4.49218,-1.95117 -5.15234,-0.75196 0.81641,-1.0039 4.60742,-0.70899 -4.52149,-2.07226 3.04297,-0.78711 -3.6914,-1.23047 -0.0606,-1.3457 c 0.10098,0.0822 0.20009,0.16791 0.30469,0.24414 1.45776,1.06242 3.24488,1.70409 4.79101,2.23047 0.003,9.1e-4 0.005,9.5e-4 0.008,0.002 0.002,6.2e-4 0.004,9.5e-4 0.006,0.002 8.36406,2.97632 17.28846,1.59785 26.12304,-1.68359 2.54321,-0.94462 5.08194,-2.05829 7.60742,-3.26563 a 10.357142,7.8571429 0 0 1 -2.0039,-1.25976 c -2.10121,0.97609 -4.20433,1.87243 -6.29883,2.65039 -7.05684,2.62113 -13.96583,3.78715 -20.51367,2.64258 -0.52911,-1.40671 -0.70654,-2.67241 -0.45899,-3.79102 0.28228,-1.27549 1.0284,-2.44963 2.32618,-3.56055 l 1.17773,-1.00976 -1.40625,-0.65625 c -3.04686,-1.42169 -6.11964,-1.86243 -8.64453,-1.42774 -2.52489,0.4347 -4.62841,1.85836 -5.12891,4.13868 l -0.0156,0.0664 -0.004,0.0684 c -0.0146,0.18213 -0.006,0.35614 -0.002,0.53125 -1.29069,4.41532 -1.71892,11.15696 -1.63086,17.81055 0.0934,7.05649 0.76022,13.85704 1.85351,17.47461 l 0.14063,0.4707 0.45898,0.17578 c 17.99821,6.86021 35.03236,-0.95497 49.94336,-9.72461 7.4555,-4.38482 14.42113,-9.02603 20.74219,-12.26172 4.56127,-2.33486 8.74672,-3.86625 12.52148,-4.17578 1.06626,3.50656 0.18767,6.58164 -2.53515,9.66602 l -0.88477,1.00195 1.21094,0.56446 c 3.04234,1.41957 5.80001,1.7061 8.16797,1.1289 2.36796,-0.5772 4.30169,-1.99696 5.78125,-3.79883 l 0.13867,-0.16797 0.0566,-0.21093 c 0.0825,-0.31249 0.14671,-0.61961 0.19531,-0.92188 2.32535,-4.98206 3.00874,-10.89392 3,-16.69726 0.0128,-0.13999 0.0287,-0.28005 0.041,-0.41993 0.56808,-6.46858 0.59011,-12.68433 -0.48633,-16.4082 z m -91.87305,13.5586 c 1.43159,0.0109 3.08361,0.35244 4.76758,0.95507 -0.88258,1.03723 -1.58675,2.14695 -1.86328,3.39649 -0.26116,1.18007 -0.12137,2.43765 0.19531,3.71875 -0.67667,-0.17989 -1.37367,-0.22893 -2.04101,-0.4668 l -0.008,-0.002 -0.006,-0.002 c -1.51286,-0.51487 -3.14485,-1.13787 -4.27149,-1.95898 -0.95304,-0.69459 -1.5157,-1.42411 -1.59961,-2.48047 0.0385,-0.12364 0.0715,-0.27117 0.11133,-0.38867 l -0.11719,-0.0391 c 0.001,-0.0295 -0.002,-0.056 0,-0.0859 0.31305,-1.2844 1.48876,-2.20202 3.48047,-2.54492 0.42102,-0.0725 0.87437,-0.10522 1.35156,-0.10156 z m -5.54882,6.19921 c 0.14332,0.16643 0.29432,0.32431 0.45312,0.47461 l -0.51172,-0.0898 c 0.0209,-0.12484 0.037,-0.26251 0.0586,-0.38477 z m 84.77148,6.54493 c 0.71303,0.0351 1.44643,0.008 2.125,0.15234 0.91695,0.26475 1.72351,0.58721 2.45703,0.93945 l -0.42773,0.043 c 0.87212,0.23235 1.55922,0.56602 2.12109,0.95313 0.33875,0.26192 0.63529,0.53794 0.88281,0.83007 0.8713,1.02834 1.21895,2.25661 0.92579,3.96485 -0.009,0.0274 -0.0181,0.0608 -0.0274,0.0879 l 0.01,0.004 c -0.0269,0.14698 -0.0495,0.29106 -0.0859,0.44532 -1.23757,1.44385 -2.72782,2.52179 -4.5293,2.96094 -1.58367,0.38602 -3.5005,0.15554 -5.66797,-0.63477 2.19372,-2.97203 3.04698,-6.27801 2.2168,-9.74609 z"
       style="color:#000000;font-style:normal;font-variant:normal;font-weight:normal;font-stretch:normal;font-size:medium;line-height:normal;font-family:sans-serif;text-indent:0;text-align:start;text-decoration:none;text-decoration-line:none;text-decoration-style:solid;text-decoration-color:#000000;letter-spacing:normal;word-spacing:normal;text-transform:none;direction:ltr;block-progression:tb;writing-mode:lr-tb;baseline-shift:baseline;text-anchor:start;white-space:normal;clip-rule:nonzero;display:inline;overflow:visible;visibility:visible;opacity:1;isolation:auto;mix-blend-mode:normal;color-interpolation:sRGB;color-interpolation-filters:linearRGB;solid-color:#000000;solid-opacity:1;fill:#000000;fill-opacity:1;fill-rule:evenodd;stroke:none;stroke-width:2;stroke-linecap:butt;stroke-linejoin:miter;stroke-miterlimit:4;stroke-dasharray:none;stroke-dashoffset:0;stroke-opacity:1;color-rendering:auto;image-rendering:auto;shape-rendering:auto;text-rendering:auto;enable-background:accumulate"
       inkscape:connector-curvature="0" />
    <path
       dxfpoint="1"
       id="path4337-6"
       d="m 281.93526,881.90846 c -0.39481,0.006 -0.79469,0.0261 -1.19726,0.0586 -1.61028,0.1301 -3.2818,0.46651 -5.00196,0.96289 -6.88066,1.98549 -14.65313,6.53504 -22.9121,11.375 -8.25899,4.83995 -16.98721,9.97609 -25.58594,13.16993 -7.05684,2.62113 -13.96583,3.78714 -20.51367,2.64257 -0.52911,-1.40671 -0.70654,-2.6724 -0.45899,-3.79101 0.28228,-1.27549 1.02839,-2.44963 2.32617,-3.56055 l 1.17774,-1.00976 -1.40625,-0.65625 c -3.04686,-1.42169 -6.11964,-1.86243 -8.64453,-1.42774 -2.52489,0.4347 -4.62841,1.85835 -5.12891,4.13867 l -0.0156,0.0664 -0.004,0.0684 c -0.0146,0.18213 -0.006,0.35614 -0.002,0.53125 -1.29069,4.41532 -1.71892,11.15696 -1.63086,17.81055 0.0934,7.05649 0.76022,13.85704 1.85351,17.47461 l 0.14063,0.4707 0.16015,0.0606 a 16.517857,7.7678571 0 0 1 5.80078,-3.62696 c 0.69458,-0.31295 1.43743,-0.63948 2.67774,-1.20703 -6.13396,-0.91155 -6.38804,-0.33413 -0.35742,-2.21484 l -0.0762,-0.97266 -5.98047,-0.875 1.82812,-1.15039 -1.74805,-1.54687 7.05079,0.37109 0.14062,-0.98633 -4.99414,-1.16016 1.37109,-0.0332 -4.18945,-2.82617 4.8418,-1.14063 -3.5918,-1.67578 1.66406,-0.125 0.0234,-0.99609 -0.46094,-0.0566 0.13672,-0.0254 0.0586,-0.96875 -2.11915,-0.66992 4.49219,-1.95117 -5.15234,-0.75196 0.81641,-1.0039 4.60742,-0.70899 -4.52149,-2.07226 3.04297,-0.78711 -3.6914,-1.23047 -0.0605,-1.34571 c 0.10098,0.0822 0.20009,0.16791 0.30469,0.24414 1.45776,1.06242 3.24488,1.70409 4.79101,2.23047 0.003,9.1e-4 0.005,9.1e-4 0.008,0.002 0.002,6.2e-4 0.004,9e-4 0.006,0.002 8.36406,2.97632 17.28847,1.59785 26.12305,-1.68359 8.83939,-3.28322 17.64635,-8.48016 25.90234,-13.31836 8.25598,-4.8382 15.97735,-9.31046 22.45508,-11.17969 2.0243,-0.58413 3.91923,-0.9135 5.66797,-0.94141 1.04925,-0.0168 2.0457,0.0753 2.98633,0.28516 2.45605,0.54792 4.56147,1.90322 6.40625,4.38281 0.0804,0.28016 0.14731,0.61304 0.21484,0.94141 l -8.11133,1.26562 0.0586,0.99414 5.49609,0.21485 -4.77539,1.90039 5.07422,0.98828 -4.82813,1.24219 0.0254,0.97461 5.92773,1.17578 -1.88281,1.05664 1.66797,1.63281 -7.02344,-0.72656 -0.18945,0.97851 4.93164,1.41211 -1.37305,-0.0371 4.04297,3.03516 -4.89453,0.89258 3.5,1.85547 -1.66797,0.041 -0.0723,0.99219 0.46875,0.082 -0.14844,0.0195 -0.10742,0.96289 2.08203,0.77539 -4.58398,1.72266 5.10742,1.01172 -0.86719,0.96094 -0.98437,0.10156 c -1.34818,-1.15841 -3.13027,-1.96196 -5.16406,-2.54492 l -0.0312,-0.01 -0.0332,-0.006 c -5.52991,-1.19465 -11.56544,0.84141 -18.04492,4.15821 -6.47948,3.31677 -13.45309,7.96857 -20.8457,12.3164 -6.45097,3.79403 -13.19281,7.31631 -20.16406,9.5586 a 16.517857,7.7678571 0 0 1 1.76757,1.5332 c 6.77439,-2.32939 13.27408,-5.75837 19.41016,-9.36719 7.4555,-4.38482 14.42113,-9.02603 20.74219,-12.26172 4.56127,-2.33486 8.74672,-3.86625 12.52148,-4.17578 1.06626,3.50656 0.18767,6.58164 -2.53515,9.66602 l -0.88477,1.00195 1.21094,0.56445 c 3.04234,1.41957 5.80001,1.70611 8.16797,1.12891 2.36796,-0.5772 4.30169,-1.99696 5.78125,-3.79883 l 0.13867,-0.16797 0.0566,-0.21094 c 0.0825,-0.31249 0.14671,-0.6196 0.19531,-0.92187 2.32535,-4.98206 3.00874,-10.89393 3,-16.69727 0.0128,-0.13999 0.0287,-0.28004 0.041,-0.41992 0.57552,-6.55335 0.59652,-12.85864 -0.52344,-16.56445 l -0.0488,-0.16016 -0.0996,-0.13672 c -2.11189,-2.9136 -4.75582,-4.62611 -7.71875,-5.28711 -1.11111,-0.24789 -2.25896,-0.35228 -3.44336,-0.33398 z m -80.52539,19.63281 c 1.43159,0.0109 3.08361,0.35245 4.76758,0.95508 -0.88258,1.03723 -1.58675,2.14695 -1.86328,3.39649 -0.26116,1.18007 -0.12137,2.43764 0.19531,3.71874 -0.67667,-0.17989 -1.37367,-0.22892 -2.04101,-0.46679 l -0.008,-0.002 -0.006,-0.002 c -1.51286,-0.51487 -3.14484,-1.13787 -4.27148,-1.95898 -0.95304,-0.69459 -1.5157,-1.42411 -1.59961,-2.48047 0.0385,-0.12364 0.0715,-0.27117 0.11133,-0.38867 l -0.11719,-0.0391 c 0.001,-0.0295 -0.002,-0.056 0,-0.0859 0.31305,-1.2844 1.48876,-2.20202 3.48047,-2.54492 0.42102,-0.0725 0.87437,-0.10523 1.35156,-0.10157 z m -5.54883,6.19922 c 0.14332,0.16643 0.29433,0.32431 0.45313,0.47461 l -0.51172,-0.0898 c 0.0209,-0.12484 0.037,-0.26251 0.0586,-0.38477 z m 84.77149,6.54492 c 0.71303,0.0351 1.44643,0.008 2.125,0.15235 0.91695,0.26475 1.72351,0.58721 2.45703,0.93945 l -0.42773,0.043 c 0.87212,0.23235 1.55922,0.56601 2.12109,0.95312 0.33875,0.26192 0.63529,0.53795 0.88281,0.83008 0.8713,1.02834 1.21894,2.25661 0.92578,3.96485 -0.009,0.0274 -0.018,0.0608 -0.0273,0.0879 l 0.01,0.004 c -0.0269,0.14697 -0.0495,0.29105 -0.0859,0.44532 -1.23757,1.44384 -2.72782,2.5218 -4.5293,2.96093 -1.58367,0.38602 -3.5005,0.15555 -5.66797,-0.63476 2.19372,-2.97203 3.04698,-6.27802 2.2168,-9.7461 z"
       style="color:#000000;font-style:normal;font-variant:normal;font-weight:normal;font-stretch:normal;font-size:medium;line-height:normal;font-family:sans-serif;text-indent:0;text-align:start;text-decoration:none;text-decoration-line:none;text-decoration-style:solid;text-decoration-color:#000000;letter-spacing:normal;word-spacing:normal;text-transform:none;direction:ltr;block-progression:tb;writing-mode:lr-tb;baseline-shift:baseline;text-anchor:start;white-space:normal;clip-rule:nonzero;display:inline;overflow:visible;visibility:visible;opacity:1;isolation:auto;mix-blend-mode:normal;color-interpolation:sRGB;color-interpolation-filters:linearRGB;solid-color:#000000;solid-opacity:1;fill:#000000;fill-opacity:1;fill-rule:evenodd;stroke:none;stroke-width:2;stroke-linecap:butt;stroke-linejoin:miter;stroke-miterlimit:4;stroke-dasharray:none;stroke-dashoffset:0;stroke-opacity:1;color-rendering:auto;image-rendering:auto;shape-rendering:auto;text-rendering:auto;enable-background:accumulate"
       inkscape:connector-curvature="0" />
    <path
       dxfpoint="1"
       sodipodi:nodetypes="ccccccccccccccccc"
       inkscape:connector-curvature="0"
       id="path4414"
       d="m 101.93778,844.19031 c -2.26379,-6.19658 -4.01058,-15.47434 -7.23215,-17.58929 -2.24593,-2.07628 -8.8059,0.12417 -9.19643,5.80357 -0.0116,2.80504 -0.0139,5.60767 6.25,6.78572 -2.83907,1.2134 -6.68166,-0.38879 -7.76785,-4.73215 -0.28313,-2.4049 -0.35692,-5.50695 2.49999,-8.125 1.35764,-0.85893 6.47117,-5.32598 12.14286,0.0893 1.49987,2.31864 2.43309,5.48728 3.48215,8.48214 1.71347,-1.4072 2.62155,-7.19488 3.92857,-10.80357 2.37492,2.77009 4.23941,5.94861 6.25,10.53572 2.45205,0.51091 2.40146,-7.08878 2.58929,-13.37054 -2.20189,0.19135 -3.09184,-0.63283 -2.32143,-2.34375 0.60721,-0.69429 2.65766,-0.66993 2.83482,0.91517 0.46527,2.9141 2.71818,14.80184 -2.47768,19.79911 -1.71564,-2.44215 -3.31719,-5.00232 -4.375,-8.125 -1.37718,-1.68206 -2.54961,-0.69116 -3.21429,0.7143 z"
       style="fill:#000000;fill-rule:evenodd;stroke:none;stroke-width:1px;stroke-linecap:butt;stroke-linejoin:miter;stroke-opacity:1" />
    <path
       dxfpoint="1"
       sodipodi:nodetypes="cccccccccccccccccc"
       inkscape:connector-curvature="0"
       id="path4416"
       d="m 123.27706,833.92245 2.09822,-1.38393 c -1.36305,-3.8638 -4.34745,-7.3565 -1.875,-12.09821 1.33826,-1.44809 2.71212,-2.21962 4.28571,0.80357 0.84433,3.06583 0.77774,6.72654 4.0625,6.29464 2.12979,-0.19301 3.02843,-1.91201 3.39286,-3.21429 -1.63347,0.989 -3.12931,1.65688 -3.70536,0.17858 -0.94788,-2.59977 -0.6558,-5.26929 -1.07143,-6.74107 -0.45667,-3.24905 -4.48159,-3.31792 -5.53572,-1.25001 l -2.40846,3.71302 c -1.01214,0.88344 -1.50859,-0.58682 -1.82812,-1.20404 -1.5898,-4.07216 -1.74237,-6.48633 -2.28127,-9.74112 -0.30986,-2.24525 0.23286,-5.38448 3.16964,-3.88393 1.85815,1.19896 0.43562,7.68308 -0.0893,11.60715 1.45344,-3.61725 2.35349,-3.97661 2.67857,-8.16965 -0.64824,-7.17938 -3.30299,-6.71159 -4.59822,-6.78571 -5.13255,0.77322 -4.39219,5.89249 -3.25892,10.75893 z"
       style="fill:#000000;fill-rule:evenodd;stroke:none;stroke-width:1px;stroke-linecap:butt;stroke-linejoin:miter;stroke-opacity:1" />
    <path
       dxfpoint="1"
       sodipodi:nodetypes="cccccccccccccccccccc"
       inkscape:connector-curvature="0"
       id="path4183"
       d="m 141.39071,810.75727 -3.85121,-0.31567 c -4.26114,2.27402 -4.04373,5.49914 -3.97747,7.76555 -0.15533,2.44047 2.66446,6.68441 5.93464,6.56599 1.6306,-0.14589 6.58733,-1.72997 5.05076,-7.44988 0.45621,-0.19777 5.20861,-0.0631 7.70242,-7.26047 -0.001,-5.7029 -3.42639,-6.18915 -6.88167,-6.62913 -4.70073,0.51024 -7.73902,3.30631 -11.17481,5.55584 -2.95803,1.15112 -4.39012,0.39482 -6.06091,-0.0631 -1.85771,0.086 -1.31544,0.68618 -0.88389,1.26269 0.89498,0.76757 2.13774,1.18734 4.04061,0.94702 3.39649,-0.37317 6.3925,-2.54849 9.47018,-4.35629 2.97469,-1.54919 7.72067,-2.57144 8.27063,3.03046 0.40456,2.13977 -0.93698,3.552 -2.52539,4.86136 -1.42858,-0.88635 -2.89773,-1.73213 -4.16687,-2.77792 l -0.63135,3.34613 c 0.54543,0.18223 1.07257,0.5108 1.45209,2.02031 -0.26989,2.67002 -1.92266,3.90876 -3.53553,3.72493 -2.50946,-1.06395 -2.43347,-2.61959 -2.58852,-4.35628 0.45901,-1.35424 -0.52263,-1.83379 4.35629,-5.87154 z"
       style="fill:#000000;fill-rule:evenodd;stroke:none;stroke-width:1px;stroke-linecap:butt;stroke-linejoin:miter;stroke-opacity:1" />
    <path
       dxfpoint="1"
       d="m 253.70704,910.88865 c -1.30498,-1.91519 -0.99836,-3.02457 -1.01015,-4.29316 0.20451,-1.74358 0.72729,-2.96973 2.08344,-2.84105 1.08021,0.19516 1.79052,0.98217 1.19956,3.85121 -0.40512,1.27058 -1.19513,2.34871 -2.27285,3.283 z m -26.3271,7.95494 2.84106,9.97526 c -1.07329,2.71978 -2.14657,3.31108 -3.21986,3.53553 -3.48585,-0.70123 -4.90127,-3.24284 -5.36644,-6.62912 -0.0246,-2.3997 -0.11031,-4.8096 1.8309,-6.88167 1.17161,-1.13192 2.40895,-1.70516 3.91434,0 z m 0.80783,-5.54614 -1.16071,3.30357 c -1.22807,-1.43876 -2.73411,-2.18259 -4.91072,-1.25 -3.72903,2.43424 -5.43147,6.61871 -3.92857,13.57143 0.81622,3.80511 3.17711,6.429 8.03572,7.14286 2.17463,-0.39311 3.68685,-1.54326 4.19643,-3.83929 0.36135,-0.77756 0.1698,-2.03892 2.32142,-1.25 3.54738,0.54143 4.63194,-1.37996 5.17858,-3.83928 l 0.71428,-11.25 3.39286,1.33928 c -0.46985,5.21099 8.23359,8.90906 11.60714,0.625 5.00924,1.28149 8.2,-1.68015 10.35714,-7.05357 5.03505,0.48142 6.95661,-3.63971 6.51786,-11.25 l -1.69643,0 c 0.53322,6.77002 -0.77209,10.26769 -4.28571,9.19643 -0.1416,-2.99213 -2.37714,-2.63797 -2.90179,-2.25446 -0.58885,0.50723 -1.1903,1.13668 -0.49107,2.52232 0.2598,0.58168 0.84464,1.02407 1.51786,1.42857 -0.68035,1.81933 -1.76015,3.26994 -3.21429,4.375 -2.7595,1.62226 -4.86331,0.48843 -5.44643,-2.14286 2.19393,-1.32643 4.55009,-2.14982 5.35715,-6.25 0.75281,-4.61895 -2.10729,-6.83749 -4.91072,-6.33928 -4.19089,1.12503 -5.71375,4.17697 -5.625,8.39285 0.12621,2.30352 0.19363,4.06936 3.57143,8.39286 -0.61799,1.69031 -1.55697,2.97938 -3.125,3.48214 -3.48518,-1.63444 -3.74087,-4.02876 -3.21428,-6.60714 -4.38699,0.55626 -8.28219,0.26946 -9.375,-4.82143 l -1.16072,-0.625 1.33929,6.16072 -0.16324,12.23214 c -0.23408,1.86877 -2.35508,2.47286 -3.49746,0.80357 -2.32695,-4.42102 -2.38095,-8.27381 -3.57143,-12.41071 -1.17289,-0.59524 -1.14582,-1.19048 -1.42859,-1.78572 z"
       style="fill:#000000;fill-rule:evenodd;stroke:none;stroke-width:1px;stroke-linecap:butt;stroke-linejoin:miter;stroke-opacity:1"
       id="path4189"
       inkscape:connector-curvature="0" />
  </g>
</svg>
