<?xml version="1.0" encoding="UTF-8" standalone="no"?>
<!-- Created with Inkscape (http://www.inkscape.org/) -->

<svg
   xmlns:dc="http://purl.org/dc/elements/1.1/"
   xmlns:cc="http://creativecommons.org/ns#"
   xmlns:rdf="http://www.w3.org/1999/02/22-rdf-syntax-ns#"
   xmlns:svg="http://www.w3.org/2000/svg"
   xmlns="http://www.w3.org/2000/svg"
   xmlns:sodipodi="http://sodipodi.sourceforge.net/DTD/sodipodi-0.dtd"
   xmlns:inkscape="http://www.inkscape.org/namespaces/inkscape"
   width="210mm"
   height="297mm"
   viewBox="0 0 744.09448819 1052.3622047"
   id="svg2"
   version="1.1"
   inkscape:version="0.91 r13725"
   sodipodi:docname="drawing-1.svg">
  <defs
     id="defs4" />
  <sodipodi:namedview
     id="base"
     pagecolor="#ffffff"
     bordercolor="#666666"
     borderopacity="1.0"
     inkscape:pageopacity="0.0"
     inkscape:pageshadow="2"
     inkscape:zoom="1.4"
     inkscape:cx="348.86783"
     inkscape:cy="611.85129"
     inkscape:document-units="px"
     inkscape:current-layer="layer1"
     showgrid="false"
     inkscape:window-width="1536"
     inkscape:window-height="801"
     inkscape:window-x="-8"
     inkscape:window-y="-8"
     inkscape:window-maximized="1" />
  <metadata
     id="metadata7">
    <rdf:RDF>
      <cc:Work
         rdf:about="">
        <dc:format>image/svg+xml</dc:format>
        <dc:type
           rdf:resource="http://purl.org/dc/dcmitype/StillImage" />
        <dc:title />
      </cc:Work>
    </rdf:RDF>
  </metadata>
  <g
     inkscape:label="Layer 1"
     inkscape:groupmode="layer"
     id="layer1">
    <path
       style="opacity:1;fill:#000000;fill-opacity:1;stroke:none;stroke-width:2;stroke-miterlimit:4;stroke-dasharray:none;stroke-dashoffset:0;stroke-opacity:1"
       d="m 372.3538,301.59878 c -0.97466,0.0224 -2.23176,0.0703 -3.85156,0.13868 -14.558,0.61456 -18.03113,0.88272 -18.80079,1.44921 -0.70025,0.51541 -0.5967,0.77897 0.93946,2.3711 1.69531,1.75709 1.72851,1.86871 1.72851,5.78711 0,2.19734 -0.31262,6.10946 -0.69531,8.69336 -0.38269,2.58392 -0.93356,6.56638 -1.22461,8.84961 -1.09718,8.60698 -2.1763,15.03097 -2.5957,15.45312 -0.0526,0.053 -1.93514,0.4711 -4.1836,0.92969 -6.16094,1.25658 -17.47367,0.77271 -24.05078,-1.0293 -2.66861,-0.73114 -5.945,-1.4175 -7.27929,-1.52539 l -2.42579,-0.19726 1.69922,1.46875 c 2.23641,1.93274 6.84651,4.20736 10.44727,5.15429 3.2205,0.84692 12.38158,1.99277 20.04297,2.50781 l 5.01758,0.3379 -0.3086,3.95703 c -0.16975,2.17601 -0.51652,4.94552 -0.76953,6.15429 -0.25302,1.20878 -0.54395,2.9661 -0.64648,3.90625 -0.10253,0.94016 -0.41588,2.69748 -0.69727,3.90625 -0.28138,1.20877 -0.77785,3.62705 -1.10352,5.37305 -0.63123,3.38434 -1.84152,6.26289 -3.06054,7.28125 -0.45022,0.3761 -1.66303,0.55813 -3.0586,0.45703 -3.09595,-0.2243 -3.19017,0.54341 -0.63476,5.20313 2.30775,4.20813 2.85244,4.40327 7.42383,2.68164 5.48714,-2.06651 6.90375,-5.36616 9.75195,-22.70508 1.2988,-7.90661 1.74805,-11.38645 1.74805,-13.55274 0,-1.17284 0.27842,-2.51728 0.61914,-2.98632 0.65976,-0.9082 3.49906,-1.74446 5.98437,-1.76368 1.49123,-0.0115 1.51007,0.0212 1.81836,2.99024 0.17145,1.6511 0.3125,7.94448 0.3125,13.98437 l 0,10.98047 -1.69922,1.61328 c -1.98283,1.88235 -2.09947,2.43173 -0.60547,2.83399 1.69554,0.45652 17.12863,0.98515 18.07618,0.61914 0.71577,-0.27646 0.50221,-0.69238 -1.40625,-2.74609 -2.78293,-2.99476 -3.14435,-3.91311 -3.94336,-10.01954 -0.90455,-6.91287 -1.47331,-24.96609 -0.8125,-25.76757 0.68757,-0.83392 2.42277,-9.42554 2.34179,-11.59375 -0.0663,-1.7751 -0.43527,-1.95891 -2.55273,-1.2793 -1.41887,0.4554 -1.5548,-0.40576 -1.93164,-12.15039 -0.35422,-11.03951 -0.0424,-13.1359 2.24609,-15.07422 0.79554,-0.67381 1.44727,-1.59087 1.44727,-2.03906 0,-0.55332 -0.38268,-0.7195 -3.30664,-0.65235 z m -51.52149,1.15235 -4.0039,0.13672 c -2.2016,0.0748 -4.76717,0.33592 -5.70117,0.58203 -0.93402,0.24611 -3.88022,0.80622 -6.54883,1.24414 -8.15359,1.338 -12.55364,2.28507 -13.95117,3.00195 -1.31298,0.67351 -1.33399,0.75637 -1.33399,5.28125 0,2.5291 0.19448,4.71964 0.43164,4.86719 0.23717,0.14754 1.03012,-0.52084 1.76172,-1.48633 1.39664,-1.84313 6.39494,-4.5833 8.36133,-4.58398 l 1.08984,0 0,23.21289 c 0,25.06052 -0.005,25.12983 -2.60547,27.54297 -0.70154,0.65121 -1.27539,1.3851 -1.27539,1.63281 0,0.55965 3.39763,0.23553 8.49024,-0.81055 2.13489,-0.43853 4.82875,-0.9872 5.98437,-1.2207 2.31778,-0.46831 3.69552,-1.47258 2.58203,-1.88086 -0.35944,-0.13179 -1.35759,-0.85979 -2.21679,-1.61914 -1.2792,-1.13055 -1.67264,-1.98457 -2.17969,-4.70703 -0.76497,-4.10741 -1.28874,-29.26479 -0.78906,-37.92578 l 0.36132,-6.27539 4.11329,0.16992 c 4.10251,0.1697 4.97034,0.56027 5.62109,2.52539 0.0924,0.27885 0.53728,0.36561 0.98828,0.1914 0.6926,-0.26751 0.82031,-1.05969 0.82031,-5.09765 z m 41.24219,7.33203 c 0.52247,-0.32502 0.9341,5.14581 1.28711,17.11133 l 0.31641,10.76172 -1.16602,0.75781 c -1.5098,0.98009 -4.3066,1.94129 -4.36719,1.50195 -0.21286,-1.54349 0.21257,-5.65314 1.57813,-15.23633 0.28708,-2.01462 0.60435,-4.54077 0.70312,-5.61523 0.33358,-3.6292 1.29861,-9.06362 1.64844,-9.28125 z m -89.11914,3.66406 c -2.90402,0 -4.15037,0.25521 -6.33789,1.29688 -5.01673,2.3889 -10.6034,9.20143 -12.97266,15.81836 -2.44123,6.81794 -3.14366,11.22807 -3.15625,19.8496 -0.0125,8.56505 0.58955,12.4188 2.63868,16.89844 1.24063,2.71217 4.71118,6.47871 6.92578,7.51563 2.1321,0.9983 8.17858,0.54922 10.78711,-0.80078 7.14905,-3.69987 12.4328,-11.42439 15.24023,-22.2793 1.12272,-4.34105 1.27344,-5.86624 1.27344,-12.89844 0,-5.82799 -0.20878,-8.71094 -0.77344,-10.70508 -0.42503,-1.501 -0.99131,-3.50763 -1.25781,-4.45898 -0.76069,-2.71557 -3.87621,-6.90942 -6.42578,-8.64844 -2.10982,-1.43907 -2.66466,-1.58789 -5.94141,-1.58789 z m -2.4082,6.88281 c 0.87174,-0.0149 1.71036,0.21592 2.46093,0.71094 3.57015,2.35464 6.09571,10.54034 6.09571,19.75391 0,13.69958 -4.05802,24.57945 -10.12696,27.14844 -1.98743,0.84127 -2.32741,0.83229 -4.20898,-0.11329 -8.05923,-4.05018 -7.99571,-33.34327 0.0957,-44.02148 1.68405,-2.22243 3.76577,-3.44563 5.6836,-3.47852 z m -24.35547,0.80079 c -0.19593,0.0219 -0.42482,0.0648 -0.6875,0.1289 -1.8357,0.44806 -9.73783,3.36025 -13.14063,4.8418 -2.45724,1.06987 -2.76949,2.02028 -0.8164,2.48437 2.21663,0.52672 2.85861,2.22613 3.39258,8.98633 0.58258,7.3757 0.65341,26.63915 0.10156,27.51367 -0.25446,0.40323 -0.87181,-0.24222 -1.86719,-1.95312 -2.1399,-3.67813 -5.61915,-9.90351 -7.42578,-13.28711 -2.10018,-3.93339 -3.80854,-6.85595 -5.70899,-9.76953 -0.87206,-1.33695 -1.58398,-2.79013 -1.58398,-3.22852 0,-0.43838 0.87201,-1.79496 1.93945,-3.01562 1.06744,-1.22065 1.94141,-2.54349 1.94141,-2.93946 0,-1.08712 -1.41536,-2.09403 -2.17188,-1.54492 -0.34862,0.25305 -2.13031,1.62774 -3.96093,3.05469 -8.44823,6.58532 -20.50351,10.11963 -25.13477,7.36914 -2.18582,-1.29815 -2.20197,-2.2587 -0.0449,-2.66602 1.90348,-0.35945 2.41394,-0.8574 2.875,-2.79882 0.4365,-1.83793 -0.92453,-4.66468 -2.42969,-5.04493 -3.5274,-0.89115 -5.78157,2.3998 -5.43164,7.93165 0.16571,2.61952 0.41742,3.33178 1.62891,4.61132 0.78822,0.83251 2.17043,1.82611 3.07031,2.20703 3.65928,1.54898 11.00137,0.49305 17.92578,-2.57812 0.88597,-0.39295 1.88169,-0.61035 2.21289,-0.48242 1.28255,0.4954 1.76372,7.78171 1.74414,26.46289 -0.0227,21.68185 -0.6738,31.04341 -2.39062,34.4043 -0.6094,1.19297 -3.33083,4.48794 -6.04883,7.32421 -5.68085,5.92804 -6.33852,6.86343 -6.81055,9.67579 -0.5945,3.54192 1.31297,7.02734 4.58789,8.38085 1.44609,0.59767 4.18703,0.24526 5.69532,-0.73242 2.95585,-1.91599 3.16068,-4.71701 0.49218,-6.71679 -1.77685,-1.33158 -3.72861,-0.69651 -4.70507,1.53125 -0.98355,2.24388 -2.1689,1.88707 -2.35743,-0.71094 -0.18636,-2.56841 1.22315,-4.28142 7.10743,-8.63477 7.25164,-5.36493 10.58939,-9.19976 11.54296,-13.26367 0.72323,-3.08228 1.11543,-12.11598 1.13477,-26.12891 l 0.0215,-15.87304 2.71875,4.88476 c 1.49539,2.68617 3.76893,6.75193 5.05078,9.03516 2.99088,5.32734 5.37077,9.6634 7.5625,13.78125 l 1.7461,3.28125 1.52539,-0.65234 c 3.99583,-1.70778 7.10351,-3.48836 7.10351,-4.07032 0,-0.35361 -0.55854,-0.8563 -1.24023,-1.11718 -0.80043,-0.30633 -1.59553,-1.28862 -2.24805,-2.77344 -0.99209,-2.25754 -1.00606,-2.70413 -0.6875,-24.60547 0.17844,-12.26769 0.53614,-23.59531 0.79297,-25.17383 0.25682,-1.57853 0.46721,-2.90357 0.46875,-2.94531 0.002,-0.0417 0.76716,-0.99775 1.70117,-2.12305 1.91571,-2.30803 2.18008,-3.21379 0.8086,-3.06054 z m 137.30273,1.33789 c -1.23536,0.11109 -1.01758,0.88553 0.26172,2.54687 1.18281,1.53602 2.69981,4.48286 2.84375,5.52539 0.0185,0.13431 0.34436,1.89163 0.72461,3.90625 0.93467,4.95204 0.93557,33.09438 0.002,39.01953 -0.59325,3.76234 -0.80345,4.25063 -2.57031,5.97657 -1.20798,1.18002 -1.82009,2.15742 -1.64258,2.62304 0.15555,0.408 0.45259,0.69215 0.66016,0.63086 0.20757,-0.0613 1.74228,0.155 3.41016,0.48242 1.66788,0.32741 4.28782,0.80489 5.82226,1.06055 1.53446,0.25565 4.64574,0.80955 6.91406,1.23047 7.26187,1.34752 8.94239,1.61414 10.55274,1.66992 l 1.57812,0.0547 -0.0117,-2.8086 -0.002,0 c -0.0113,-2.76368 -0.60541,-6.27951 -1.1543,-6.83203 -0.15405,-0.15505 -1.1302,0.10424 -2.16992,0.57618 -1.48831,0.67554 -2.87417,0.82224 -6.51562,0.6875 -2.54385,-0.0941 -4.76601,-0.31325 -4.9375,-0.48633 -0.85799,-0.86598 -1.20403,-8.2952 -1.21289,-26.02539 -0.009,-18.44681 0.0431,-19.61184 0.95117,-21.5 0.52806,-1.09799 1.61953,-2.38975 2.42578,-2.86914 2.86923,-1.70605 1.9096,-2.40064 -5.08398,-3.6836 -1.60116,-0.29373 -4.73741,-0.88713 -6.96875,-1.31836 -1.87198,-0.36177 -3.13574,-0.53345 -3.87696,-0.46679 z m 32.55664,5.41015 c -1.4906,0.0844 -1.14435,0.84908 0.28711,2.33789 3.73918,3.88898 4.44482,8.42277 4.44531,28.55664 4.8e-4,20.72171 -0.52236,24.50029 -3.70507,26.83399 -1.68706,1.23702 -1.28081,2.56445 0.78515,2.56445 0.81299,0 2.7313,0.31376 4.26172,0.69727 2.82789,0.70864 6.00084,1.2671 12.9707,2.28711 2.13489,0.31243 4.53732,0.74371 5.3379,0.95703 0.80058,0.2133 2.11152,0.34787 2.9121,0.29882 1.43746,-0.088 1.45476,-0.1227 1.4004,-2.77539 -0.0303,-1.47738 -0.43966,-4.11532 -0.90821,-5.86132 -2.35515,-8.77623 -2.6463,-13.19092 -1.23828,-18.73243 2.28102,-8.97741 10.00104,-14.94488 19.35547,-14.96093 5.8326,-0.01 12.21511,2.36525 15.03125,5.59375 2.92047,3.34811 3.68717,5.44479 3.66992,10.02929 -0.0178,4.72611 -0.56005,6.12748 -3.42773,8.8418 -3.49602,3.30908 -8.58595,4.29541 -12.30664,2.38477 -2.3262,-1.19456 -4.82791,-5.23805 -4.83203,-7.8086 -0.004,-1.99575 1.37401,-4.49022 3.10937,-5.63476 1.72885,-1.14023 3.97711,-0.37582 3.78906,1.28906 -0.0728,0.64435 -0.26205,2.30017 -0.41992,3.67969 -0.24409,2.13289 -0.1341,2.66291 0.73828,3.54101 1.55979,1.57006 3.36699,1.31537 5.49414,-0.77539 1.45988,-1.43492 1.83985,-2.17382 1.83985,-3.57617 0,-2.8271 -1.37661,-6.16595 -3.21094,-7.78711 -1.45333,-1.28444 -2.04672,-1.48047 -4.49414,-1.48047 -1.59014,0 -3.48678,0.33529 -4.34766,0.76758 -4.89451,2.45778 -8.18507,9.31735 -6.84961,14.2793 0.96987,3.60362 2.77181,6.33174 5.08008,7.69336 2.62048,1.54581 3.6409,1.78844 7.32031,1.74414 6.54615,-0.0788 13.07206,-4.93013 16.33594,-12.14258 0.83366,-1.84219 1.05418,-3.2498 1.05274,-6.72461 -0.002,-3.80076 -0.18312,-4.77192 -1.3418,-7.17578 -1.97847,-4.10468 -5.17159,-7.41521 -8.96094,-9.29297 l -3.23242,-1.60156 -8.25781,0 -8.25977,0 -3.36328,1.70898 c -6.226,3.16414 -9.88756,7.4676 -12.6582,14.87695 -1.6361,4.37531 -1.74628,5.12614 -2.02344,13.83594 l -0.23828,7.4668 -3.69727,-0.14063 -3.69726,-0.14257 -0.36914,-1.70899 c -0.20218,-0.94016 -0.40449,-11.08051 -0.45118,-22.5332 -0.0829,-20.31755 -0.0599,-20.87479 0.94532,-22.96485 0.5666,-1.17814 1.68984,-2.53426 2.49609,-3.01367 0.80625,-0.47939 1.46484,-1.18842 1.46484,-1.57617 0,-0.38772 -0.0818,-0.70508 -0.18359,-0.70508 -0.10173,0 -3.21302,-0.63189 -6.91406,-1.40429 -5.91635,-1.23473 -9.24377,-1.83054 -10.73438,-1.7461 z m -102.63281,47.39063 c -2.97659,-0.0849 -7.58874,0.85047 -11.75195,2.55273 -2.98606,1.22095 -11.51493,5.7024 -14.39844,7.56445 -1.42062,0.91737 -3.78421,2.44147 -5.25195,3.38672 -5.0784,3.2706 -11.2745,6.0812 -14.07032,6.38282 -2.52828,0.27275 -7.57974,-0.13976 -11.03906,-0.90039 -1.44643,-0.31804 -1.57617,-0.24715 -1.57617,0.85937 0,2.40037 2.82866,3.66677 9.21484,4.12305 6.84274,0.48891 7.48706,0.25887 25.46094,-9.06446 8.32807,-4.3199 10.86193,-4.93896 11.9375,-2.91601 0.60495,1.13778 1.89469,6.53044 2.84766,11.90234 0.33357,1.88031 1.35383,7.37389 2.26758,12.20899 0.91376,4.83508 1.89272,10.11096 2.17382,11.72265 0.28109,1.6117 0.80243,4.46735 1.16016,6.34766 0.35772,1.88032 0.9065,5.17725 1.21875,7.32617 0.31224,2.14893 0.77547,5.02363 1.0293,6.38672 0.25383,1.36309 0.57623,3.43747 0.71679,4.61133 0.14057,1.17385 0.34666,2.28117 0.45704,2.46093 0.201,0.32737 0.76732,4.81425 1.88085,14.86915 0.69969,6.31806 0.32377,8.88366 -1.71484,11.69531 -0.76872,1.06023 -1.39648,2.10461 -1.39648,2.32031 0,0.66373 1.56821,0.44121 5.34961,-0.75781 13.77012,-4.36626 14.04311,-4.52574 11.01562,-6.42969 l -1.56836,-0.98633 -0.15234,-4.875 c -0.0842,-2.68139 0.083,-6.85199 0.37109,-9.26953 0.28807,-2.41755 0.62753,-5.49481 0.75391,-6.83789 0.12637,-1.34308 0.44221,-4.09085 0.70117,-6.10547 0.25898,-2.01462 0.71025,-5.86072 1.00391,-8.54687 1.27499,-11.66263 1.92959,-13.34317 2.64453,-6.79492 0.17338,1.5881 0.51295,4.42633 0.75586,6.30664 0.2429,1.88032 0.67462,5.28708 0.95898,7.57031 0.84257,6.76523 1.95097,14.70884 2.44727,17.54101 0.9014,5.14401 0.63836,7.24918 -1.23438,9.87305 -0.93401,1.30863 -1.69922,2.48937 -1.69922,2.62305 0,0.56123 2.45811,0.16483 6.07813,-0.98047 9.63221,-3.04741 11.875,-3.89642 11.875,-4.5 0,-0.35111 -0.71083,-1.27928 -1.57813,-2.0625 l -1.57617,-1.42383 0.10742,-6.01758 c 0.10305,-5.77631 0.32129,-8.08903 1.8418,-19.44922 0.3775,-2.82046 0.9256,-6.99606 1.2168,-9.27929 0.72636,-5.69507 1.41535,-10.31266 2.1875,-14.65039 0.35861,-2.01462 0.9016,-5.31156 1.20507,-7.32618 0.30346,-2.01461 0.77218,-4.65255 1.04297,-5.86132 0.27079,-1.20877 0.56541,-2.74643 0.6543,-3.41797 0.27418,-2.07122 2.09124,-5.83857 3.87305,-8.02735 0.9343,-1.14769 1.69922,-2.2559 1.69922,-2.46484 0,-0.20894 -0.81764,-0.24706 -1.81836,-0.084 -2.66266,0.43387 -14.41281,4.28771 -15.47071,5.07421 -0.86112,0.64019 -0.82758,0.73776 0.67578,1.98829 1.56711,1.30355 1.58052,1.35374 1.57618,5.61718 -0.003,2.36609 -0.20488,5.77286 -0.45118,7.57032 -0.2463,1.79745 -0.70498,5.9055 -1.01757,9.1289 -0.31259,3.22339 -0.77576,7.06949 -1.03125,8.54688 -0.25548,1.4774 -0.66525,4.99398 -0.91016,7.81445 -0.73989,8.52061 -1.08089,11.23242 -1.4082,11.23242 -0.35579,0 -1.67523,-7.87982 -2.41407,-14.4082 -0.27361,-2.41754 -0.71959,-6.37348 -0.99023,-8.79102 -0.93884,-8.38634 -1.54785,-18.37888 -1.21484,-19.92968 0.40774,-1.89889 2.41659,-6.00131 3.16797,-6.46875 0.39544,-0.246 0.37978,-0.44336 -0.0566,-0.71485 -0.68189,-0.42422 -6.96084,1.22621 -13.01953,3.42188 -2.2321,0.80892 -4.14315,1.4707 -4.24609,1.4707 -0.68673,0 0.0586,1.35606 1.33398,2.42773 1.44868,1.21737 1.5157,1.43462 1.44727,4.61133 -0.0395,1.8336 -0.16543,3.48714 -0.28125,3.67578 -0.11582,0.18862 -0.34474,1.64577 -0.50781,3.23829 -0.16307,1.59253 -0.47677,3.6653 -0.69727,4.60546 -0.22052,0.94016 -0.65599,4.01742 -0.9668,6.83789 -0.31081,2.82047 -0.87228,7.43539 -1.24804,10.25586 -0.37576,2.82047 -0.91849,7.21573 -1.20703,9.76758 -0.28853,2.55184 -0.64928,5.18979 -0.80078,5.86133 -0.26468,1.17314 -0.28913,1.1809 -0.66211,0.20117 -0.42043,-1.10432 -1.21909,-6.54996 -1.05274,-7.18164 0.0929,-0.35283 -0.69311,-5.69472 -1.84765,-12.55469 -0.24865,-1.47739 -0.69218,-4.11532 -0.98633,-5.86132 -0.29415,-1.746 -0.60203,-3.72496 -0.6836,-4.39649 -0.29688,-2.44412 -2.24588,-14.47656 -2.76367,-17.06055 -0.29243,-1.45933 -0.6085,-3.43631 -0.70312,-4.39453 -0.0946,-0.95822 -0.39822,-2.92615 -0.67383,-4.37304 -0.27562,-1.44691 -0.50195,-4.24872 -0.50195,-6.22461 0,-3.43583 0.0691,-3.65135 1.55468,-4.93946 4.17552,-3.62052 5.0873,-5.36991 3.58594,-6.88086 -0.4812,-0.48427 -1.49661,-0.73483 -2.84961,-0.77343 z m -26.32617,22.19336 c -2.13483,0.10299 -4.39077,1.38012 -6.63477,3.79492 -2.65171,2.85354 -4.19023,5.76557 -5.85547,11.08789 -2.35465,7.52573 -2.53338,9.0984 -2.51171,21.97851 0.0199,11.83758 0.0603,12.33583 1.3164,16.3711 2.93764,9.43703 7.62207,12.49824 13.25195,8.6582 2.47211,-1.68617 5.46786,-5.64942 6.49415,-8.5957 0.3412,-0.9795 0.8944,-2.44025 1.23046,-3.2461 0.67261,-1.61292 1.6834,-5.14141 2.02539,-7.06835 0.12059,-0.67947 0.41924,-2.115 0.66407,-3.18946 0.60769,-2.66683 0.5887,-23.5241 -0.0234,-25.64258 -0.27117,-0.93838 -0.60704,-2.36602 -0.74609,-3.17187 -0.47491,-2.75231 -3.81321,-8.72397 -5.52735,-9.88672 -1.16529,-0.79046 -2.4027,-1.15164 -3.68359,-1.08984 z m 86.71484,0.0312 c -1.26487,-0.008 -2.95141,0.0455 -5.13476,0.13672 -4.29618,0.17948 -8.30192,0.4587 -8.90235,0.61914 -1.44063,0.38496 -1.38299,1.34779 0.14844,2.4707 l 1.24023,0.91016 -0.51367,6.57812 c -0.28295,3.61852 -0.74596,9.54751 -1.02734,13.17383 -0.28139,3.62631 -0.72568,8.4129 -0.98828,10.63867 -0.2626,2.22577 -0.58385,5.41287 -0.71289,7.08203 -0.29673,3.83829 -1.42907,10.4438 -2.08594,12.16211 -0.60182,1.57432 -2.16725,2.51915 -3.48047,2.09961 -1.61109,-0.5147 -1.59896,0.94644 0.0312,3.61328 1.76233,2.883 2.54322,3.06944 5.81836,1.39844 1.18703,-0.60562 2.54753,-1.78968 3.03125,-2.63867 0.81576,-1.43174 2.92125,-10.83231 2.70313,-12.07032 -0.0534,-0.3036 0.0725,-1.92661 0.28125,-3.60546 l 0.38085,-3.05274 2.56055,0 c 1.63713,0 2.77016,0.25382 3.14063,0.70313 0.3188,0.38666 0.77203,2.74904 1.00586,5.25 l 0.42578,4.54882 -1.54688,1.60743 c -2.14266,2.22901 -1.43393,2.52605 6.05469,2.53515 6.7421,0.008 7.72357,-0.37846 5.60937,-2.20898 -1.77812,-1.53953 -2.81706,-3.81404 -3.3125,-7.25 -0.5715,-3.96337 -1.9695,-15.91537 -2.00585,-17.15039 -0.0158,-0.53724 -0.307,-3.06534 -0.64649,-5.61719 -0.33949,-2.55185 -0.76412,-7.68445 -0.94531,-11.40625 l -0.33008,-6.76758 1.30859,-1.37304 c 1.69563,-1.78151 1.6872,-2.36216 -2.10742,-2.38672 z m 10.26758,0.39257 c -2.64598,0.0348 -2.79164,0.69876 -0.88476,2.50196 2.00281,1.89393 2.55568,4.91453 2.92382,15.94922 0.40814,12.23374 -0.46502,32.0752 -1.52343,34.625 -0.6041,1.45534 -0.91828,1.67578 -2.38672,1.67578 -2.12046,0 -2.1584,0.67109 -0.19141,3.40429 1.40094,1.94668 1.62312,2.06772 3.33984,1.83594 2.89837,-0.39131 4.51565,-1.41907 5.73633,-3.64648 1.09726,-2.00222 1.13835,-2.50851 1.3711,-16.84766 0.13196,-8.13047 0.35129,-15.11075 0.48632,-15.51367 0.13503,-0.40292 1.12732,1.57406 2.20704,4.39453 1.07971,2.82047 2.60948,6.7764 3.39843,8.79102 2.5327,6.46739 4.78252,12.36427 6.05469,15.87304 0.68175,1.88031 1.52978,4.07893 1.88672,4.88477 0.35692,0.80585 1.4434,3.55165 2.41211,6.10351 7.3368,19.32729 17.28504,40.99994 22.68359,49.41407 7.83826,12.21665 17.63408,17.45701 29.10157,15.5664 9.9773,-1.64492 17.76919,-10.6532 18.96484,-21.92187 1.56801,-14.7781 -4.46608,-25.07418 -16.11524,-27.4961 -5.73362,-1.19206 -13.43514,1.24481 -17.65625,5.58594 -5.17557,5.32274 -6.98796,12.51266 -4.78125,18.96875 2.74974,8.04485 7.33451,12.7089 13.17383,13.39844 4.24294,0.50104 6.57891,-0.38202 9.71485,-3.66992 3.95242,-4.14393 4.93792,-8.70682 2.82812,-13.09375 -1.4885,-3.09505 -4.14407,-4.72563 -7.73242,-4.7461 -2.47667,-0.0141 -3.00251,0.1608 -4.34961,1.44922 -2.93471,2.80684 -3.66389,5.88134 -2.12891,8.97852 1.18119,2.38332 2.70601,3.19792 4.73047,2.52539 2.03759,-0.67688 2.92994,-1.66483 3.70899,-4.10547 0.54822,-1.71748 0.66913,-1.81399 1.37109,-1.10742 1.57313,1.58347 0.43322,6.59434 -1.98242,8.7168 -1.84998,1.62544 -3.98839,1.60901 -7.34961,-0.0567 -5.62031,-2.78507 -8.98867,-8.47983 -8.99024,-15.19531 -0.002,-8.13258 5.07554,-13.33485 13.07813,-13.40039 2.00146,-0.0165 4.6214,0.25721 5.82227,0.60938 4.72954,1.38702 9.28815,6.09642 10.91796,11.27734 1.29398,4.11336 1.2093,14.96457 -0.14453,18.5 -3.17384,8.28823 -8.66324,12.31836 -16.7832,12.31836 -3.69287,0 -4.36521,-0.15967 -7.63281,-1.79883 -4.68648,-2.35093 -8.66256,-6.39165 -12.16406,-12.36523 -4.2772,-7.29687 -12.65547,-24.02207 -15.66016,-31.25782 -1.50585,-3.62632 -2.94122,-6.96838 -3.18945,-7.42773 -0.24825,-0.45935 -1.33906,-3.31695 -2.42383,-6.34961 -1.08478,-3.03266 -2.16183,-5.97714 -2.39258,-6.54297 -0.23075,-0.56584 -1.18061,-3.6431 -2.11133,-6.83789 -2.40835,-8.26685 -2.81564,-12.67917 -2.27148,-24.61133 0.25114,-5.50663 0.46148,-12.73261 0.46875,-16.05859 l 0.0137,-6.04688 1.72851,-1.64257 c 0.95096,-0.90278 1.61262,-1.83207 1.46875,-2.06641 -0.32319,-0.52637 -4.70119,-1.36653 -9.38281,-1.79883 -3.78266,-0.34931 -4.4396,0.0883 -2.5039,1.66602 1.80629,1.47227 2.45632,5.39767 2.73437,16.49804 0.14231,5.68131 0.10214,11.17126 -0.0898,12.20118 l -0.34961,1.87304 -0.66797,-1.21289 c -0.36716,-0.66738 -0.91889,-1.98367 -1.22656,-2.92383 -0.30767,-0.94016 -0.84632,-2.36798 -1.19727,-3.17382 -0.542,-1.24456 -8.42345,-20.78793 -9.98437,-24.75782 -0.53368,-1.35732 -1.55647,-1.76109 -4.78907,-1.89062 -0.48128,-0.0193 -0.91106,-0.0265 -1.28906,-0.0215 z m 31.66992,3.73047 c -1.06509,0.0724 -0.69636,0.74703 0.40821,2.06836 1.9857,2.3754 2.21298,4.87084 2.23828,24.45899 0.0258,20.04824 -0.21166,22.5015 -2.35938,24.33789 -1.05458,0.9017 -1.14818,1.18329 -0.61328,1.83203 0.3475,0.42147 1.20506,0.76936 1.90625,0.77344 0.70119,0.004 2.25811,0.3203 3.45898,0.70117 2.86485,0.90865 7.70483,0.93658 9.79688,0.0566 2.90776,-1.22293 6.56818,-5.83585 7.75586,-9.77149 2.01379,-6.67316 2.33984,-8.90221 2.33984,-16.01953 0,-10.63282 -1.95358,-17.55276 -6.21875,-22.02343 -2.44365,-2.56136 -4.3009,-3.42161 -10.51953,-4.875 -4.62912,-1.0819 -7.12827,-1.61142 -8.19336,-1.53907 z M 286.14677,405.171 c 2.09702,0.2868 3.59942,4.11291 4.88281,12.06055 0.8986,5.56476 0.77708,16.51094 -0.24024,21.54492 -1.40266,6.94067 -1.7348,8.21882 -2.7207,10.51562 -0.96838,2.25596 -3.55739,5.11133 -4.63476,5.11133 -0.24639,0 -0.87304,-0.42627 -1.39258,-0.94922 -2.71502,-2.73289 -3.90405,-9.04055 -3.90625,-20.72656 -0.003,-13.56668 2.21062,-23.92027 5.70312,-26.68555 0.84504,-0.66907 1.60959,-0.96669 2.3086,-0.87109 z m -19.30274,0.0625 c -0.135,0.0132 -0.29498,0.0459 -0.47656,0.0996 -3.52998,1.04416 -11.16124,4.38656 -11.39063,4.98828 -0.15926,0.41774 0.27355,1.14766 1.05079,1.77148 1.4522,1.16556 1.26707,-0.36898 1.92773,15.97852 l 0.19922,4.92383 -3.03125,1.36914 c -1.66676,0.75275 -3.72199,1.52034 -4.56641,1.70703 l -1.53515,0.33984 0,-3.38086 c 0,-1.85918 0.14441,-6.39976 0.32031,-10.09179 0.29994,-6.29518 0.40511,-6.83918 1.68945,-8.7461 0.75325,-1.11837 1.37404,-2.19893 1.37891,-2.40039 0.0205,-0.85233 -2.31589,-0.2913 -6.54102,1.57032 -0.53373,0.23516 -2.22726,0.98204 -3.76172,1.66015 -1.53444,0.67808 -2.7888,1.41063 -2.78711,1.62695 0.002,0.21632 0.62561,0.74897 1.38477,1.1836 1.01939,0.58361 1.45855,1.28533 1.67969,2.68555 1.18667,7.5136 0.59006,53.41704 -0.73047,56.21875 -0.35113,0.74499 -1.34754,1.66848 -2.21484,2.05273 -1.78335,0.7901 -1.91175,1.37398 -0.78907,3.59961 1.72888,3.42737 2.68183,3.59511 5.55274,0.98437 1.08754,-0.98899 2.38248,-2.59663 2.87695,-3.57226 1.30016,-2.56529 1.93751,-10.85961 1.93945,-25.2207 l 0.002,-12.27735 3.76171,-1.52148 c 2.06818,-0.83749 4.00944,-1.52293 4.31446,-1.52149 1.32503,0.006 1.44095,3.37565 0.61133,17.82813 -0.47956,8.35442 -0.65024,9.48558 -1.69922,11.32226 -1.07781,1.88717 -1.51074,3.57422 -0.91602,3.57422 0.1375,0 2.48555,-0.88972 5.2168,-1.97851 7.00061,-2.79074 8.45387,-3.88801 6.13476,-4.62891 -2.27659,-0.72732 -2.38181,-1.96402 -2.36914,-27.68555 0.007,-14.32531 0.20813,-24.9297 0.49805,-26.19531 0.26791,-1.16954 1.02598,-2.83855 1.68555,-3.70898 1.33155,-1.75724 1.52897,-2.64747 0.58398,-2.55469 z m 100.9668,0.76562 c 0.37012,-0.21127 1.33411,9.98473 1.78125,18.98829 0.37983,7.64799 0.30713,7.9121 -2.18164,7.9121 -0.66715,0 -1.52286,-0.19769 -1.90235,-0.43945 -0.58806,-0.37464 -0.60227,-1.29265 -0.0976,-6.21875 1.23494,-12.05605 2.10594,-19.48042 2.36719,-20.1875 0.0107,-0.0289 0.0213,-0.0479 0.0332,-0.0547 z m 75.78711,3.09766 c -0.84347,0.1133 -0.48995,0.9286 1.03125,2.83399 l 1.52734,1.9121 0.45703,9.90235 c 0.53141,11.52937 0.17979,31.04335 -0.60742,33.74805 -0.40469,1.39044 -0.9081,1.99569 -1.9668,2.36718 -0.78246,0.27456 -1.42187,0.66047 -1.42187,0.85742 0,0.65595 3.15224,1.90442 14.79883,5.86133 l 5.82226,1.97852 0.14453,-2.40039 c 0.08,-1.32035 -0.20814,-3.62559 -0.64062,-5.12305 -0.43248,-1.49746 -0.87478,-2.72266 -0.98242,-2.72266 -0.10764,0 -0.54812,0.68567 -0.97852,1.52344 -0.74817,1.45632 -0.88751,1.51283 -3.20117,1.28906 -4.00712,-0.38756 -4.00387,-0.37796 -4.21484,-12.125 l -0.18555,-10.26953 1.39062,0.32422 c 2.05131,0.48061 3.45002,1.49676 4.66993,3.39258 0.59767,0.92881 1.22148,1.69199 1.38672,1.69531 0.16521,0.004 0.43615,-0.81886 0.60156,-1.82617 0.42331,-2.57787 0.3849,-9.40343 -0.0527,-9.38476 -0.20014,0.009 -0.78667,0.33804 -1.30468,0.73242 -1.16064,0.88363 -4.00159,0.90257 -5.55274,0.0371 -1.12336,-0.62679 -1.15475,-0.81064 -1.09766,-6.45313 0.0766,-7.57051 0.42902,-9.96639 1.46094,-9.94531 1.44276,0.0295 4.65785,2.67476 5.64453,4.64258 0.53372,1.06444 1.03792,2.03949 1.11914,2.16601 0.44124,0.68735 1.61652,-2.61097 2.30079,-6.45312 0.32196,-1.80781 0.30293,-1.83536 -1.98438,-2.82227 -3.13935,-1.35453 -14.77029,-5.22493 -16.91992,-5.63086 -0.54839,-0.10355 -0.96299,-0.14519 -1.24414,-0.10742 z m -18.34766,0.76172 1.52735,0.29297 c 2.25066,0.43339 4.87959,3.49915 5.94726,6.93164 0.75211,2.418 0.8944,4.44304 0.86719,12.41211 -0.0342,10.02036 -0.45826,12.82868 -2.5625,16.98047 -1.87689,3.70321 -5.02052,5.21357 -5.57422,2.67773 -0.50998,-2.33565 -0.94697,-28.46288 -0.56836,-33.99414 z m -187.62695,6.93945 c -0.13208,0 -2.75398,1.01133 -5.82422,2.24805 -5.82435,2.34609 -6.31682,2.83651 -4.83789,4.80469 0.91929,1.22342 0.9273,5.96547 0.0234,13.68359 -0.37884,3.23483 -0.93449,8.62863 -1.23438,11.98633 -0.74785,8.37326 -1.01941,10.07973 -1.47461,9.23828 -0.41713,-0.77105 -0.89319,-4.07096 -1.22461,-8.50586 -0.12043,-1.61169 -0.45539,-4.5275 -0.74414,-6.47852 -0.28874,-1.95102 -0.56008,-6.34627 -0.60351,-9.76757 -0.0709,-5.58651 0.0308,-6.43072 1.0039,-8.27735 0.59595,-1.13092 1.08399,-2.17335 1.08399,-2.31836 0,-0.42658 -2.36519,-0.30303 -3.28125,0.17188 -0.46339,0.24023 -2.74394,1.25344 -5.06836,2.25195 l -4.22656,1.81641 1.19335,1.76758 c 1.31677,1.95054 1.41387,2.97682 0.73243,7.79687 -0.58746,4.15541 -1.2787,9.817 -2.2168,18.16406 -1.06472,9.47361 -1.15727,9.71174 -2.17187,5.56055 -2.65074,-10.84531 -6.37742,-18.63972 -11.56641,-24.19531 -4.14097,-4.43352 -7.55004,-6.40967 -12.35156,-7.16211 -3.79192,-0.59424 -8.38349,-0.0735 -11.60938,1.31836 -3.42058,1.47588 -7.37877,5.71682 -9.48047,10.1582 -1.7801,3.76173 -1.80681,3.9105 -1.79101,9.68164 0.0182,6.66639 0.69902,8.87114 3.81054,12.33789 1.8196,2.02733 5.76145,4.271 8.46094,4.81446 2.65414,0.53432 5.65067,-0.67803 8.50586,-3.43946 4.39494,-4.25061 6.31646,-9.66135 5.20508,-14.66015 -0.70604,-3.17572 -1.91583,-4.85151 -4.44141,-6.14844 -2.96238,-1.52123 -5.13094,-1.17176 -8.56054,1.3789 -3.36893,2.50556 -4.72459,7.51423 -2.46485,9.10743 2.36047,1.66421 5.35961,0.55704 6.40821,-2.36524 0.39529,-1.10168 0.78271,-2.39162 0.86132,-2.86719 0.12831,-0.77618 0.32956,-0.73604 1.96289,0.38477 1.78889,1.22755 1.81836,1.30088 1.81836,4.42383 0,5.4597 -2.34628,8.7539 -6.23633,8.7539 -2.98497,0 -5.38893,-1.22691 -7.79687,-3.98046 -2.33236,-2.66715 -3.15491,-5.11314 -3.17578,-9.44922 -0.0271,-5.63193 2.3054,-10.56337 6.15234,-13.00782 2.21599,-1.40811 7.82978,-2.04351 10.81446,-1.2246 1.9082,0.52356 5.71282,2.78875 7.91015,4.70898 2.87226,2.51005 7.61482,10.23076 9.44727,15.38281 0.42994,1.20877 1.13178,3.16786 1.56054,4.35157 1.98372,5.47656 4.57799,23.61364 3.89844,27.25976 -0.16683,0.89509 -0.74769,2.38307 -1.28906,3.30664 -0.87248,1.48847 -0.88051,3.02001 -0.0137,2.57617 0.17569,-0.09 0.86605,-0.41072 1.5332,-0.71484 0.66715,-0.30413 3.00541,-1.25308 5.19531,-2.10742 5.05227,-1.971 5.64349,-2.61123 3.78907,-4.09961 l -1.37891,-1.10742 0.32812,-5.08594 c 0.82273,-12.80882 2.05427,-25.22077 2.66407,-26.83984 0.44006,-1.16835 0.46063,-1.15415 0.75,0.50781 0.16371,0.94015 0.51651,3.85169 0.7832,6.4707 1.06038,10.41305 1.519,14.24045 1.75391,14.62305 0.13515,0.2201 0.24112,2.1999 0.23632,4.40039 -0.007,3.25414 -0.19361,4.25368 -1,5.35156 -1.84868,2.51693 -1.01272,3.31411 2.01758,1.92578 1.14738,-0.52567 3.77754,-1.65184 5.84571,-2.50195 2.06817,-0.85011 3.76171,-1.77478 3.76171,-2.05469 0,-0.27989 -0.54573,-1.01826 -1.21289,-1.64062 -1.73787,-1.6212 -1.69381,-3.16271 0.72461,-24.37696 0.27561,-2.41754 0.73199,-6.4833 1.01367,-9.03515 0.47525,-4.30545 0.86207,-7.05918 2.42969,-17.33789 0.69722,-4.57163 1.49648,-7.09845 2.85547,-9.01953 0.89846,-1.27007 1.32129,-2.94532 0.74219,-2.94532 z m 229.12109,0.21289 c -0.93791,0.0132 -0.80845,0.72373 0.3711,2.13477 2.86039,3.42174 3.58861,19.7248 1.9082,42.75195 -0.28178,3.86128 -0.46848,4.49508 -1.75391,5.96875 l -1.4375,1.64844 3.07032,1.51562 c 2.91097,1.43716 9.86624,4.375 10.35937,4.375 0.61874,0 0.10354,-1.70011 -0.93555,-3.08593 -1.90974,-2.547 -2.29471,-4.85806 -2.13476,-12.78711 0.18296,-9.06942 0.66,-9.57011 2.33008,-2.44141 0.31466,1.34308 0.62687,2.88074 0.69336,3.41797 0.0665,0.53723 0.37889,2.07489 0.69335,3.41797 0.31446,1.34308 1.13072,4.85967 1.81446,7.81445 1.5814,6.83394 2.37451,9.23446 3.95312,11.9668 1.62607,2.8145 6.19298,7.32617 7.41602,7.32617 0.64042,0 1.3306,-0.77407 2.16211,-2.42578 1.56643,-3.11153 1.56214,-3.92383 -0.0195,-3.92383 -3.21311,0 -4.94548,-4.21248 -8.9375,-21.73437 -0.79559,-3.49201 -1.68808,-7.19949 -1.98242,-8.24024 -0.50874,-1.79879 -0.45318,-1.98086 1.09179,-3.66406 3.26452,-3.5566 3.54688,-4.49749 3.54688,-11.78125 0,-6.5541 -0.01,-6.61246 -1.61133,-9.52539 -2.79962,-5.09017 -5.62081,-7.05956 -16.46289,-11.49609 -2.02999,-0.83066 -3.40528,-1.24269 -4.13477,-1.23243 z m 10.55664,9.91602 c 1.27496,0.0848 3.98851,2.99439 4.59961,5.19141 0.93937,3.37718 0.5066,10.1595 -0.75781,11.87109 -1.1771,1.59337 -3.57313,2.09008 -4.52344,0.9375 -0.7677,-0.93112 -0.55776,-17.05962 0.23242,-17.85352 0.11306,-0.11358 0.26709,-0.15859 0.44922,-0.14648 z m -75.85547,35.39453 c -0.94795,-0.0185 -2.72934,0.10722 -4.57421,0.33594 -2.45983,0.30495 -5.53884,0.64934 -6.8418,0.76562 -1.30295,0.11627 -3.9229,0.43587 -5.82227,0.71094 -1.89937,0.27506 -4.47298,0.62646 -5.71875,0.78125 -1.24577,0.15481 -2.52353,0.59487 -2.83984,0.97852 -0.61963,0.75151 -0.51652,8.65557 0.12109,9.29687 0.1936,0.19473 1.21634,-0.51604 2.27344,-1.58008 1.95407,-1.96693 5.21496,-3.44513 6.50391,-2.94726 0.564,0.21785 0.78317,1.95474 1.0664,8.41797 0.41004,9.35681 -0.40211,36.28765 -1.16992,38.77734 -0.2837,0.91994 -1.09141,2.27658 -1.79297,3.01367 -1.41063,1.48206 -1.16661,2.64026 0.46289,2.20117 0.57032,-0.15368 3.43953,-0.42272 6.375,-0.59765 2.93546,-0.17493 5.74279,-0.52834 6.23828,-0.78516 0.84035,-0.43558 0.80246,-0.57116 -0.54296,-2.00976 -2.67323,-2.85839 -2.61618,-1.94466 -2.55664,-41.22266 l 0.0137,-9.40234 1.57812,0.004 c 2.66023,0.004 5.09573,0.93243 6.33594,2.41602 1.75855,2.10367 2.27539,1.1397 2.27539,-4.24219 0,-3.64323 -0.14783,-4.61417 -0.74219,-4.84375 -0.10223,-0.0395 -0.32659,-0.0622 -0.64258,-0.0684 z m -88.74609,3.32812 c -2.50516,0.007 -7.22818,2.16055 -15.19531,6.82813 -16.57539,9.71082 -20.95479,11.61831 -25.49219,11.10352 -1.64225,-0.18632 -2.63408,-0.66606 -3.86523,-1.86719 -1.96289,-1.91502 -2.10791,-2.62216 -0.44922,-2.20313 3.93759,0.99478 8.10448,-5.05768 4.99219,-7.25195 -2.47531,-1.74518 -7.47265,-0.40602 -10.52344,2.82227 -1.48211,1.56836 -1.65667,2.04938 -1.69141,4.62304 -0.05,3.70037 1.34387,5.88486 4.91797,7.70508 1.40348,0.71478 2.55273,1.37746 2.55273,1.47461 0,0.54616 -5.0359,-0.62053 -7.53515,-1.74609 -3.0507,-1.37392 -4.05376,-2.46458 -5.03125,-5.4668 -1.35049,-4.14785 -3.40935,-3.58587 -2.18945,0.59766 1.26943,4.35345 6.58885,8.76562 10.56835,8.76562 0.37386,0 1.74084,0.30784 3.03907,0.68555 1.29824,0.37771 3.56156,0.95533 5.02929,1.2832 2.95347,0.65975 8.76732,3.55537 10.07618,5.01758 0.82664,0.9235 0.80917,0.92443 -1.09961,0.10742 -1.06743,-0.45689 -3.57862,-1.49808 -5.58008,-2.3125 l -3.63867,-1.48047 -8.97657,0.1543 c -18.21003,0.31253 -18.94067,0.27823 -21.34961,-0.98633 -1.20087,-0.63039 -2.85781,-1.66213 -3.68359,-2.29492 -1.85274,-1.41974 -2.13867,-1.43159 -2.13867,-0.0898 0,0.61498 0.89285,1.921 2.125,3.10937 4.1303,3.98357 10.47166,4.98754 21.4082,3.39258 7.39335,-1.07824 10.23871,-0.94095 15.46485,0.74414 2.50802,0.80867 4.85873,1.83866 5.22265,2.28906 0.5878,0.72746 0.55346,0.77302 -0.30859,0.41211 -0.53372,-0.22346 -2.60794,-0.68829 -4.60938,-1.03516 -5.17462,-0.89681 -10.02547,-0.12273 -15.90625,2.54102 -1.40892,0.63818 -2.64456,1.16016 -2.74804,1.16016 -0.10346,0 -1.78931,0.95158 -3.7461,2.11523 -5.85102,3.47941 -17.57305,9.72018 -20.54101,10.93555 -2.24866,0.92082 -8.45948,1.66534 -10.90235,1.30664 -3.20029,-0.46992 -6.5817,-2.35321 -8.00195,-4.45703 -1.62818,-2.41185 -1.73041,-6.77309 -0.2168,-9.23828 2.22436,-3.62278 9.04637,-6.66644 12.56446,-5.60547 3.59678,1.08471 4.24727,3.35714 1.74023,6.08008 -1.04559,1.13562 -1.58051,1.30468 -4.11914,1.30468 -2.41064,0 -3.00689,0.16794 -3.43164,0.9668 -0.806,1.51593 -0.10561,3.29889 1.51953,3.86914 1.97957,0.69461 4.09566,0.18174 7.05859,-1.71094 1.97901,-1.26418 2.62666,-2.00535 3.0293,-3.46484 0.62957,-2.2821 0.63023,-2.40687 0.0176,-4.62695 -0.98434,-3.56729 -4.73126,-6.31724 -8.62695,-6.33008 -2.95836,-0.01 -7.92106,1.58006 -10.06055,3.22265 -3.74131,2.87242 -5.17047,8.94404 -3.18555,13.5293 2.16203,4.99438 5.48214,8.03475 10.68164,9.78125 3.24304,1.08933 6.57703,1.1221 10.16016,0.0977 3.27279,-0.93568 10.82274,-4.51077 14.42773,-6.83203 1.421,-0.91498 2.72472,-1.66407 2.89649,-1.66407 0.17177,0 0.97426,-0.47543 1.78515,-1.05664 3.72577,-2.67043 13.48391,-7.53028 17.11329,-8.52343 3.58958,-0.98229 9.60967,-0.8469 13.34375,0.30078 4.01877,1.23517 5.07306,1.2641 4.60156,0.12304 -0.56931,-1.37775 -0.72613,-5.00586 -0.2168,-5.00586 0.94684,0 0.42397,-1.31617 -1.10937,-2.79101 -2.23515,-2.14989 -6.23133,-4.39318 -9.60352,-5.39063 -1.58886,-0.46998 -2.89026,-0.96741 -2.89062,-1.10547 -3.8e-4,-0.13805 1.90912,-0.68615 4.24414,-1.21875 2.99477,-0.68308 6.51122,-2.08476 11.93164,-4.75586 12.19932,-6.01161 13.58685,-5.39959 14.85937,6.55274 0.66409,6.23754 0.63856,33.3024 -0.0449,48.02344 -0.29933,6.44679 -0.51735,12.16198 -0.48437,12.69922 0.033,0.53723 -0.31097,2.40438 -0.76368,4.15039 -0.73397,2.83072 -1.18008,3.53043 -4.12304,6.46093 -4.15299,4.13541 -4.50593,6.75171 -0.79883,5.91211 1.26831,-0.28725 8.45853,-3.30184 13.91797,-5.83593 1.95853,-0.90908 3.62779,-1.65235 3.71093,-1.65235 0.0831,0 2.02543,-0.88062 4.31446,-1.95508 2.28904,-1.07446 4.28755,-1.95312 4.4414,-1.95312 0.15384,0 1.19494,-0.41722 2.31446,-0.92774 3.19509,-1.457 8.0348,-3.42557 11.74023,-4.77539 1.86802,-0.6805 4.05098,-1.52172 4.85156,-1.86914 1.932,-0.83839 11.0981,-3.83632 16.25391,-5.3164 5.84212,-1.67711 17.19658,-4.05742 24.74609,-5.1875 2.00144,-0.2996 4.92006,-0.76575 6.48633,-1.03711 1.56626,-0.27138 8.00638,-0.4925 14.3125,-0.49024 9.02637,0.004 12.13826,0.17442 14.6211,0.80664 1.73459,0.44169 3.67484,0.92851 4.3125,1.08008 3.04237,0.72317 8.70892,4.07005 11.39648,6.73242 4.01491,3.97726 5.48879,7.40005 5.60156,13.00977 0.0967,4.80848 -0.43147,6.33209 -2.92187,8.44141 -2.57335,2.17958 -5.21211,3.28166 -8.01172,3.34765 -2.94403,0.0694 -4.4794,-0.78327 -2.36914,-1.3164 3.51496,-0.888 7.51758,-5.28059 7.51758,-8.25 0,-1.89798 -2.6552,-4.73633 -4.43164,-4.73633 -2.15064,0 -4.48317,1.16368 -6.98438,3.48437 -5.60282,5.19847 -6.63493,13.1782 -2.07812,16.07422 1.3953,0.88677 2.15782,0.99226 5.80859,0.80664 3.62128,-0.18411 4.70202,-0.46174 7.81055,-2.00781 5.35264,-2.66218 10.03488,-7.65593 11.82617,-12.61328 1.46547,-4.05563 0.7898,-11.50429 -1.43555,-15.83594 -1.87493,-3.64958 -7.11674,-8.6224 -11.48633,-10.89648 -2.24507,-1.1684 -8.25397,-3.17006 -11.88672,-3.95899 -4.45803,-0.96816 -24.39646,-0.82548 -30.56835,0.21875 -2.66861,0.4515 -6.27127,1.0485 -8.00586,1.32617 -1.73459,0.27767 -4.57204,0.80202 -6.30664,1.16602 -1.7346,0.36397 -4.46524,0.93182 -6.06641,1.26172 -7.67765,1.58184 -25.52565,6.86262 -29.5957,8.75586 -0.53371,0.24827 -4.79284,2.02046 -9.46289,3.9375 -4.67006,1.91704 -9.69047,4.03728 -11.15821,4.71289 -1.46773,0.67561 -3.54194,1.56913 -4.60937,1.98437 -1.06745,0.41525 -2.14884,0.9417 -2.40235,1.16992 -0.25353,0.22822 -0.9624,0.41407 -1.57617,0.41407 l -1.11719,0 0,-38.60742 c 0,-44.58033 -0.0194,-44.31296 3.56446,-46.92579 2.46402,-1.79646 3.01064,-2.68391 2.23633,-3.62304 -0.37982,-0.46066 -0.96768,-0.69775 -1.80274,-0.69532 z m 53.95898,2.94141 c -7.34646,-0.17364 -15.74414,7.96452 -15.74414,16.8125 0,4.68542 1.3325,7.34871 9.64649,19.29102 3.09607,4.44721 3.93945,6.53229 3.93945,9.73242 0,4.09085 -2.10193,6.88672 -5.17578,6.88672 -2.12371,0 -3.07226,-1.46687 -3.07226,-4.74805 0,-1.41761 -0.19701,-2.57812 -0.4375,-2.57812 -0.74253,0 -5.8711,8.95875 -5.8711,10.25586 0,0.95107 2.43556,2.60815 4.98047,3.38867 2.17957,0.66847 5.40499,0.23602 8.3457,-1.11914 3.48358,-1.60533 5.66201,-3.69002 7.30664,-6.9961 1.23637,-2.4854 1.41101,-3.36313 1.39453,-6.99414 -0.0168,-3.71026 -0.20192,-4.54069 -1.73046,-7.81445 -0.94065,-2.01463 -3.55278,-6.40989 -5.80469,-9.76758 -4.82096,-7.18829 -5.85432,-9.24956 -6.11914,-12.20898 -0.33871,-3.78524 3.30413,-8.20707 6.22851,-7.56055 1.76807,0.39089 2.3783,1.73612 2.38868,5.27148 0.0128,4.3697 0.61263,4.30504 3.12695,-0.33789 1.25327,-2.3143 2.62639,-5.09806 3.05078,-6.18554 0.89167,-2.28491 0.69942,-2.61309 -2.53906,-4.32813 -1.22831,-0.65049 -2.55361,-0.96784 -3.91407,-1 z m -32.2246,11.25195 c -3.15694,0.0486 -6.64554,1.78287 -10.04883,5.14844 -4.53948,4.48915 -7.92832,11.66156 -9.43164,19.96094 -0.83579,4.61421 -0.84245,16.31619 -0.0117,20.08203 1.00678,4.56341 3.35217,8.92591 5.80664,10.79688 1.90758,1.4541 2.40933,1.59961 5.48828,1.59961 2.70372,0 3.9351,-0.26901 6.08398,-1.32813 1.6461,-0.81131 3.62471,-2.37839 5.08789,-4.0293 2.50831,-2.83007 6.63732,-10.43652 6.9004,-12.71093 0.0845,-0.72998 0.31731,-1.59376 0.51757,-1.91993 1.67336,-2.72535 2.3562,-19.06503 1.02149,-24.45507 -1.32284,-5.34209 -2.30014,-7.394 -4.8457,-10.17188 -1.85795,-2.0275 -4.11297,-3.01046 -6.56836,-2.97266 z m -2.07618,6.79493 c 2.25301,0 5.5177,5.43275 6.2461,10.39257 1.23918,8.43786 0.87685,14.73957 -1.3125,22.8086 -1.4168,5.22174 -3.85687,8.97886 -6.85352,10.55469 -1.61586,0.84972 -2.22093,0.84003 -3.85742,-0.0547 -6.83766,-3.73865 -5.96269,-33.24967 1.2207,-41.1836 1.24138,-1.37107 3.31652,-2.51757 4.55664,-2.51757 z m -63.81445,19.26367 c -0.11338,-9.8e-4 -0.26026,0.037 -0.44727,0.10351 -0.48376,0.17208 -1.57433,0.83108 -2.42382,1.46289 -0.84949,0.63182 -1.66621,1.14844 -1.81446,1.14844 -0.14826,0 -1.59428,1.01531 -3.21484,2.25586 l -2.94727,2.25391 1,0.93945 c 0.94329,0.8846 1.00196,1.4719 1.00196,10.33789 0,8.43714 -0.0998,9.59895 -0.97071,11.31836 -0.53372,1.05375 -0.9707,1.99257 -0.9707,2.08594 0,0.26485 0.91663,-0.3431 5.09375,-3.375 6.72518,-4.88138 6.58621,-4.74376 6.24024,-6.19727 -0.17096,-0.71826 -0.38173,-1.38918 -0.46875,-1.49218 -0.0871,-0.10301 -1.14334,0.88549 -2.34571,2.19726 -2.72699,2.9751 -3.16536,2.54582 -3.17578,-3.10937 -0.008,-4.5916 0.77928,-5.98243 3.38867,-5.98243 1.44099,0 1.45703,-0.0269 1.45703,-2.6875 l 0,-2.6875 -1.75585,1.95508 c -2.3857,2.65805 -3.09766,2.56035 -3.09766,-0.42578 0,-5.01341 0.69729,-6.17544 4.125,-6.87891 1.20696,-0.24769 1.48156,-0.56633 1.60742,-1.86523 0.0968,-0.9991 0.0589,-1.35448 -0.28125,-1.35742 z m -19.38477,13.0918 c -0.81282,0.0909 -2.06597,0.59666 -4.48046,1.59765 -2.25589,0.93525 -4.38447,1.69922 -4.73047,1.69922 -0.97923,0 -0.73919,1.37275 0.34179,1.95508 0.88125,0.47473 0.9663,1.00159 0.93555,5.7539 -0.0398,6.14157 -0.69405,15.49819 -1.19531,17.09766 l -0.34961,1.12109 2.12305,-0.84179 c 1.16829,-0.46236 2.62345,-1.1592 3.23242,-1.55078 1.00399,-0.64557 1.03728,-0.78939 0.36328,-1.53907 -0.90952,-1.0116 -1.09958,-9.01041 -0.20703,-8.71093 0.29479,0.0989 1.2882,2.04059 2.20703,4.31445 0.91882,2.27388 1.79323,4.41191 1.94336,4.75 0.4047,0.9114 2.20294,1.2171 3.72461,0.63476 0.81833,-0.31317 1.61442,-1.17186 2.04492,-2.20898 0.91506,-2.20445 0.92423,-2.17161 -0.63086,-2.06445 -1.19935,0.0827 -1.51883,-0.27291 -3.1543,-3.51563 -1.6901,-3.351 -2.2931,-6.25229 -1.47265,-7.07812 0.78944,-0.79465 1.89596,-4.62411 2.01758,-6.98242 0.10414,-2.01968 -0.0729,-2.7337 -0.875,-3.54102 -0.65339,-0.65769 -1.02507,-0.98158 -1.8379,-0.89062 z m -2.24414,3.49023 c 0.86088,-0.15819 1.13672,0.77737 1.13672,3.18164 0,2.12796 -0.27071,3.23136 -1.09179,4.45117 -1.91171,2.84006 -2.30469,2.47386 -2.30469,-2.15625 0,-3.9006 0.0815,-4.23353 1.19336,-4.96679 0.42807,-0.28233 0.77945,-0.45704 1.0664,-0.50977 z m -15.33984,2.44727 c -0.32798,-0.0139 -0.88459,0.0903 -1.73242,0.27734 -1.05883,0.23357 -3.19798,0.68053 -4.75195,0.99414 -2.3797,0.48023 -2.76252,0.69724 -2.42774,1.38086 0.89576,1.82907 -0.048,13.41504 -1.67773,20.5918 -0.70882,3.12149 -0.99351,3.68733 -1.92383,3.82031 -1.29186,0.18469 -1.34365,0.48347 -0.33594,1.93164 0.79001,1.13531 1.23486,1.256 2.94922,0.79297 1.25555,-0.33912 2.36996,-2.78792 3.125,-6.86719 0.53752,-2.90404 0.61546,-3.01947 2.25,-3.32813 0.9313,-0.17584 1.76788,-0.24445 1.85937,-0.15234 0.36026,0.36261 0.39117,4.59897 0.041,5.63477 -0.31769,0.93972 -0.20062,1.09961 0.80274,1.09961 0.64531,0 1.91514,-0.23898 2.82226,-0.53125 0.90711,-0.29228 1.95458,-0.62844 2.32813,-0.7461 0.53628,-0.16892 0.47588,-0.44315 -0.28516,-1.30078 -0.63396,-0.71442 -1.2386,-2.67273 -1.76953,-5.72461 -1.93451,-11.1198 -2.21709,-14.86814 -1.25391,-16.67969 0.43707,-0.82203 0.52711,-1.17018 -0.0195,-1.19335 z m -4.32031,5.13867 c 0.0244,-0.0216 0.0449,-0.0111 0.0625,0.0351 0.46409,1.22107 1.46875,9.943 1.26562,10.98828 -0.12441,0.64025 -0.64765,1.03153 -1.51953,1.13282 -1.21786,0.1415 -1.32728,0.0181 -1.30273,-1.46485 0.0466,-2.81316 1.12758,-10.36749 1.49414,-10.6914 z"
       id="rect4149"
       inkscape:connector-curvature="0"
       sodipodi:nodetypes="csssssscsscccscccsssscsssssccssccscsssssssscccsssscsccscssscsscccccscccccssscssssssssssssscssssscccssscsssssscssssssssssssssssssssscccscccssssscscccscscsccssscccccccccsssscccsssssscccssssssscscssssssssssscscccccscccccsccsssccsssssssssssssssscsssssccsssssssssssscccssssssssssscssssssssccsscscscssscccsssscsssscccssssssssscsscccsscccsssssssscccscccccsscsccccccsssssssssssscsssssssssscsssssscccssssssscssssccccssscccscsccccsssccscssssccsssssscsscccscccccssscsccsssssssccccsssssssscccsssccccccccssscccsssscccscscssscsssscccccsssscccsssscsssssscccsssssssssssssssccssssssssssssccscccccsccssssssssscccsscccsssscsssssssssscscccssscccssscccssssssscscccssccccsssssscsssssssssscccssssssccsssssssssssssssccssssssssssssscsssscssssssssssssccssssssssssssssssssscscssscscscsccssssssssssscssssssssscsscssssccsscccssscsccscsscccscssscscssccsccscsssscccsccsssscscsccsssscsscscscsssccsscsssssccccccc" />
  </g>
</svg>
